<svg id="Layer_2" data-name="Layer 2" xmlns="http://www.w3.org/2000/svg" viewBox="0 0 841.89 595.28"><defs><style>.cls-1{fill:#f59895;}.cls-2{fill:none;}.cls-3{fill:#fffecb;}.cls-4{fill:#bfbf98;}.cls-5,.cls-6{fill:#440016;}.cls-6{stroke:#440016;stroke-miterlimit:10;stroke-width:3px;}.cls-7{fill:#7a6000;}.cls-8{fill:#f4ffc4;}.cls-9{fill:#fffac7;}.cls-10{fill:#bfbb95;}.cls-11{fill:#430017;}</style></defs><title>face-01</title><g id="face"><ellipse class="cls-1" cx="455.46" cy="289.72" rx="6.05" ry="3.44"/><ellipse class="cls-1" cx="333.9" cy="290.88" rx="6.05" ry="3.44"/><rect class="cls-2" width="841.89" height="595.28"/><path class="cls-3" d="M358.82,235.48c-1.88-.84-5.09,0-7.11.66a9.43,9.43,0,0,0-2,1c-3.44,2.36-5.78,8.18-12.6,27.67-2.48,7.07-4.67,11.26-2.57,14.07,1.37,1.83,4,2.37,8.38,3.29a34.33,34.33,0,0,0,8.63.58l.79-.06a1.4,1.4,0,0,0,.46,0,.6.6,0,0,0,.32-.2c.18-.17,5.4-4.49,5.48-4.94a1.09,1.09,0,0,0,0-.19,1,1,0,0,0,0-.26c-.26-1.1-2.28-2.81-2.28-2.81-1.86-1.58,0-6.81.27-7.79,3.32-10.25,5-15.43,5.27-18.46C362,246.7,362.8,237.27,358.82,235.48Z"/><path class="cls-4" d="M354.43,233.94c-3.06-.75-7.18,4.86-8.27,6.44-7.83,11.32-12.15,33.92-11.39,34.07s6.4-21.07,13.27-29.37a18.52,18.52,0,0,1,6.64-5.64c3-1.42,5.92-1.51,5.93-2.33,0-.2-.15-.47-4.59-2.47C355,234.19,354.52,234,354.43,233.94Z"/><path class="cls-3" d="M439.23,232.83l1.11.44c1.07.44,8.6,6.14,11,22.54,1.17,7.87,2.6,17.47-3.35,22.74a14.33,14.33,0,0,1-8.38,3.29,34.83,34.83,0,0,1-8.62.58l-.79-.06a2.09,2.09,0,0,1-.41,0h-.06s-2.06-.6-2.76-.89c-1.71-.73-3-3-3.72-4.16a21.47,21.47,0,0,1-1.46-3.15c-.91-2.26-2.37-5.9-1.83-6.21.89-.52,6.06,6.18,6.28,6s-5.8-5.37-7-13.1c-.81-5,.6-10,.34-10s-.69,3.23-.95,3.2-.33-5.5,1.13-11.34c.63-2.53,1-3.8,1.94-5.11,2.63-3.65,7.44-4.52,7.62-4.17s-1.87,1.55-1.8,1.66,6.1-4.32,8.9-3.32Z"/><path class="cls-4" d="M436.42,231.74c4,.39,6.5,4,9.74,8.68,4.06,5.86,6.18,11.66,5.79,11.86s-2.17-4.72-7.34-9.64a27.16,27.16,0,0,0-6.69-4.8,16.32,16.32,0,0,0-6.81-2.23c-.94-.06-6.19-.27-9.16,2.84-.59.61-1.32,1.6-1.44,1.52a5.84,5.84,0,0,1,1-2.07c.94-1.43,2.6-2.85,7.81-4.5C433.19,232.18,435.11,231.61,436.42,231.74Z"/><path class="cls-5" d="M336.35,282.87a6.12,6.12,0,0,1-4.15-2.32,5.26,5.26,0,0,1-.9-1.82,6.55,6.55,0,0,1-.11-2.94c.48-2.77,3.07-8.72,5.15-13.49a60.47,60.47,0,0,0,3.16-8l0-.18a11,11,0,0,1,.47-1.72,14.24,14.24,0,0,1,.82-1.83c.23-.47.37-.7.57-1.06s.27-.48.48-.86c-1.48,4.91-4,13.49-4.21,23-.05,2.21,0,4.15.09,5.71.13,2.95.21,4.89-.74,5.33a1.62,1.62,0,0,1-.66.12Z"/><path class="cls-5" d="M339.07,257.17a74.6,74.6,0,0,0-1.91,14.52c-.05,2.24,0,4.19.09,5.75.11,2.45.19,4.56-.45,4.85a1.13,1.13,0,0,1-.45.08,5.64,5.64,0,0,1-3.76-2.12,4.93,4.93,0,0,1-.81-1.66,6.1,6.1,0,0,1-.1-2.71c.48-2.72,3.05-8.63,5.12-13.39q1.44-3.28,2.27-5.32m4.74-13.5a8,8,0,0,0-.5,1.09c-.17.37-.39.84-.68,1.43-.4.81-.79,1.52-1.08,2.05-.66,1.2-.77,1.34-1.18,2.14a16.45,16.45,0,0,0-.85,1.89,11.51,11.51,0,0,0-.48,1.8,1.12,1.12,0,0,0,0,.19c-.46,2.61-7.45,16.54-8.31,21.45a6.84,6.84,0,0,0,.12,3.16,5.94,5.94,0,0,0,1,2,6.6,6.6,0,0,0,4.55,2.51,2,2,0,0,0,.87-.17c1.86-.85.78-4.75.94-11.48.24-9.87,3-18.87,4.38-23.5.08-.26,1.37-4.52,1.27-4.55Z"/><path class="cls-6" d="M339,254.26c-2,3.89-4,8.18-5.9,12.85-1.69,4.14-3.12,8.1-4.32,11.85l7.06,4.37Q337.42,268.79,339,254.26Z"/><path class="cls-7" d="M361.74,248.05a19.19,19.19,0,0,0-11,0A37.49,37.49,0,0,0,346.63,266a36,36,0,0,0,1.13,7.9,12.14,12.14,0,0,0,4.05,2.17,12.33,12.33,0,0,0,5.69.37Q359.62,262.25,361.74,248.05Z"/><path class="cls-5" d="M361.57,248.15c-.12,0-.12.07-.24,0l-.35,0-.69,0c-.46,0-.92,0-1.37,0a20.32,20.32,0,0,0-5.28.64,17.37,17.37,0,0,0-2.47.8l.93-.79a47.9,47.9,0,0,0-2,6,50.69,50.69,0,0,0-1.15,6.17,43.57,43.57,0,0,0-.37,6.26,32.56,32.56,0,0,0,.76,6.28l-.55-.86a10.76,10.76,0,0,0,8.51,2.53l-1.07,1.08c.83-4.57,1.68-9.15,2.61-13.83Zm.34-.21-1.5,14.13c-.48,4.78-1.05,9.66-1.63,14.55l-.1.89-1,.19a13.67,13.67,0,0,1-5.73-.09,13.83,13.83,0,0,1-5.25-2.46l-.39-.3-.16-.56a35.89,35.89,0,0,1-1.39-13.84,31,31,0,0,1,1.59-6.81,34.75,34.75,0,0,1,3-6.29l.4-.66.53-.12a19.06,19.06,0,0,1,3-.41,17.32,17.32,0,0,1,3,.08,16.47,16.47,0,0,1,2.88.56c.46.14.92.3,1.37.47.23.08.45.18.67.28l.32.15A1.91,1.91,0,0,1,361.91,247.94Z"/><path class="cls-5" d="M335.52,279.43l1.55,6.43,15.77-3.22Z"/><path class="cls-5" d="M330.63,279.81a56.27,56.27,0,0,1,.08-7.79c.63-2.48,1.32-5,2.11-7.4a99.07,99.07,0,0,1,5.87-14.23c1.15-2.26,2.33-4.53,3.62-6.76a43.13,43.13,0,0,1,4.45-6.48,18.82,18.82,0,0,1,3-2.84,8.42,8.42,0,0,1,.91-.6,5.34,5.34,0,0,1,1-.52,7.34,7.34,0,0,1,2.2-.69,8.06,8.06,0,0,1,2.33.38,6.75,6.75,0,0,1,1.94,1.08,9.71,9.71,0,0,1,2.5,3.15,10.67,10.67,0,0,0-3.27-1.73,4.48,4.48,0,0,0-3,.09,6.75,6.75,0,0,0-2.77,1.26,16.84,16.84,0,0,0-2.49,2.38c-3.08,3.66-5.36,8.18-7.66,12.64a95.37,95.37,0,0,0-5.69,13.8c-.77,2.37-1.47,4.76-2,7.19Z"/><path class="cls-5" d="M343.81,245.72A90.22,90.22,0,0,0,339.2,267c-.48,6.33-.83,11.14,1,13.65A2.94,2.94,0,0,1,341,283c-.33,1.14-1.92,1.68-3.17,1.95q-.85-10.08-1.7-20.18Z"/><polygon class="cls-8" points="350.89 249.87 347.48 258.65 354.31 258.65 358.21 249.87 350.89 249.87"/><path class="cls-5" d="M349.6,303a4.74,4.74,0,0,1,.65-2.79l.27-.39,2.68,3.57Z"/><path class="cls-5" d="M437.69,293l4.51-3.48-7.54-.81Z"/><path class="cls-9" d="M402.89,303c.27.39,4.53,6.42,11.2,6.12,7.1-.32,12.64-7.62,11.58-9.69-.57-1.11-2.71-.08-11,.09-7.59.16-12-.57-12.61,1.13C402,300.83,401.81,301.42,402.89,303Z"/><path class="cls-10" d="M425.24,298.77c-1.2-1.25-20.63.77-20.41,2.07s16.43-1.82,17.27,1.3c.46,1.72-3.85,4.76-4.07,4.91a31.16,31.16,0,0,1-3.94,2.06c.07.19,2.76-.18,5.45-1.62a15.4,15.4,0,0,0,4.22-3.41,9.82,9.82,0,0,0,1.88-3.06,2.26,2.26,0,0,0,.11-1.39A2.23,2.23,0,0,0,425.24,298.77Z"/><path class="cls-11" d="M350.65,300.31a5.43,5.43,0,0,0-.45,1.4c-.08.45,0,.87.19,1s1.27.22,2.2.06c1.91-.31,3.94-.77,6-1.21q6.09-1.16,12.22-2c4.08-.66,8.19-1,12.29-1.53s8.33-.6,12.45-.76,8.17-.15,12.24-.23,8.12-.18,12.11-.34c2-.1,3.94-.31,5.9-.54a39.22,39.22,0,0,0,5.73-1.09A28.66,28.66,0,0,0,442,289.59l0,0a.2.2,0,0,1,.28,0,.21.21,0,0,1,0,.26,26.17,26.17,0,0,1-10,7.13,50.51,50.51,0,0,1-12,2.79c-8.18,1-16.41,1.18-24.62,1.45-8.2.11-16.38.8-24.57,1.44-4.09.32-8.18.61-12.27,1-2.05.19-4.08.45-6.16.48A8.48,8.48,0,0,1,351,304a2,2,0,0,1-1.43-.85,1.93,1.93,0,0,1,0-1.66,6.7,6.7,0,0,1,.75-1.4.21.21,0,0,1,.28-.06.2.2,0,0,1,.07.25Z"/><path class="cls-6" d="M449.65,246.32a74.2,74.2,0,0,1,1.82,30.48c-.27,1.77-.61,3.48-1,5.12l10.79-4.74a94.11,94.11,0,0,0-11.62-30.86Z"/><polygon class="cls-8" points="423.67 246.97 420.59 255.87 427.41 255.61 430.98 246.69 423.67 246.97"/><path class="cls-5" d="M453.61,281.14l-5.38,3.77L432.34,284l-5.33-2.6,26.6-1.68Z"/><path class="cls-5" d="M456.62,276.25c-.69-2.85-1.32-5.64-2.09-8.38a68.4,68.4,0,0,0-1.49-8.28,63.94,63.94,0,0,0-6-15.64,36.26,36.26,0,0,0-4.61-6.82,14.82,14.82,0,0,0-2.9-2.57,7.85,7.85,0,0,0-1.59-.79,4.83,4.83,0,0,0-.89-.21c-.3-.06-.6-.14-.91-.18a13,13,0,0,0-3.78.18,19.08,19.08,0,0,0-3.72,1.29,30.89,30.89,0,0,0-7.64,3.57,24.48,24.48,0,0,1,6.35-6.28,20.51,20.51,0,0,1,4.39-1.51,15.53,15.53,0,0,1,4.77-.23c.4,0,.79.15,1.19.23a7,7,0,0,1,1.2.3,10.71,10.71,0,0,1,2.25,1.11,17.54,17.54,0,0,1,3.52,3.09,39,39,0,0,1,5,7.38A67.56,67.56,0,0,1,456,258.88a79.53,79.53,0,0,1,1.57,8.62A54.31,54.31,0,0,1,456.62,276.25Z"/><path class="cls-5" d="M451.32,258.75c-.91.05,1.7,11.26-5,17.88-3.5,3.48-7.8,3.95-7.6,4.74.26,1,7.8,1.8,12.12-2.12C457.73,273,452.37,258.69,451.32,258.75Z"/><path class="cls-7" d="M419.21,245.23a26.51,26.51,0,0,1,8.67-1.29,25.92,25.92,0,0,1,6,.8,32.4,32.4,0,0,1,4.95,17.95,29.94,29.94,0,0,1-1.37,7.91,20.15,20.15,0,0,1-4.89,2.17,20.81,20.81,0,0,1-10,.35,54.44,54.44,0,0,1-3.34-27.89Z"/><path class="cls-5" d="M419.05,245.1a5.12,5.12,0,0,1,.52-.27l.43-.21.88-.37c.59-.23,1.19-.45,1.8-.63a24.31,24.31,0,0,1,7.68-1,24.52,24.52,0,0,1,3.91.45l.57.1.46.66a33.92,33.92,0,0,1,3.39,6.21,28.36,28.36,0,0,1,1.86,6.91A30.93,30.93,0,0,1,439,271.09l-.21.62-.49.28a22,22,0,0,1-7.83,2.7,22.59,22.59,0,0,1-8.16-.4l-.66-.16-.21-.57a53,53,0,0,1-3.13-14.08,55.52,55.52,0,0,1-.13-7.18c.05-1.2.15-2.39.29-3.57q.11-.89.24-1.77l.14-.88C418.9,245.78,419,245.4,419.05,245.1Zm.31.25a7.09,7.09,0,0,1,0,.79l-.06.88c0,.59-.07,1.17-.09,1.76,0,1.18,0,2.36,0,3.53a54.36,54.36,0,0,0,.63,7,56.4,56.4,0,0,0,3.88,13.37l-.87-.72a19.9,19.9,0,0,0,7.22-.05,18.53,18.53,0,0,0,6.58-2.69l-.71.9a26.7,26.7,0,0,0,1-6.26,32.73,32.73,0,0,0-.41-6.26,37.13,37.13,0,0,0-1.52-6.11,39.65,39.65,0,0,0-2.52-5.86l1,.76a28.2,28.2,0,0,0-3.4-.86,27.38,27.38,0,0,0-3.51-.45,31,31,0,0,0-3.61,0c-.6,0-1.21.08-1.82.14l-.92.11-.46.06A2.28,2.28,0,0,1,419.36,245.35Z"/><polygon class="cls-8" points="423.67 246.97 420.59 255.87 427.41 255.61 430.98 246.69 423.67 246.97"/></g></svg>