<svg id="Layer_2" data-name="Layer 2" xmlns="http://www.w3.org/2000/svg" viewBox="0 0 841.89 595.28"><defs><style>.cls-1{fill:#ddccc7;}.cls-2{fill:#c1afb6;}.cls-3{fill:#f8eae2;}.cls-4{fill:#eedfd2;}.cls-5{fill:#fab70f;}.cls-6,.cls-9{fill:#f08618;}.cls-7{fill:#7f4e12;}.cls-8{fill:#fdd075;}.cls-9{stroke:#7f4e12;stroke-miterlimit:10;stroke-width:3px;}.cls-10{fill:#3e3735;}</style></defs><title>costume_2.2-01</title><g id="costume_2.2"><path class="cls-1" d="M512.65,322c.4-6.79.52-12.51.56-16.68-27.33,5-50.41,8.07-67.52,10-34.05,3.85-51.53,5.77-73.67,3.55A225.11,225.11,0,0,1,313.93,305V327.4a81.3,81.3,0,0,0,10.33,40.14l182.46.3c1.43-7.09,2.49-13.59,3.3-19.35C511.29,339.41,512.06,332.15,512.65,322Z"/><path class="cls-2" d="M313.93,305c-.26,7.07-.29,14.57,0,22.43.22,6.22.64,12.19,1.2,17.94l-17.33,1.74,18.65,9.81q.39,2.6.75,5.25c.24,1.69.45,3.36.66,5l48.2.38V318.13A226.45,226.45,0,0,1,313.93,305Z"/><path class="cls-3" d="M387.21,344.59l34.56-26.71c-11,1.27-19.77,1.68-25.87,1.81-8.64.18-14.67-.16-16.58-.28-3-.18-5.48-.4-7.3-.59Q379.63,331.71,387.21,344.59Z"/><path class="cls-4" d="M347.5,337.65l14.75-19.52a223.12,223.12,0,0,1-21.89-4.89Z"/><ellipse class="cls-5" cx="365.63" cy="333.65" rx="3.91" ry="3.57"/><ellipse class="cls-5" cx="365.63" cy="355.53" rx="3.91" ry="3.57"/><path class="cls-6" d="M455.16,360.84a7.34,7.34,0,0,1-7.37-5.55l-.76-3.4a4.13,4.13,0,0,0-2.61-2.87l-3.5-1.35a7,7,0,0,1-4.6-6.09,6.82,6.82,0,0,1,3.84-6.44l3.29-1.71a4,4,0,0,0,2.22-3.1l.32-3.45a7.3,7.3,0,0,1,7.5-6.37,7.66,7.66,0,0,1,5,1.79l2.8,2.34a4.82,4.82,0,0,0,3.09,1.08,4.54,4.54,0,0,0,1-.11l3.69-.78a8.28,8.28,0,0,1,1.71-.18,7.61,7.61,0,0,1,6.46,3.52,6.45,6.45,0,0,1,.3,6.4L476,337.72a3.58,3.58,0,0,0,.23,3.59l2,3a6.53,6.53,0,0,1,.32,6.76,7.52,7.52,0,0,1-6.68,3.87,8.59,8.59,0,0,1-.86-.05l-3.77-.38a4.36,4.36,0,0,0-.51,0,4.74,4.74,0,0,0-3.44,1.42l-2.49,2.61A7.61,7.61,0,0,1,455.16,360.84Z"/><path class="cls-7" d="M453.49,322a6.22,6.22,0,0,1,4,1.44l2.8,2.34a6.36,6.36,0,0,0,4.05,1.43,6.19,6.19,0,0,0,1.35-.14l3.69-.78a6.88,6.88,0,0,1,1.4-.15c4.18,0,7.27,4,5.42,7.75l-1.57,3.15a5.05,5.05,0,0,0,.32,5.09l2,3c2.44,3.7-.55,8.3-5.1,8.3a5.58,5.58,0,0,1-.7,0l-3.77-.39-.67,0a6.24,6.24,0,0,0-4.53,1.89l-2.49,2.61a6.11,6.11,0,0,1-4.49,1.89,5.88,5.88,0,0,1-5.91-4.38l-.76-3.39a5.61,5.61,0,0,0-3.53-3.95l-3.49-1.35a5.28,5.28,0,0,1-.62-9.8l3.29-1.71a5.46,5.46,0,0,0,3-4.29l.33-3.45a5.81,5.81,0,0,1,6-5m0-3a8.78,8.78,0,0,0-9,7.73l-.33,3.45a2.48,2.48,0,0,1-1.41,1.91l-3.29,1.7a8.32,8.32,0,0,0-4.65,7.87,8.45,8.45,0,0,0,5.56,7.4l3.5,1.35a2.65,2.65,0,0,1,1.69,1.8l.76,3.4a8.83,8.83,0,0,0,8.83,6.72,9.1,9.1,0,0,0,6.67-2.82l2.48-2.62a3.28,3.28,0,0,1,2.36-.95l.36,0,3.77.39c.34,0,.68.05,1,.05a9,9,0,0,0,8-4.65,8,8,0,0,0-.39-8.3l-2-3a2.06,2.06,0,0,1-.14-2.1l1.57-3.16a7.92,7.92,0,0,0-.36-7.85,9.12,9.12,0,0,0-7.74-4.23,9.9,9.9,0,0,0-2,.21l-3.69.79a3.61,3.61,0,0,1-.73.07,3.38,3.38,0,0,1-2.12-.73l-2.8-2.34a9.29,9.29,0,0,0-5.94-2.14Z"/><ellipse class="cls-8" cx="457.8" cy="340.68" rx="7.9" ry="7.22"/><line class="cls-9" x1="434.74" y1="318.94" x2="430.89" y2="328.15"/><line class="cls-9" x1="427.87" y1="321.57" x2="437.76" y2="325.52"/><line class="cls-9" x1="494.52" y1="346.55" x2="484.53" y2="355.92"/><line class="cls-9" x1="484.64" y1="346.46" x2="494.42" y2="356.01"/><path class="cls-10" d="M317.86,367.16l0,.84L309,377.91l9.27-3.47c0,.8.11,1.61.18,2.42.29,3.34.66,6.52,1.09,9.52,0,0,17,3.34,27.32,4.84,5.63.82,8.76,1,36.61,2,23.4.78,42.71,1.35,59.47,1.59,18.19.27,21.86,0,30.63,0,2,0,3.83,0,5.79-.13,0,0,2.36-.12,5-.36,6.72-.64,16.61-2.55,17.57-2.74q1.26-4.94,2.41-10.28,1.47-7,2.46-13.42Z"/></g></svg>