<svg id="Layer_2" data-name="Layer 2" xmlns="http://www.w3.org/2000/svg" viewBox="0 0 841.89 595.28"><defs><style>.cls-1{fill:#fff1e4;}.cls-2{fill:#e0d9d2;}.cls-3,.cls-4{fill:none;stroke-miterlimit:10;stroke-width:4px;}.cls-3{stroke:#fff1e4;}.cls-4{stroke:#d1c6bb;}.cls-5{fill:#d1c6bb;}.cls-6{fill:#ea3800;}.cls-7{fill:#ff9962;}.cls-8{fill:#a3b000;}</style></defs><title>costume_3.5-01</title><g id="costume_3.5"><path class="cls-1" d="M336.28,383.15l8.07-59.3a122.46,122.46,0,0,0,24.29,5.65,126.28,126.28,0,0,0,49.9-3.78l7.89,59.7c-12.9,4.19-36.91,10-65.43,4.86A125.89,125.89,0,0,1,336.28,383.15Z"/><path class="cls-1" d="M344.29,324.24a18.84,18.84,0,0,1-8.16.3,26,26,0,0,1-7.54-2.5,26.41,26.41,0,0,1-6.47-4.61,19,19,0,0,1-4.58-6.74l.25-.31c2,1.55,4,3,6.1,4.39a64.26,64.26,0,0,0,6.51,3.71,65.35,65.35,0,0,0,6.84,3c2.35.87,4.73,1.65,7.14,2.32Z"/><path class="cls-2" d="M418.51,325.52a344.64,344.64,0,0,0,47.15-9,344.37,344.37,0,0,0,45.55-15.13l.16.37a133.94,133.94,0,0,1-21.67,11c-3.73,1.59-7.56,2.88-11.39,4.21s-7.74,2.37-11.64,3.45-7.88,1.89-11.85,2.68-8,1.46-12,1.89a133.81,133.81,0,0,1-24.27,1Z"/><path class="cls-3" d="M335.89,392.44a5.67,5.67,0,0,0,4,6.95l2.67.72a5.67,5.67,0,0,0,6.95-4L351.7,388l-13.62-3.67Z"/><path class="cls-3" d="M359.69,399.07a5.67,5.67,0,0,0,5.08,6.21l2.75.27a5.67,5.67,0,0,0,6.21-5.08l.83-8.39-14-1.4Z"/><path class="cls-4" d="M413,398.24a5.67,5.67,0,0,0,6.89,4.11l2.68-.67a5.67,5.67,0,0,0,4.11-6.88l-2.06-8.19L411,390.06Z"/><path class="cls-4" d="M385.34,400.67a5.67,5.67,0,0,0,5.84,5.49l2.76-.09a5.66,5.66,0,0,0,5.49-5.84l-.25-8.43-14.1.43Z"/><path class="cls-5" d="M426.43,385.42l-7.89-59.7a127.24,127.24,0,0,1-37.93,4.71h0c6.21.93,17.28,3.63,26.08,12.58,3.13,3.19,7.26,7.38,7.52,13.36.12,2.54-.38,7.31-9,16.57a89,89,0,0,1-26.45,19.26,138.2,138.2,0,0,0,47.71-6.78Z"/><ellipse class="cls-6" cx="374.15" cy="361.34" rx="13.71" ry="11.48" transform="translate(-56.77 652.66) rotate(-78.06)"/><ellipse class="cls-7" cx="379.14" cy="363.48" rx="15.38" ry="12.88" transform="translate(-123.24 516.74) rotate(-60.76)"/><path class="cls-8" d="M378.46,334.51c-1.32.43-1.49,4.16-.63,7,.94,3.07,3.49,6.14,4.84,5.69s1.49-4.17.63-7C382.35,337.12,379.81,334.05,378.46,334.51Z"/></g></svg>