<svg id="Layer_2" data-name="Layer 2" xmlns="http://www.w3.org/2000/svg" xmlns:xlink="http://www.w3.org/1999/xlink" viewBox="0 0 841.89 595.28"><defs><style>.cls-1{fill:#7dc9d5;}.cls-2{fill:#f0ec91;}.cls-3{fill:none;stroke:#f0ec91;}.cls-10,.cls-11,.cls-12,.cls-3{stroke-miterlimit:10;stroke-width:3px;}.cls-4{fill:#e3f2f4;}.cls-5{fill:#cce8ef;}.cls-6{fill:#7cacb6;}.cls-7{fill:url(#linear-gradient);}.cls-8{fill:url(#linear-gradient-2);}.cls-9{fill:url(#linear-gradient-3);}.cls-10{fill:url(#linear-gradient-4);stroke:url(#linear-gradient-5);}.cls-11{fill:url(#linear-gradient-8);stroke:url(#linear-gradient-9);}.cls-12{fill:url(#linear-gradient-12);stroke:url(#linear-gradient-13);}.cls-13{fill:url(#linear-gradient-16);}</style><linearGradient id="linear-gradient" x1="341.65" y1="345.16" x2="373.25" y2="345.16" gradientUnits="userSpaceOnUse"><stop offset="0.01" stop-color="#e3f2f4"/><stop offset="0.9" stop-color="#a4d8e6"/></linearGradient><linearGradient id="linear-gradient-2" x1="395.22" y1="387.26" x2="424.17" y2="387.26" gradientUnits="userSpaceOnUse"><stop offset="0.01" stop-color="#cce8ef"/><stop offset="0.9" stop-color="#a4d8e6"/></linearGradient><linearGradient id="linear-gradient-3" x1="556.77" y1="161.69" x2="581.75" y2="161.69" gradientTransform="matrix(0.55, 0.99, -0.93, 0.51, 278.71, -291.68)" gradientUnits="userSpaceOnUse"><stop offset="0" stop-color="#a4d8e6"/><stop offset="1" stop-color="#e3f2f4"/></linearGradient><linearGradient id="linear-gradient-4" x1="318.21" y1="341.73" x2="326.19" y2="341.73" xlink:href="#linear-gradient"/><linearGradient id="linear-gradient-5" x1="317.15" y1="341.73" x2="327.24" y2="341.73" gradientUnits="userSpaceOnUse"><stop offset="0.01" stop-color="#82ceec"/><stop offset="0.96" stop-color="#8aceea"/></linearGradient><linearGradient id="linear-gradient-8" x1="464.62" y1="318.67" x2="472.61" y2="318.67" xlink:href="#linear-gradient"/><linearGradient id="linear-gradient-9" x1="463.57" y1="318.67" x2="473.66" y2="318.67" xlink:href="#linear-gradient-5"/><linearGradient id="linear-gradient-12" x1="473.23" y1="342.7" x2="483.92" y2="342.7" xlink:href="#linear-gradient"/><linearGradient id="linear-gradient-13" x1="472.08" y1="342.7" x2="485.07" y2="342.7" xlink:href="#linear-gradient-5"/><linearGradient id="linear-gradient-16" x1="522.9" y1="295.13" x2="551.87" y2="295.13" gradientTransform="matrix(1.09, -0.8, 1.01, 1.38, -370.1, 351.27)" xlink:href="#linear-gradient"/></defs><title>costume_4.1-01</title><g id="costume_4"><path class="cls-1" d="M318.21,309.11q-.3,32.73-.59,65.47a22.46,22.46,0,0,0,3.79,6.27c4.83,5.63,11.8,7.8,29.51,9.79,20.83,2.35,29,2,29,2,38.76.71,41,2.89,73.76,2.57,11.07-.11,20.08-.45,25.74-.71A118.11,118.11,0,0,0,496,392.82a9,9,0,0,0,4.1-1.78c1.62-1.31,2.33-3,3.15-5.28a56.25,56.25,0,0,0,2.54-8.75c.79-5.1,2.24-15.27,3.78-28.67V309.11c-32.51,9.83-86.36,21.13-149,10.45A298.57,298.57,0,0,1,318.21,309.11Z"/><polygon class="cls-1" points="318.72 345.16 297.8 347.11 321.3 358.91 318.72 345.16"/><polygon class="cls-1" points="318.21 367.68 308.95 377.94 319.48 373.86 318.21 367.68"/><path class="cls-2" d="M367.24,321.46l17.53,20,24.57-17.66A307.63,307.63,0,0,1,367.24,321.46Z"/><line class="cls-3" x1="380.14" y1="342.71" x2="388.13" y2="351.12"/><line class="cls-3" x1="388.13" y1="342.71" x2="380.14" y2="351.12"/><path class="cls-4" d="M522.11,310.79a1.56,1.56,0,0,1-.93-1.54,15.31,15.31,0,0,0,.14-2c0-10.77-11.33-19.5-25.31-19.5-12.89,0-23.51,7.42-25.1,17a1.78,1.78,0,0,1-1.45,1.34c-10.78,2.35-18.69,10-18.69,19.16a15.45,15.45,0,0,0,.23,2.65,1.69,1.69,0,0,1-1.5,1.82c-6.81,1.44-12.09,5.37-13.7,10.29a2,2,0,0,1-2,1.21H433a21.07,21.07,0,0,0-7,1.36,2.48,2.48,0,0,1-1.76,0,28.24,28.24,0,0,0-10-1.79c-11.64,0-21.08,6.63-21.08,14.81a10.8,10.8,0,0,0,.42,3,1.63,1.63,0,0,1-1.38,1.91l-1.15.34a2.16,2.16,0,0,1-2.65-1.09c-1.31-3.41-5.17-6.08-10.06-6.94a1.66,1.66,0,0,1-1.53-1.9,8.87,8.87,0,0,0,.28-2.24c0-3.56-2.05-6.78-5.37-9.11a1.44,1.44,0,0,1-.14-2.34,4.83,4.83,0,0,0,1.73-3.5c0-3.92-5.94-7.1-13.28-7.1h-.33a13.23,13.23,0,0,0-.78-1.36,2.13,2.13,0,0,0-1.82-.91H353c-3.47-3.87-9.53-6.45-16.44-6.45-6.73,0-12.65,2.43-16.16,6.12a1.55,1.55,0,0,1-.83-1.33V280.14c0-1.23-1.61-2-3-1.48-5.79,2.36-10.24,6.17-12.36,10.71a1.78,1.78,0,0,1-.77.79c-5.32,2.94-8.74,7.5-8.74,12.62a11.86,11.86,0,0,0,1.21,5.17,1.4,1.4,0,0,1,0,1.23,13.39,13.39,0,0,0-1.23,5.58c0,7.75,6.87,14.37,16.57,17,0,.15,0,.29,0,.44s0,.52,0,.78a10,10,0,0,0-4.23,7.77c0,6.46,7.45,11.7,16.64,11.7a22.69,22.69,0,0,0,3.92-.34,2.26,2.26,0,0,1,2.14.74c2.1,2.58,6.05,4.31,10.58,4.31a16.83,16.83,0,0,0,3-.26,2.39,2.39,0,0,1,1.84.39,22.4,22.4,0,0,0,13.55,4.21c.8,0,1.59,0,2.36-.12a6.11,6.11,0,0,0-.06.86c0,5.4,6.23,9.79,13.93,9.79a19.47,19.47,0,0,0,4-.41,2.14,2.14,0,0,1,2.47,1.12c2,5,9.91,8.65,19.42,8.65,11,0,19.9-4.93,19.9-11a5.36,5.36,0,0,0-.05-.7,2.3,2.3,0,0,1,2.35.77c3.53,4.9,10.76,8.26,19.12,8.26,11.83,0,21.42-6.74,21.42-15.05a11.14,11.14,0,0,0-1.45-5.45,1.55,1.55,0,0,1,1.13-2.19c.53-.16,1-.33,1.54-.52a2.38,2.38,0,0,1,2,.16,27.79,27.79,0,0,0,14.23,3.7c12.08,0,21.88-6.89,21.88-15.38a1.93,1.93,0,0,0,0-.24A35.67,35.67,0,0,0,507,344c14.38,0,26-8.19,26-18.3C533.08,319.54,528.75,314.1,522.11,310.79Z"/><path class="cls-5" d="M431,381c0-7.46-7.46-13.5-16.66-13.5a20.07,20.07,0,0,0-3.14.25c-2.74-4.74-8.66-8-15.55-8-9.48,0-17.17,6.23-17.17,13.92,0,7.16,6.67,13.05,15.25,13.83v.09a8.67,8.67,0,0,0,.63,3.25,11.85,11.85,0,0,0-2.89-.35c-5.51,0-10,3.62-10,8.09s4.47,8.08,10,8.08,10-3.62,10-8.08a6.91,6.91,0,0,0-.16-1.44,15.45,15.45,0,0,0,5.43,1,14.33,14.33,0,0,0,9.91-3.73C424.69,393.41,431,387.78,431,381Z"/><path class="cls-6" d="M319.48,289.19a8.91,8.91,0,0,0-2.62-.41c-5.83,0-12.2,8.55-12.2,17.52s6.37,17.26,12.2,17.52a6.84,6.84,0,0,0,2.62-.41Z"/><path class="cls-7" d="M351.43,345.48c2-1.49,6.13,2,9.88.63,2.75-1,4.62-4.28,5-6.75.26-1.5,0-2.69.78-3,1-.37,2.77,1,3.68,1.89a8.44,8.44,0,0,1,1.36,10.05c-2.95,5-11.26,6.46-17.06,5.34a18.09,18.09,0,0,1-9.11-4.87c-3.4-3.15-4.74-6.85-4.26-7.07.74-.35,6.61,7.64,8.53,6.91C351.16,348.28,350.14,346.43,351.43,345.48Z"/><path class="cls-8" d="M396.77,383c1.71-.51,3.16,4.26,8.67,5.49s12.71-1.6,14.09-5.27c.88-2.34-.83-4.41-.27-4.61.79-.29,5.36,3.45,4.88,7.46-.62,5.11-9.07,7.59-11.65,8.35-3.52,1-9.18,2.69-13.28.22C394,391.47,394.71,383.62,396.77,383Z"/><path class="cls-9" d="M437.81,340.34c1.51,1.11-3.14,4.71-1.53,9.75s8.77,9.34,13.72,8.56c3.14-.49,4.58-2.92,5.11-2.58.76.49-1,6.06-5.85,7.73-6.17,2.12-13.62-3.36-15.9-5-3.1-2.28-8.09-6-7.5-10.5C426.61,342.45,436,339,437.81,340.34Z"/><line class="cls-10" x1="318.21" y1="337.81" x2="326.19" y2="345.66"/><line class="cls-10" x1="326.19" y1="337.81" x2="318.21" y2="345.66"/><line class="cls-11" x1="464.62" y1="314.74" x2="472.61" y2="322.59"/><line class="cls-11" x1="472.61" y1="314.74" x2="464.62" y2="322.59"/><line class="cls-12" x1="473.23" y1="336.31" x2="483.92" y2="349.08"/><line class="cls-12" x1="483.92" y1="336.31" x2="473.23" y2="349.08"/><path class="cls-13" d="M490.32,330.32c1.22-1.92,8.73,4.1,16.25,2.1s11.83-11.12,8.76-17.48c-2-4.22-6.47-6-6-6.6.64-.88,11.37,1.34,17.42,8.77,4.24,5.21,7.71,14.88,1.41,22.27-5,5.85-13.81,7.61-20.71,6.38C495.4,343.62,488.93,332.51,490.32,330.32Z"/></g></svg>