<svg id="Layer_2" data-name="Layer 2" xmlns="http://www.w3.org/2000/svg" viewBox="0 0 841.89 595.28"><defs><style>.cls-1{fill:#ddccc7;}.cls-2{fill:#c1afb6;}.cls-3{fill:#f8eae2;}.cls-4{fill:#eedfd2;}.cls-5{fill:#fab70f;}.cls-6,.cls-9{fill:#e94e48;}.cls-7{fill:#802520;}.cls-8{fill:#fdd075;}.cls-9{stroke:#802520;stroke-miterlimit:10;stroke-width:3px;}.cls-10{fill:#3e3735;}</style></defs><title>costume_2.5-01</title><g id="costume_2.5"><path class="cls-1" d="M512.65,322c.4-6.79.52-12.51.56-16.68-27.33,5-50.41,8.07-67.52,10-34.05,3.85-51.53,5.76-73.67,3.55A225.94,225.94,0,0,1,313.93,305v22.43a81.32,81.32,0,0,0,10.33,40.14l182.46.3c1.43-7.1,2.49-13.6,3.3-19.36C511.29,339.43,512.06,332.18,512.65,322Z"/><path class="cls-2" d="M313.93,305c-.26,7.07-.29,14.56,0,22.43.22,6.21.64,12.18,1.2,17.93l-17.33,1.75,18.65,9.8q.39,2.59.75,5.25c.24,1.69.45,3.36.66,5l48.2.39V318.16A226.45,226.45,0,0,1,313.93,305Z"/><path class="cls-3" d="M387.21,344.61l34.56-26.71c-11,1.27-19.77,1.69-25.87,1.81-8.64.18-14.67-.16-16.58-.27-3-.19-5.48-.41-7.3-.59Q379.63,331.72,387.21,344.61Z"/><path class="cls-4" d="M347.5,337.67l14.75-19.52a223.12,223.12,0,0,1-21.89-4.89Z"/><ellipse class="cls-5" cx="365.63" cy="333.67" rx="3.91" ry="3.57"/><ellipse class="cls-5" cx="365.63" cy="355.55" rx="3.91" ry="3.57"/><path class="cls-6" d="M455.16,360.86a7.33,7.33,0,0,1-7.37-5.55l-.76-3.39a4.11,4.11,0,0,0-2.61-2.87l-3.5-1.35a7,7,0,0,1-4.6-6.09,6.82,6.82,0,0,1,3.84-6.45l3.29-1.71a4,4,0,0,0,2.22-3.1l.32-3.45a7.3,7.3,0,0,1,7.5-6.37,7.66,7.66,0,0,1,5,1.79l2.8,2.34a4.83,4.83,0,0,0,3.09,1.09,5.17,5.17,0,0,0,1-.11l3.69-.78a8.28,8.28,0,0,1,1.71-.18,7.6,7.6,0,0,1,6.46,3.51,6.45,6.45,0,0,1,.3,6.4L476,337.74a3.6,3.6,0,0,0,.23,3.6l2,3a6.53,6.53,0,0,1,.32,6.76,7.53,7.53,0,0,1-6.68,3.86,8.51,8.51,0,0,1-.86,0l-3.77-.39-.51,0a4.74,4.74,0,0,0-3.44,1.42l-2.49,2.62A7.6,7.6,0,0,1,455.16,360.86Z"/><path class="cls-7" d="M453.49,322a6.18,6.18,0,0,1,4,1.45l2.8,2.33a6.36,6.36,0,0,0,4.05,1.44,6.21,6.21,0,0,0,1.35-.15l3.69-.78a6.85,6.85,0,0,1,1.4-.14c4.18,0,7.27,4,5.42,7.74l-1.57,3.16a5,5,0,0,0,.32,5.08l2,3c2.44,3.7-.55,8.3-5.1,8.3a5.58,5.58,0,0,1-.7,0l-3.77-.38a5.12,5.12,0,0,0-.67,0,6.24,6.24,0,0,0-4.53,1.89l-2.49,2.61a6.11,6.11,0,0,1-4.49,1.89,5.88,5.88,0,0,1-5.91-4.38l-.76-3.39a5.57,5.57,0,0,0-3.53-3.94l-3.49-1.35a5.28,5.28,0,0,1-.62-9.81l3.29-1.71a5.46,5.46,0,0,0,3-4.29l.33-3.45a5.82,5.82,0,0,1,6-5m0-3a8.78,8.78,0,0,0-9,7.73l-.33,3.45a2.47,2.47,0,0,1-1.41,1.91l-3.29,1.71a8.32,8.32,0,0,0-4.65,7.86,8.43,8.43,0,0,0,5.56,7.4l3.5,1.35a2.66,2.66,0,0,1,1.69,1.81l.76,3.39a8.83,8.83,0,0,0,8.83,6.72,9.1,9.1,0,0,0,6.67-2.82l2.48-2.61a3.25,3.25,0,0,1,2.36-1l.36,0,3.77.39c.34,0,.68.05,1,.05a9,9,0,0,0,8-4.65,8,8,0,0,0-.39-8.3l-2-3a2.06,2.06,0,0,1-.14-2.1l1.57-3.15a7.94,7.94,0,0,0-.36-7.86,9.11,9.11,0,0,0-7.74-4.22,9.9,9.9,0,0,0-2,.21l-3.69.78a3.63,3.63,0,0,1-.73.08,3.33,3.33,0,0,1-2.12-.74l-2.8-2.34a9.29,9.29,0,0,0-5.94-2.14Z"/><ellipse class="cls-8" cx="457.8" cy="340.7" rx="7.9" ry="7.22"/><line class="cls-9" x1="434.74" y1="318.97" x2="430.89" y2="328.17"/><line class="cls-9" x1="427.87" y1="321.6" x2="437.76" y2="325.54"/><line class="cls-9" x1="494.52" y1="346.57" x2="484.53" y2="355.94"/><line class="cls-9" x1="484.64" y1="346.48" x2="494.42" y2="356.03"/><path class="cls-10" d="M317.86,367.18l0,.85-8.93,9.9,9.27-3.47q.07,1.2.18,2.43c.29,3.33.66,6.51,1.09,9.52,0,0,17,3.33,27.32,4.83,5.63.82,8.76,1,36.61,2,23.4.79,42.71,1.35,59.47,1.6,18.19.26,21.86,0,30.63,0,2,0,3.83,0,5.79-.13,0,0,2.36-.11,5-.36,6.72-.63,16.61-2.55,17.57-2.73q1.26-4.95,2.41-10.29c1-4.64,1.8-9.12,2.46-13.41Z"/></g></svg>