<svg id="Layer_2" data-name="Layer 2" xmlns="http://www.w3.org/2000/svg" viewBox="0 0 841.89 595.28"><defs><style>.cls-1{fill:#ffbbc4;}.cls-2{fill:#c28d94;}.cls-3,.cls-4{fill:none;stroke-miterlimit:10;stroke-width:4px;}.cls-3{stroke:#ffbbc4;}.cls-4{stroke:#c28d94;}.cls-5{fill:#4f1908;}.cls-6{fill:#ea3800;}.cls-7{fill:#fff9bb;}.cls-8{fill:#964000;}</style></defs><title>costume_3.3-01</title><g id="costume_3.3"><path class="cls-1" d="M336.1,383.2l8.08-59.3a122.24,122.24,0,0,0,24.29,5.66,126.4,126.4,0,0,0,49.89-3.79l7.89,59.7c-12.9,4.19-36.9,10-65.43,4.86A126.3,126.3,0,0,1,336.1,383.2Z"/><path class="cls-1" d="M344.11,324.29a18.79,18.79,0,0,1-8.15.3,26.12,26.12,0,0,1-7.54-2.49,26.57,26.57,0,0,1-6.47-4.61,19.12,19.12,0,0,1-4.59-6.75l.26-.31c2,1.55,4,3,6.09,4.39a66.52,66.52,0,0,0,6.51,3.71,65.51,65.51,0,0,0,6.85,3.05q3.51,1.32,7.14,2.32Z"/><path class="cls-2" d="M418.34,325.57a344.49,344.49,0,0,0,47.14-9A343.54,343.54,0,0,0,511,301.41l.15.37a133.84,133.84,0,0,1-21.66,11c-3.73,1.59-7.57,2.88-11.39,4.21s-7.75,2.37-11.65,3.45-7.87,1.89-11.84,2.68-8,1.46-12,1.89a133.81,133.81,0,0,1-24.27,1Z"/><path class="cls-3" d="M335.71,392.49a5.68,5.68,0,0,0,4,6.95l2.68.72a5.66,5.66,0,0,0,6.94-4l2.2-8.14-13.63-3.67Z"/><path class="cls-3" d="M359.52,399.12a5.66,5.66,0,0,0,5.07,6.21l2.76.27a5.67,5.67,0,0,0,6.2-5.08l.84-8.39-14-1.4Z"/><path class="cls-4" d="M412.84,398.29a5.67,5.67,0,0,0,6.88,4.12l2.68-.68a5.68,5.68,0,0,0,4.12-6.88l-2.07-8.18-13.68,3.44Z"/><path class="cls-4" d="M385.16,400.72a5.67,5.67,0,0,0,5.84,5.49l2.77-.08a5.67,5.67,0,0,0,5.49-5.84l-.26-8.44-14.1.43Z"/><path class="cls-2" d="M426.25,385.47l-7.89-59.7a127.17,127.17,0,0,1-37.92,4.71h0c6.22.92,17.28,3.62,26.08,12.57,3.14,3.19,7.26,7.38,7.53,13.36.11,2.54-.38,7.31-9,16.57a88.83,88.83,0,0,1-26.44,19.26,138.07,138.07,0,0,0,47.7-6.78Z"/><path class="cls-5" d="M376.42,348.39l3.4-8.93a1.88,1.88,0,0,1,2.21-.11,2,2,0,0,1,.77,1.53l-5.54,7.47h0Z"/><path class="cls-6" d="M393.29,347.78c-3.34-3.63-11.2-2.73-16.9.44-4.37-4.41-11.73-7.63-16-5-7.88,4.86-5.85,30,6.07,36.92a9.46,9.46,0,0,0,5.4,1.58,9.59,9.59,0,0,0,5.56-.07C390.8,378.27,399.55,354.58,393.29,347.78Z"/><path class="cls-7" d="M386,354.36c-2.08-2.26-7-1.7-10.53.27-2.72-2.75-7.31-4.75-10-3.11-4.91,3-3.64,18.72,3.79,23a5.88,5.88,0,0,0,3.36,1,6,6,0,0,0,3.47-.05C384.48,373.35,389.94,358.59,386,354.36Z"/><ellipse class="cls-8" cx="371.19" cy="357.55" rx="1.07" ry="2.34" transform="translate(-129.54 235.52) rotate(-30.23)"/><ellipse class="cls-8" cx="368.37" cy="362.97" rx="1.07" ry="2.34" transform="translate(-69.55 638.06) rotate(-76.71)"/><ellipse class="cls-8" cx="369.68" cy="368.45" rx="2.34" ry="1.07" transform="translate(-150.08 320.82) rotate(-39.67)"/><ellipse class="cls-8" cx="378.63" cy="358.88" rx="2.34" ry="1.07" transform="translate(-143.03 364) rotate(-44.03)"/><ellipse class="cls-8" cx="379.88" cy="364.87" rx="1.07" ry="2.34" transform="translate(-0.92 728.78) rotate(-87.55)"/><ellipse class="cls-8" cx="377.13" cy="369.78" rx="1.07" ry="2.34" transform="translate(-143.26 279.47) rotate(-34.59)"/></g></svg>