<svg id="Layer_2" data-name="Layer 2" xmlns="http://www.w3.org/2000/svg" viewBox="0 0 841.89 595.28"><defs><style>.cls-1{fill:#624746;}.cls-1,.cls-2,.cls-6{stroke:#624746;stroke-width:4px;}.cls-1,.cls-10,.cls-2,.cls-6{stroke-miterlimit:10;}.cls-2,.cls-5{fill:#94654f;}.cls-3{fill:#e4e3d0;}.cls-4{fill:#4b1e0e;}.cls-6{fill:#4a3327;}.cls-7{fill:#ba8921;}.cls-8{fill:#fab72e;}.cls-9{fill:#c9830f;}.cls-10{fill:none;stroke:#fcf3a5;stroke-width:3px;stroke-dasharray:12 10 12 10 10 10;}</style></defs><title>costume_1.2-01</title><g id="costume_1.2"><polyline class="cls-1" points="315.84 346.05 297.8 347.52 315.84 356.38 315.84 346.05"/><polygon class="cls-2" points="314.72 372.07 308.95 378.51 315.84 375.82 314.72 372.07"/><path class="cls-3" d="M513.78,345.11V330.29H315.84v14.82c0,11.62,5.27,22.28,14.05,30.59H499.73C508.5,367.39,513.78,356.73,513.78,345.11Z"/><path class="cls-4" d="M344.21,385.64a74,74,0,0,0,33.09,7.58h64.26L480.13,388a61.66,61.66,0,0,0,19.6-12.31H329.89A59.29,59.29,0,0,0,344.21,385.64Z"/><path class="cls-5" d="M401.07,327.61v68.21h64.22c26.5,0,48-15.22,48-34V327.61Z"/><path class="cls-5" d="M376.07,333.55v61.16H341c-14.49,0-26.23-13.64-26.23-30.47V333.55Z"/><polygon class="cls-6" points="406.62 360.69 417.72 374.87 431.15 360.69 406.62 360.69"/><polygon class="cls-6" points="455.68 360.69 444.58 374.87 431.15 360.69 455.68 360.69"/><polygon class="cls-6" points="455.68 360.69 466.78 374.87 480.21 360.69 455.68 360.69"/><polygon class="cls-6" points="504.74 360.69 493.64 374.87 480.21 360.69 504.74 360.69"/><line class="cls-6" x1="396.53" y1="350.35" x2="514.84" y2="350.35"/><path class="cls-6" d="M314.72,350.35h38.84"/><polygon class="cls-6" points="321.09 361.71 332.08 375.75 345.39 361.71 321.09 361.71"/><polygon class="cls-6" points="369.7 361.71 358.7 375.75 345.39 361.71 369.7 361.71"/><path class="cls-7" d="M527,328.36c.21-1.84,1.4-8.4,11.1-12.83,13-5.95,34.93-5.13,37.92-1.48,2.86,3.48-10.25,11.11-25,13.82A79.93,79.93,0,0,1,527,328.36Z"/><path class="cls-8" d="M524.15,327.13a38,38,0,0,1,17.56-3.78c12.25.31,22.91,6.47,21.11,9.15s-15.54,3.11-25.7.67A32.13,32.13,0,0,1,524.15,327.13Z"/><path class="cls-8" d="M304.27,318.54c.28-5.58,9.4-10.27,16.4-12.1,18.29-4.79,29.06,6.3,52.76,10.8,20.16,3.83,36.65.13,45.67-1.9,24.06-5.4,33.52-15.34,64.19-20.27,9.94-1.6,15.34-1.58,20.89.57,12.51,4.84,22.32,19.14,25.79,24.21l.19.28c1.3,1.93,8.39,12.85,3.51,16.5-1.41,1.06-4.19,2.48-3.7,4.28.66,2.43,6.7,2.88,6.78,3.95.27,3.2-52.92,2.87-104.83,13.49-29.71,6.09-30.19,9.86-46.86,9.88-12.64,0-33.6-7.47-75.85-21.72-4.12-1.39-11.87-4.08-11.1-6.91.69-2.56,12-1.77,14.18-4.94a1.54,1.54,0,0,0,.29-.73c.25-2.65-3.31-4.48-5.84-8.26C305.44,323.72,304.16,320.77,304.27,318.54Z"/><path class="cls-9" d="M319.28,338a166.64,166.64,0,0,0,44.7,8.58c20.64,1.07,42.5-1.61,68.53-4.8l9-1.1c14.74-1.8,25.93-3.17,35-4.13,24.26-2.59,36.39-3.89,38.08-2s-7,6.27-15,8.65c-18.91,5.58-40.18,1.52-46.11.27"/><path class="cls-10" d="M310.72,318.76A39.42,39.42,0,0,1,330.13,313c11.08-.16,14.48,5.13,29,9.38,11.25,3.29,19.76,3.37,35.85,3.05,10.44-.2,22.79-.44,37.53-4.76,20.69-6.06,25.7-12.23,48-15.92,9.1-1.51,15.33-1.56,21.74,1.14,9.38,3.94,14.46,11.8,16.66,15.85"/></g></svg>