<svg id="Layer_2" data-name="Layer 2" xmlns="http://www.w3.org/2000/svg" viewBox="0 0 841.89 595.28"><defs><style>.cls-1{fill:#ffbbc4;}.cls-2{fill:#c28d94;}.cls-3,.cls-4{fill:none;stroke-miterlimit:10;stroke-width:4px;}.cls-3{stroke:#ffbbc4;}.cls-4{stroke:#c28d94;}.cls-5{fill:#009c80;}.cls-6{fill:#ff3e7c;}.cls-7{fill:#8c4000;}</style></defs><title>costume_3.2-01</title><g id="costume_3.2"><path class="cls-1" d="M336.14,383.18l8.08-59.3a121.6,121.6,0,0,0,24.28,5.66,126.05,126.05,0,0,0,49.9-3.79l7.89,59.71c-12.9,4.19-36.91,10-65.43,4.85A125.89,125.89,0,0,1,336.14,383.18Z"/><path class="cls-1" d="M344.15,324.27a19,19,0,0,1-8.15.31,26.58,26.58,0,0,1-14-7.11,19,19,0,0,1-4.59-6.75l.26-.3c2,1.55,4,3,6.09,4.38a65.37,65.37,0,0,0,6.51,3.71,66.36,66.36,0,0,0,6.84,3.06q3.52,1.31,7.15,2.31Z"/><path class="cls-2" d="M418.38,325.55a343,343,0,0,0,47.14-9,342.09,342.09,0,0,0,45.56-15.13l.15.37a134.39,134.39,0,0,1-21.67,11c-3.73,1.58-7.56,2.87-11.39,4.21s-7.74,2.36-11.64,3.44-7.87,1.9-11.84,2.69-8,1.45-12,1.88a132.91,132.91,0,0,1-24.27,1Z"/><path class="cls-3" d="M335.75,392.47a5.67,5.67,0,0,0,4,6.95l2.67.72a5.67,5.67,0,0,0,6.95-4l2.19-8.15-13.62-3.66Z"/><path class="cls-3" d="M359.55,399.11a5.67,5.67,0,0,0,5.08,6.2l2.75.28a5.68,5.68,0,0,0,6.21-5.08l.84-8.4-14-1.4Z"/><path class="cls-4" d="M412.87,398.28a5.68,5.68,0,0,0,6.89,4.11l2.68-.68a5.65,5.65,0,0,0,4.11-6.88l-2.06-8.18-13.68,3.45Z"/><path class="cls-4" d="M385.2,400.7a5.66,5.66,0,0,0,5.84,5.49l2.76-.08a5.68,5.68,0,0,0,5.5-5.84l-.26-8.43-14.1.43Z"/><path class="cls-2" d="M426.29,385.46l-7.89-59.71a127.45,127.45,0,0,1-37.92,4.72h0c6.21.93,17.28,3.62,26.08,12.57,3.14,3.19,7.26,7.39,7.53,13.37.11,2.53-.39,7.3-9,16.56a88.73,88.73,0,0,1-26.45,19.26,138.48,138.48,0,0,0,47.71-6.77Z"/><path class="cls-5" d="M352.4,359.29l43.77-17.7c7.31,13.07-.6,29.08-13.08,33.57C371.21,379.44,355.92,373,352.4,359.29Z"/><path class="cls-6" d="M357.63,356.05l32.45-13.12c5.42,9.69-.44,21.56-9.7,24.9C371.57,371,360.23,366.25,357.63,356.05Z"/><ellipse class="cls-7" cx="365.73" cy="357.76" rx="2.86" ry="1.43" transform="translate(-112.21 175.2) rotate(-23.46)"/><ellipse class="cls-7" cx="374.91" cy="361.01" rx="1.43" ry="2.86" transform="translate(-144.85 388.12) rotate(-46.9)"/><ellipse class="cls-7" cx="380.97" cy="353.87" rx="2.86" ry="1.43" transform="translate(-138.75 338.12) rotate(-41.15)"/></g></svg>