<svg id="Layer_2" data-name="Layer 2" xmlns="http://www.w3.org/2000/svg" viewBox="0 0 841.89 595.28"><defs><style>.cls-1{fill:#624746;}.cls-1,.cls-2,.cls-6{stroke:#624746;stroke-width:4px;}.cls-1,.cls-10,.cls-2,.cls-6{stroke-miterlimit:10;}.cls-2,.cls-5{fill:#94654f;}.cls-3{fill:#e4e3d0;}.cls-4{fill:#4b1e0e;}.cls-6{fill:#4a3327;}.cls-7{fill:#c4a2b5;}.cls-8{fill:#ecb0d0;}.cls-9{fill:#ae739b;}.cls-10{fill:none;stroke:#fbe6f1;stroke-width:3px;stroke-dasharray:12 10 12 10 10 10;}</style></defs><title>costume_1.4-01</title><g id="costume_1.4"><polyline class="cls-1" points="315.79 346.01 297.75 347.49 315.79 356.35 315.79 346.01"/><polygon class="cls-2" points="314.67 372.04 308.9 378.48 315.79 375.79 314.67 372.04"/><path class="cls-3" d="M513.72,345.08V330.26H315.79v14.82c0,11.62,5.27,22.28,14,30.59H499.68C508.45,367.36,513.72,356.7,513.72,345.08Z"/><path class="cls-4" d="M344.16,385.61a74,74,0,0,0,33.09,7.58H441.5L480.07,388a61.6,61.6,0,0,0,19.61-12.31H329.83A59.55,59.55,0,0,0,344.16,385.61Z"/><path class="cls-5" d="M401,327.57v68.22h64.22c26.5,0,48-15.22,48-34V327.57Z"/><path class="cls-5" d="M376,333.52v61.16H340.9c-14.49,0-26.23-13.64-26.23-30.47V333.52Z"/><polygon class="cls-6" points="406.57 360.66 417.67 374.83 431.1 360.66 406.57 360.66"/><polygon class="cls-6" points="455.63 360.66 444.53 374.83 431.1 360.66 455.63 360.66"/><polygon class="cls-6" points="455.63 360.66 466.73 374.83 480.16 360.66 455.63 360.66"/><polygon class="cls-6" points="504.69 360.66 493.59 374.83 480.16 360.66 504.69 360.66"/><line class="cls-6" x1="396.47" y1="350.32" x2="514.78" y2="350.32"/><path class="cls-6" d="M314.67,350.32H353.5"/><polygon class="cls-6" points="321.04 361.68 332.03 375.72 345.34 361.68 321.04 361.68"/><polygon class="cls-6" points="369.65 361.68 358.65 375.72 345.34 361.68 369.65 361.68"/><path class="cls-7" d="M526.9,328.33c.21-1.84,1.4-8.4,11.1-12.83,13-6,34.93-5.13,37.92-1.48,2.86,3.48-10.25,11.11-25,13.82A80.26,80.26,0,0,1,526.9,328.33Z"/><path class="cls-8" d="M524.09,327.1a38,38,0,0,1,17.57-3.78c12.25.31,22.9,6.47,21.11,9.15s-15.54,3.11-25.7.67A32.4,32.4,0,0,1,524.09,327.1Z"/><path class="cls-8" d="M304.22,318.5c.28-5.57,9.4-10.26,16.39-12.09,18.3-4.79,29.07,6.29,52.77,10.8,20.16,3.83,36.65.13,45.67-1.9,24.06-5.4,33.52-15.34,64.19-20.27,9.94-1.6,15.34-1.59,20.89.56,12.51,4.85,22.31,19.15,25.79,24.22l.19.28c1.29,1.93,8.38,12.85,3.51,16.5-1.41,1.06-4.19,2.48-3.7,4.28.66,2.43,6.69,2.88,6.78,3.95.27,3.2-52.92,2.87-104.83,13.49-29.71,6.08-30.19,9.86-46.87,9.87-12.63,0-33.59-7.47-75.85-21.71-4.11-1.39-11.86-4.08-11.1-6.91.7-2.57,12-1.78,14.19-4.94a1.54,1.54,0,0,0,.29-.73c.25-2.65-3.31-4.48-5.84-8.27C305.39,323.69,304.11,320.74,304.22,318.5Z"/><path class="cls-9" d="M319.23,338a166.54,166.54,0,0,0,44.7,8.57c20.64,1.08,42.5-1.6,68.53-4.79l9-1.1c14.74-1.8,25.93-3.17,35-4.14,24.26-2.58,36.39-3.88,38.07-2s-7,6.28-15,8.66c-18.9,5.58-40.17,1.52-46.1.26"/><path class="cls-10" d="M310.67,318.72a39.63,39.63,0,0,1,19.41-5.78c11.08-.15,14.48,5.14,29,9.38,11.25,3.3,19.76,3.38,35.84,3.06,10.45-.2,22.8-.44,37.53-4.76,20.7-6.06,25.7-12.23,48-15.92,9.11-1.51,15.33-1.56,21.74,1.14,9.39,3.94,14.46,11.8,16.67,15.85"/></g></svg>