<svg id="Layer_2" data-name="Layer 2" xmlns="http://www.w3.org/2000/svg" viewBox="0 0 841.89 595.28"><defs><style>.cls-1{fill:#fff1e4;}.cls-2{fill:#e0d9d2;}.cls-3,.cls-4{fill:none;stroke-miterlimit:10;stroke-width:4px;}.cls-3{stroke:#fff1e4;}.cls-4{stroke:#d1c6bb;}.cls-5{fill:#d1c6bb;}.cls-6{fill:#6c7c00;}.cls-7{fill:#ff8288;}</style></defs><title>costume_3.1-01</title><g id="costume_3.1"><path class="cls-1" d="M336.09,383.2l8.08-59.3a122.29,122.29,0,0,0,24.28,5.66,126.05,126.05,0,0,0,49.9-3.79l7.89,59.7c-12.9,4.19-36.91,10-65.43,4.86A126.1,126.1,0,0,1,336.09,383.2Z"/><path class="cls-1" d="M344.1,324.29a18.79,18.79,0,0,1-8.15.3,26.12,26.12,0,0,1-7.54-2.49,26.57,26.57,0,0,1-6.47-4.61,19,19,0,0,1-4.59-6.75l.26-.3q3,2.32,6.09,4.38a65.37,65.37,0,0,0,6.51,3.71,67.73,67.73,0,0,0,6.85,3.06q3.51,1.31,7.14,2.31Z"/><path class="cls-2" d="M418.33,325.57a343,343,0,0,0,47.14-9A342.09,342.09,0,0,0,511,301.41l.15.37a133.53,133.53,0,0,1-21.67,11c-3.73,1.59-7.56,2.88-11.38,4.21s-7.75,2.37-11.65,3.45-7.87,1.9-11.84,2.68-8,1.46-12,1.89a132.91,132.91,0,0,1-24.27,1Z"/><path class="cls-3" d="M335.7,392.49a5.67,5.67,0,0,0,4,6.95l2.68.72a5.67,5.67,0,0,0,6.94-4l2.19-8.15-13.62-3.66Z"/><path class="cls-3" d="M359.5,399.12a5.68,5.68,0,0,0,5.08,6.21l2.76.27a5.66,5.66,0,0,0,6.2-5.07l.84-8.4-14-1.4Z"/><path class="cls-4" d="M412.83,398.3a5.67,5.67,0,0,0,6.88,4.11l2.68-.68a5.66,5.66,0,0,0,4.11-6.88l-2.06-8.18-13.68,3.44Z"/><path class="cls-4" d="M385.15,400.72a5.67,5.67,0,0,0,5.84,5.49l2.77-.08a5.67,5.67,0,0,0,5.49-5.84l-.26-8.44-14.1.44Z"/><path class="cls-5" d="M426.24,385.48l-7.89-59.71a127.17,127.17,0,0,1-37.92,4.71h0c6.22.92,17.28,3.62,26.08,12.57,3.14,3.19,7.26,7.38,7.53,13.36.11,2.54-.39,7.31-9,16.57a88.9,88.9,0,0,1-26.45,19.26,138.33,138.33,0,0,0,29.72-2.2A140.35,140.35,0,0,0,426.24,385.48Z"/><path class="cls-6" d="M352.36,359.31l43.76-17.7c7.31,13.07-.6,29.07-13.08,33.57C371.16,379.46,355.87,373.05,352.36,359.31Z"/><path class="cls-7" d="M357.58,356.07,390,343c5.42,9.69-.44,21.56-9.7,24.89C371.52,371,360.19,366.27,357.58,356.07Z"/><ellipse cx="365.68" cy="357.78" rx="2.86" ry="1.43" transform="translate(-112.22 175.18) rotate(-23.46)"/><ellipse cx="374.86" cy="361.03" rx="1.43" ry="2.86" transform="translate(-144.88 388.09) rotate(-46.9)"/><ellipse cx="380.92" cy="353.89" rx="2.86" ry="1.43" transform="translate(-138.78 338.09) rotate(-41.15)"/></g></svg>