<svg id="Layer_2" data-name="Layer 2" xmlns="http://www.w3.org/2000/svg" viewBox="0 0 841.89 595.28"><defs><style>.cls-1{fill:#fff1e4;}.cls-2{fill:#e0d9d2;}.cls-3,.cls-4{fill:none;stroke-miterlimit:10;stroke-width:4px;}.cls-3{stroke:#fff1e4;}.cls-4{stroke:#d1c6bb;}.cls-5{fill:#d1c6bb;}.cls-6{fill:#a68100;}.cls-7{fill:#8fca00;}.cls-8{fill:#e8ff82;}.cls-9{fill:#594809;}</style></defs><title>costume_3.4-01</title><g id="costume_3.4"><path class="cls-1" d="M336.09,383.18l8.08-59.3a122.29,122.29,0,0,0,24.28,5.66,126.05,126.05,0,0,0,49.9-3.79l7.89,59.7c-12.9,4.2-36.91,10-65.43,4.86A126.1,126.1,0,0,1,336.09,383.18Z"/><path class="cls-1" d="M344.1,324.27a19,19,0,0,1-8.15.31,26.67,26.67,0,0,1-14-7.11,19,19,0,0,1-4.59-6.75l.26-.3q3,2.32,6.09,4.38a76.64,76.64,0,0,0,13.36,6.77q3.51,1.31,7.14,2.31Z"/><path class="cls-2" d="M418.33,325.55a343,343,0,0,0,47.14-9A342.09,342.09,0,0,0,511,301.39l.15.37a133.53,133.53,0,0,1-21.67,11c-3.73,1.59-7.56,2.88-11.38,4.22s-7.75,2.36-11.65,3.44-7.87,1.9-11.84,2.69-8,1.45-12,1.88a132.91,132.91,0,0,1-24.27,1Z"/><path class="cls-3" d="M335.7,392.47a5.67,5.67,0,0,0,4,6.95l2.68.72a5.67,5.67,0,0,0,6.94-4l2.19-8.15-13.62-3.66Z"/><path class="cls-3" d="M359.5,399.11a5.67,5.67,0,0,0,5.08,6.2l2.76.28a5.67,5.67,0,0,0,6.2-5.08l.84-8.4-14-1.4Z"/><path class="cls-4" d="M412.83,398.28a5.67,5.67,0,0,0,6.88,4.11l2.68-.68a5.66,5.66,0,0,0,4.11-6.88l-2.06-8.18-13.68,3.45Z"/><path class="cls-4" d="M385.15,400.7a5.67,5.67,0,0,0,5.84,5.49l2.77-.08a5.67,5.67,0,0,0,5.49-5.84l-.26-8.43-14.1.43Z"/><path class="cls-5" d="M426.24,385.46l-7.89-59.71a127.45,127.45,0,0,1-37.92,4.72h0c6.22.92,17.28,3.62,26.08,12.57,3.14,3.19,7.26,7.38,7.53,13.36.11,2.54-.39,7.31-9,16.57a88.73,88.73,0,0,1-26.45,19.26,138.48,138.48,0,0,0,47.71-6.77Z"/><path class="cls-6" d="M376.42,348.39l3.4-8.93a1.88,1.88,0,0,1,2.21-.11,2,2,0,0,1,.77,1.53l-5.54,7.47h0Z"/><path class="cls-7" d="M393.29,347.78c-3.34-3.63-11.2-2.73-16.9.44-4.37-4.41-11.73-7.63-16-5-7.88,4.86-5.85,30,6.07,36.92a9.46,9.46,0,0,0,5.4,1.58,9.59,9.59,0,0,0,5.56-.07C390.8,378.27,399.55,354.58,393.29,347.78Z"/><path class="cls-8" d="M386,354.36c-2.08-2.26-7-1.7-10.53.27-2.72-2.75-7.31-4.75-10-3.11-4.91,3-3.64,18.72,3.79,23a5.88,5.88,0,0,0,3.36,1,6,6,0,0,0,3.47-.05C384.48,373.35,389.94,358.59,386,354.36Z"/><ellipse class="cls-9" cx="371.19" cy="357.55" rx="1.07" ry="2.34" transform="translate(-129.54 235.52) rotate(-30.23)"/><ellipse class="cls-9" cx="368.37" cy="362.97" rx="1.07" ry="2.34" transform="translate(-69.55 638.06) rotate(-76.71)"/><ellipse class="cls-9" cx="369.68" cy="368.45" rx="2.34" ry="1.07" transform="translate(-150.08 320.82) rotate(-39.67)"/><ellipse class="cls-9" cx="378.63" cy="358.88" rx="2.34" ry="1.07" transform="translate(-143.03 364) rotate(-44.03)"/><ellipse class="cls-9" cx="379.88" cy="364.87" rx="1.07" ry="2.34" transform="translate(-0.92 728.78) rotate(-87.55)"/><ellipse class="cls-9" cx="377.13" cy="369.78" rx="1.07" ry="2.34" transform="matrix(0.82, -0.57, 0.57, 0.82, -143.26, 279.47)"/></g></svg>