<svg id="Layer_2" data-name="Layer 2" xmlns="http://www.w3.org/2000/svg" viewBox="0 0 841.89 595.28"><defs><style>.cls-1{fill:#ffbbc4;}.cls-2{fill:#c28d94;}.cls-3,.cls-4{fill:none;stroke-miterlimit:10;stroke-width:4px;}.cls-3{stroke:#ffbbc4;}.cls-4{stroke:#c28d94;}.cls-5{fill:#6b0089;}.cls-6{fill:#a533c5;}.cls-7{fill:#156966;}</style></defs><title>costume_3.6-01-01</title><g id="costume_3.5"><path class="cls-1" d="M336.1,383.2l8.08-59.3a122.24,122.24,0,0,0,24.29,5.66,126.4,126.4,0,0,0,49.89-3.79l7.89,59.7c-12.9,4.19-36.9,10-65.43,4.86A126.3,126.3,0,0,1,336.1,383.2Z"/><path class="cls-1" d="M344.11,324.29a18.79,18.79,0,0,1-8.15.3,26.12,26.12,0,0,1-7.54-2.49,26.57,26.57,0,0,1-6.47-4.61,19.12,19.12,0,0,1-4.59-6.75l.26-.31c2,1.55,4,3,6.09,4.39a66.52,66.52,0,0,0,6.51,3.71,65.51,65.51,0,0,0,6.85,3.05q3.51,1.32,7.14,2.32Z"/><path class="cls-2" d="M418.34,325.57a344.49,344.49,0,0,0,47.14-9A343.54,343.54,0,0,0,511,301.41l.15.37a133.84,133.84,0,0,1-21.66,11c-3.73,1.59-7.57,2.88-11.39,4.21s-7.75,2.37-11.65,3.45-7.87,1.89-11.84,2.68-8,1.46-12,1.89a133.81,133.81,0,0,1-24.27,1Z"/><path class="cls-3" d="M335.71,392.49a5.68,5.68,0,0,0,4,6.95l2.68.72a5.66,5.66,0,0,0,6.94-4l2.2-8.14-13.63-3.67Z"/><path class="cls-3" d="M359.52,399.12a5.66,5.66,0,0,0,5.07,6.21l2.76.27a5.67,5.67,0,0,0,6.2-5.08l.84-8.39-14-1.4Z"/><path class="cls-4" d="M412.84,398.29a5.67,5.67,0,0,0,6.88,4.12l2.68-.68a5.68,5.68,0,0,0,4.12-6.88l-2.07-8.18-13.68,3.44Z"/><path class="cls-4" d="M385.16,400.72a5.67,5.67,0,0,0,5.84,5.49l2.77-.08a5.67,5.67,0,0,0,5.49-5.84l-.26-8.44-14.1.43Z"/><path class="cls-2" d="M426.25,385.47l-7.89-59.7a127.17,127.17,0,0,1-37.92,4.71h0c6.22.92,17.28,3.62,26.08,12.57,3.14,3.19,7.26,7.38,7.53,13.36.11,2.54-.38,7.31-9,16.57a88.83,88.83,0,0,1-26.44,19.26,138.07,138.07,0,0,0,47.7-6.78Z"/><ellipse class="cls-5" cx="374.15" cy="361.34" rx="13.71" ry="11.48" transform="translate(-56.77 652.66) rotate(-78.06)"/><ellipse class="cls-6" cx="379.14" cy="363.48" rx="15.38" ry="12.88" transform="translate(-123.24 516.74) rotate(-60.76)"/><path class="cls-7" d="M378.46,334.51c-1.32.43-1.49,4.16-.63,7,.94,3.07,3.49,6.14,4.84,5.69s1.49-4.17.63-7C382.35,337.12,379.81,334.05,378.46,334.51Z"/></g></svg>