<svg width="44" height="43" viewBox="0 0 44 43" fill="none" xmlns="http://www.w3.org/2000/svg">
<path d="M0.25 42.875H9.3125L36.0408 16.6075L26.9783 7.70125L0.25 33.9688V42.875ZM5.08333 35.94L26.9783 14.4225L29.2017 16.6075L7.30667 38.125H5.08333V35.94ZM37.3942 0.81375C37.1706 0.593579 36.905 0.418904 36.6127 0.299723C36.3203 0.180542 36.0069 0.119195 35.6904 0.119195C35.3739 0.119195 35.0605 0.180542 34.7682 0.299723C34.4758 0.418904 34.2102 0.593579 33.9867 0.81375L29.5642 5.16L38.6267 14.0663L43.0492 9.72C43.2732 9.50028 43.4509 9.23929 43.5722 8.95198C43.6935 8.66467 43.7559 8.35667 43.7559 8.04563C43.7559 7.73458 43.6935 7.42658 43.5722 7.13927C43.4509 6.85196 43.2732 6.59097 43.0492 6.37125L37.3942 0.81375Z" fill="#2151C5"/>
</svg>
