<svg width="80" height="80" viewBox="0 0 80 80" fill="none" xmlns="http://www.w3.org/2000/svg">
<g clip-path="url(#clip0_4_105)">
<path d="M40.1667 58.9167L30.7083 49.4584H21.2917C20.0139 49.4584 18.9094 48.9928 17.9783 48.0617C17.0483 47.1317 16.5833 46.0278 16.5833 44.75L16.5833 35.3334C16.5833 34.0556 17.0555 32.9445 18 32C18.9444 31.0556 20.0555 30.5834 21.3333 30.5834L30.6667 30.5834L40.125 21.125L40.1667 58.9167ZM44.75 19.3334C49.6111 20.4167 53.5833 22.8745 56.6667 26.7067C59.75 30.5412 61.2916 34.9584 61.2916 39.9584C61.2916 44.9584 59.75 49.3745 56.6667 53.2067C53.5833 57.0412 49.6111 59.5 44.75 60.5834L44.75 55.75C48.2778 54.7223 51.1255 52.75 53.2933 49.8334C55.4589 46.9167 56.5417 43.625 56.5417 39.9584C56.5417 36.2917 55.4589 33 53.2933 30.0834C51.1255 27.1667 48.2778 25.1945 44.75 24.1667L44.75 19.3334ZM44.75 29.1667C46.8055 30.2778 48.5 31.7778 49.8333 33.6667C51.1667 35.5556 51.8333 37.6667 51.8333 40C51.8333 42.3334 51.1661 44.4306 49.8317 46.2917C48.4994 48.1528 46.8055 49.6389 44.75 50.75V45.0834C45.4444 44.3889 46.0144 43.6112 46.46 42.75C46.9033 41.8889 47.125 40.9862 47.125 40.0417C47.125 39.0417 46.91 38.1045 46.48 37.23C46.0489 36.3545 45.4722 35.5556 44.75 34.8334L44.75 29.1667Z" fill="#2151C5"/>
</g>
<defs>
<clipPath id="clip0_4_105">
<rect width="56.5685" height="56.5685" fill="white" transform="translate(40) rotate(45)"/>
</clipPath>
</defs>
</svg>
