<svg width="42" height="42" viewBox="0 0 42 42" fill="none" xmlns="http://www.w3.org/2000/svg">
<path d="M25.2 4.19998C25.2001 3.95227 25.1344 3.70899 25.0097 3.49496C24.885 3.28092 24.7058 3.1038 24.4903 2.98167C24.2748 2.85955 24.0307 2.79678 23.783 2.79979C23.5353 2.80279 23.2929 2.87146 23.0804 2.99878L9.4136 11.1944H4.2C1.8788 11.1944 0 13.0704 0 15.3944V26.6C0 28.9212 1.876 30.8 4.2 30.8H9.4136L23.0776 39.0012C23.2901 39.1292 23.5329 39.1985 23.781 39.2018C24.0291 39.2052 24.2736 39.1426 24.4896 39.0204C24.7055 38.8981 24.8851 38.7207 25.0099 38.5063C25.1348 38.2919 25.2003 38.0481 25.2 37.8V4.19998ZM36.9796 20.9888L40.9388 24.9452L38.9592 26.9248L35 22.9684L31.0408 26.9248L29.0612 24.9452L33.0204 20.9888L29.0612 17.0324L31.0408 15.0528L35 19.0092L38.962 15.0528L40.9388 17.0324L36.9796 20.9888Z" fill="#2151C5"/>
</svg>
