<svg id="Layer_2" data-name="Layer 2" xmlns="http://www.w3.org/2000/svg" viewBox="0 0 841.89 595.28"><defs><style>.cls-1{fill:#211700;}.cls-2{fill:#422e00;}.cls-3{fill:#ff5119;}.cls-4{fill:#ff9600;}.cls-5{fill:#ffd219;}.cls-6{fill:#bf3d13;}.cls-7{fill:#bf9e12;}.cls-8{fill:#bf7100;}.cls-9{fill:#271b00;}.cls-10{fill:#947a4c;}.cls-11{fill:#b3ab99;}.cls-12{fill:#c2bcad;}</style></defs><title>weapon_1.2-01</title><g id="weapon_1.2"><path class="cls-1" d="M235.33,245.64l5.45-5.66a91.43,91.43,0,0,1,27,25.94l-5.44,5.66Z"/><path class="cls-2" d="M240.78,240a33,33,0,0,0,27,25.94l-6.48,6.74a35.09,35.09,0,0,1-27-25.94Z"/><path class="cls-2" d="M246.77,245.89A22.58,22.58,0,0,0,251.4,254a23,23,0,0,0,10.31,6.6q27.72-29.09,55.43-58.16C334.72,191.17,353,178.44,371.6,164A725.55,725.55,0,0,0,479.94,60a42.86,42.86,0,0,0-13.68-21.75,42.23,42.23,0,0,0-17.89-8.84A777.71,777.71,0,0,0,341.08,137.37c-13.23,16.22-25.19,32.24-36,47.83Z"/><path class="cls-1" d="M261.71,260.61q27.72-29.07,55.43-58.16C334.72,191.23,353,178.5,371.59,164A724.57,724.57,0,0,0,479.93,60.1a42.75,42.75,0,0,0-13.67-21.75,41.47,41.47,0,0,0-5.7-4q1.6,15.38,1.61,15.38L442.83,74.54l-48,54.17-44.05,36h0L316,191.27h0c-.48.46-2.78,2.71-4.9,5.07-2.72,3-4.93,6-4.93,6L292.4,216.52l-18.84,17.55L251.4,254a22.49,22.49,0,0,0,10.31,6.66Z"/><path class="cls-3" d="M335.57,144.33a58.65,58.65,0,0,1,13.54-1.62c7.66.23,13.39,2.2,13.52,1.78s-9.82-5.06-20.66-8.09l-.66.79Q338.4,140.76,335.57,144.33Z"/><path class="cls-3" d="M388.68,150.35c-2.91-10-8.05-18.07-15.22-19.94-7.72-2-17.12,3.31-17,3.79,0,.14,4.47-1.57,8.66-.2,6.59,2.15,11.06,11.4,10.92,18.3-.09,4.3-2,8.4-4.91,12.12l.72-.56Q380.49,157.14,388.68,150.35Z"/><path class="cls-3" d="M342.47,154.24c0-.11-7.07-.87-13.79-1.13-.57.74-1.15,1.48-1.71,2.22C334.61,152.66,342.46,154.36,342.47,154.24Z"/><path class="cls-4" d="M247,245.71a22.8,22.8,0,0,0,4.64,8.06,22.52,22.52,0,0,0,5.23,4.39,22.83,22.83,0,0,0,5.07,2.27L317.06,202q8.71-5.69,17.54-11.57,9.09-6.07,18-12.14c-8.46,4-16.46,5.53-18.57,3.24-2.32-2.53,1.35-11,6.35-15.68,2.58-2.4,5.27-3.53,10.67-5.8,8-3.38,13.76-4.38,13.66-5s-4-.33-7.68.11-17,2-27.92,9.32C313.43,175,310.79,192,308.56,191.2c-1.23-.47-.83-5.87,1.17-12.49-1.5,2.11-3,4.21-4.43,6.31Z"/><path class="cls-5" d="M317.18,202.45c1.8-1.35,3.75-2.74,5.83-4.12s4.14-2.65,6.11-3.8a114.73,114.73,0,0,0-1.53-14.5c-.95-5.54-1.43-5.91-1.64-5.9-.69,0,1.23,8.37-3.15,15.75-5.48,9.22-14.53,6.37-23.46,14.76-10.77,10.12-11,26.82-12.25,29.38Z"/><path class="cls-5" d="M251.44,254a22.74,22.74,0,0,0,5.23,4.39,23.28,23.28,0,0,0,5,2.26h.05l25-26.26h-.07c-.72-.12-.31-3.55-.82-8a43.63,43.63,0,0,0-5.14-15.84l-3.52,3.66c1.19,5.06,1.84,11.33-.84,17.23-5.38,11.83-19.22,11.21-27.57,18.9a22.39,22.39,0,0,0,2.61,3.6Z"/><path class="cls-5" d="M386.46,147.58c-5.81-7.28-11.23-12.32-11.47-12.1s3.43,2.87,5.06,8a17.91,17.91,0,0,1-3.25,16.59q3-2.29,6-4.79c2-1.65,3.95-3.3,5.82-4.92C388.09,149.66,387.35,148.7,386.46,147.58Z"/><path class="cls-6" d="M371.09,164.38l.72-.55q2.6-2,5.15-4a21,21,0,0,0,3-6.19,18.92,18.92,0,0,0,0-10.14,15.73,15.73,0,0,0-.76-2l-4.52,3.69a20.93,20.93,0,0,1,1.26,7.16C375.92,156.57,374,160.67,371.09,164.38Z"/><path class="cls-6" d="M386.46,147.55c.92,1.15,1.61,2.06,2.15,2.82l.07-.05a44.09,44.09,0,0,0-5.42-12.16l-2.87,2.35C382.2,142.46,384.32,144.87,386.46,147.55Z"/><path class="cls-7" d="M380.38,140.52l-1.11.92a15.8,15.8,0,0,1,.77,2.08,18.76,18.76,0,0,1-.06,10.27,19.19,19.19,0,0,1-3.18,6.29q3-2.27,6-4.77t5.85-5c-.25-.34-.6-.8-1-1.34-.22-.29-1.07-1.37-2.33-2.86C383.3,143.74,381,141.2,380.38,140.52Z"/><path class="cls-8" d="M364.67,155.08c0-.2-.7-.29-1.7-.3l-2.19,1.79C363.27,155.8,364.72,155.38,364.67,155.08Z"/><path class="cls-8" d="M329.12,194.53q11.55-7.71,23.43-16.29c-8.47,4-16.47,5.54-18.57,3.25-.69-.75-.84-2-.6-3.56l-5.47,4.18C328.42,185.52,328.87,189.8,329.12,194.53Z"/><path class="cls-7" d="M325,184.32a20,20,0,0,1-2.22,5.49c-3.47,5.85-8.39,6.84-13.8,8.93-1.65,2-2.79,3.54-2.79,3.54l-13.72,14.14L291,217.81c-2.75,7.52-3.13,14.55-3.9,16.14l30-31.49.07-.08.05,0h0l.14-.14q5.82-3.72,11.75-7.67c-.24-4.73-.7-9-1.2-12.42Z"/><path class="cls-8" d="M322.82,189.81a20.23,20.23,0,0,0,2.22-5.49l-9,6.85h0c-.48.46-2.79,2.71-4.9,5.07-.77.86-1.5,1.71-2.15,2.49C314.42,196.66,319.34,195.66,322.82,189.81Z"/><path class="cls-8" d="M285.35,223.08c.22,1.07.41,2.16.53,3.27.51,4.42.09,7.84.82,8,0,0,.05,0,.07,0l.31-.33c.77-1.59,1.16-8.62,3.91-16.14Z"/><path class="cls-7" d="M264.86,241.9,251.4,254a22.61,22.61,0,0,0,5.24,4.39,22.31,22.31,0,0,0,5.11,2.27q12.51-13.14,25-26.29l-.07,0c-.72-.13-.31-3.55-.82-8-.12-1.11-.31-2.19-.53-3.26l-9,8.4C273.85,236.92,269.57,239.71,264.86,241.9Z"/><path class="cls-8" d="M276.26,231.56l-2.7,2.51L264.78,242C269.48,239.77,273.76,237,276.26,231.56Z"/><path class="cls-9" d="M244.23,263.78a35.32,35.32,0,0,0,17,8.88l6.48-6.74a33.3,33.3,0,0,1-17.68-9c.7,2.43.91,4.73-.24,5.84s-3.64.95-6.91-.36C243.32,262.89,243.77,263.34,244.23,263.78Z"/><path class="cls-10" d="M435.89,68.56a110.28,110.28,0,0,1-7.34-9,96.66,96.66,0,0,1-5.41-8.33c-1.25,1.12-2.49,2.23-3.74,3.37a99.42,99.42,0,0,0,12.57,17,99.31,99.31,0,0,0,21.8,17.77l1.59-1.69L457,85.88A111.23,111.23,0,0,1,435.89,68.56Z"/><path class="cls-10" d="M441.92,61.62c-3.69-4-6.92-8.38-6.92-8.38-2-2.73-3.73-5.38-5.22-7.86L426,48.69a100.16,100.16,0,0,0,12,16,100,100,0,0,0,22.07,18c.52-.57,1.05-1.14,1.57-1.72s1.12-1.23,1.68-1.84C460.34,77.16,450,70.38,441.92,61.62Z"/><polygon class="cls-11" points="375.99 102.47 410.96 68.31 421.22 65.97 418.78 73.33 385.21 105.78 372.85 110.4 375.99 102.47"/><polygon class="cls-12" points="394.16 103.36 399.56 97.06 404.83 97.17 404.76 100.37 399.38 105.75 394.07 107.87 394.16 103.36"/></g></svg>