<svg id="Layer_2" data-name="Layer 2" xmlns="http://www.w3.org/2000/svg" xmlns:xlink="http://www.w3.org/1999/xlink" viewBox="0 0 841.89 595.28"><defs><style>.cls-1{fill:url(#linear-gradient);}.cls-2{fill:#92695f;}.cls-3{fill:url(#linear-gradient-2);}.cls-4{fill:url(#linear-gradient-3);}.cls-5{fill:#73534c;}.cls-6{fill:url(#linear-gradient-4);}.cls-7{fill:url(#linear-gradient-5);}.cls-8{fill:#3a3a31;}.cls-9{fill:none;stroke:#43302b;stroke-miterlimit:10;stroke-width:5px;}.cls-10{fill:#ffc61a;}.cls-11{fill:#bf9514;}.cls-12{fill:url(#linear-gradient-6);}.cls-13{fill:#6d4f47;}</style><linearGradient id="linear-gradient" x1="219.55" y1="95.71" x2="219.55" y2="-7.63" gradientTransform="translate(146.03 -68.92) rotate(33.64)" gradientUnits="userSpaceOnUse"><stop offset="0" stop-color="#2c2c25"/><stop offset="0.69" stop-color="#4d4d42"/><stop offset="1" stop-color="#4d4d42"/></linearGradient><linearGradient id="linear-gradient-2" x1="279.01" y1="78.2" x2="279.01" y2="7.05" gradientTransform="translate(397.32 -157.88) rotate(90)" xlink:href="#linear-gradient"/><linearGradient id="linear-gradient-3" x1="338.46" y1="95.71" x2="338.46" y2="-7.63" gradientTransform="translate(146.03 -68.92) rotate(33.64)" gradientUnits="userSpaceOnUse"><stop offset="0" stop-color="#4d4d42"/><stop offset="0.69" stop-color="#8f8f81"/><stop offset="1" stop-color="#8f8f81"/></linearGradient><linearGradient id="linear-gradient-4" x1="207.05" y1="95.71" x2="207.05" y2="-7.63" xlink:href="#linear-gradient-3"/><linearGradient id="linear-gradient-5" x1="350.96" y1="95.71" x2="350.96" y2="-7.63" xlink:href="#linear-gradient"/><linearGradient id="linear-gradient-6" x1="267.08" y1="191.22" x2="290.94" y2="191.22" xlink:href="#linear-gradient"/></defs><title>weapon_2.7-01</title><g id="weapon_3.1"><polygon class="cls-1" points="327.13 42.41 269.88 128.45 286.38 129.26 335.81 54.98 327.13 42.41"/><rect class="cls-2" x="274.36" y="87.9" width="89.22" height="18.92" transform="translate(61.22 308.98) rotate(-56.36)"/><rect class="cls-3" x="319.12" y="87.68" width="71.15" height="66.89" transform="translate(57.36 349.32) rotate(-56.36)"/><polygon class="cls-4" points="437.94 116.15 380.69 202.19 373.57 187.27 423 112.99 437.94 116.15"/><rect class="cls-5" x="345.8" y="135.43" width="89.22" height="18.92" transform="translate(53.5 389.66) rotate(-56.36)"/><polygon class="cls-6" points="327.13 42.41 269.88 128.45 265.57 115.41 315 41.13 327.13 42.41"/><polygon class="cls-7" points="437.94 116.15 380.69 202.19 394.39 201.12 443.81 126.84 437.94 116.15"/><path class="cls-8" d="M372.15,132.74a15.68,15.68,0,0,1-5.55,5.06,19.35,19.35,0,0,1-7.26,2.25,25,25,0,0,1-15-3.3,24.39,24.39,0,0,1-10.57-12,19.49,19.49,0,0,1-1.33-8.36,16.65,16.65,0,0,1,9.3-14,19.53,19.53,0,0,1,8.23-2,24.4,24.4,0,0,1,15.17,5.11A25.07,25.07,0,0,1,374,118.1a19.62,19.62,0,0,1,.73,7.57A15.86,15.86,0,0,1,372.15,132.74Zm0,0a14.55,14.55,0,0,0,2.35-7.09,17,17,0,0,0-1.21-7.33,22,22,0,0,0-9.59-10.74,22.53,22.53,0,0,0-13.48-2.88,13.94,13.94,0,0,0-12.42,18.64,22.49,22.49,0,0,0,7.87,11.34,22,22,0,0,0,13.62,4.69,17,17,0,0,0,7.23-1.72A14.57,14.57,0,0,0,372.15,132.74Z"/><circle class="cls-9" cx="335.95" cy="71.84" r="4.94"/><circle class="cls-9" cx="318.97" cy="97.36" r="4.94"/><circle class="cls-9" cx="301.99" cy="122.87" r="4.94"/><circle class="cls-9" cx="407.39" cy="119.38" r="4.94"/><circle class="cls-9" cx="390.41" cy="144.89" r="4.94"/><circle class="cls-9" cx="373.43" cy="170.41" r="4.94"/><circle class="cls-10" cx="355.49" cy="119.93" r="9.42"/><path class="cls-11" d="M347.65,114.71a8.77,8.77,0,0,0-1.19,7,8.64,8.64,0,0,0,4.22,5.41,8.7,8.7,0,0,0,9.61-14.43,8.6,8.6,0,0,0-6.62-1.82A8.76,8.76,0,0,0,347.65,114.71Zm0,0A10.17,10.17,0,0,1,366,117.82a10.31,10.31,0,0,1-1.41,8.16,10.49,10.49,0,0,1-3,3,10.66,10.66,0,0,1-3.94,1.48,10.18,10.18,0,0,1-10-15.72Z"/><polygon class="cls-10" points="362.39 83.49 387.15 99.97 389.27 69.15 362.39 83.49"/><polygon class="cls-11" points="389.27 69.15 374.41 91.49 387.15 99.97 389.27 69.15"/><rect class="cls-10" x="249.65" y="184.54" width="109.81" height="23.86" transform="translate(-27.72 341.18) rotate(-56.36)"/><polygon class="cls-11" points="335.18 150.45 345.11 157.06 284.07 248.78 274.5 242.41 335.18 150.45"/><path class="cls-12" d="M266.25,232.5l-7.19,10.81a32.59,32.59,0,0,0,19.86,13.22l8-12.07Z"/><path class="cls-13" d="M320.05,151.66a45.72,45.72,0,0,0,19.86,13.21,10.2,10.2,0,0,1-1.3,5,10.51,10.51,0,0,1-4.94,4.4A45.42,45.42,0,0,1,313.8,161a10.47,10.47,0,0,1,2.22-6.33A10.27,10.27,0,0,1,320.05,151.66Z"/><path class="cls-13" d="M270.65,225.88a45.85,45.85,0,0,0,19.86,13.22,10.19,10.19,0,0,1-1.3,5,10.3,10.3,0,0,1-4.94,4.4,45.18,45.18,0,0,1-19.86-13.21,10.44,10.44,0,0,1,2.21-6.33A10.31,10.31,0,0,1,270.65,225.88Z"/></g></svg>