<svg id="Layer_2" data-name="Layer 2" xmlns="http://www.w3.org/2000/svg" xmlns:xlink="http://www.w3.org/1999/xlink" viewBox="0 0 841.89 595.28"><defs><style>.cls-1{fill:#251300;}.cls-2{fill:#92695f;}.cls-3{fill:url(#linear-gradient);}.cls-4{fill:#492500;}.cls-5{fill:#73534c;}.cls-6,.cls-9{fill:#f9cd33;stroke-miterlimit:10;}.cls-6{stroke:#43302b;stroke-width:5px;}.cls-7{fill:url(#linear-gradient-2);}.cls-8{fill:#f8c100;}.cls-9{stroke:#ba9100;stroke-width:9px;}</style><linearGradient id="linear-gradient" x1="307.14" y1="121.12" x2="402.25" y2="121.12" gradientTransform="translate(259.04 -241.27) rotate(56.36)" gradientUnits="userSpaceOnUse"><stop offset="0" stop-color="#f8c100"/><stop offset="0.44" stop-color="#fce699"/><stop offset="0.99" stop-color="#f8c100"/></linearGradient><linearGradient id="linear-gradient-2" x1="267.08" y1="191.22" x2="290.94" y2="191.22" gradientTransform="translate(146.03 -68.92) rotate(33.64)" gradientUnits="userSpaceOnUse"><stop offset="0" stop-color="#2c2c25"/><stop offset="0.69" stop-color="#4d4d42"/><stop offset="1" stop-color="#4d4d42"/></linearGradient></defs><title>weapon_2.8-01</title><g id="weapon_3.2"><polygon class="cls-1" points="327.13 42.41 269.88 128.45 286.38 129.26 335.81 54.98 327.13 42.41"/><rect class="cls-2" x="274.36" y="87.9" width="89.22" height="18.92" transform="translate(61.22 308.98) rotate(-56.36)"/><rect class="cls-3" x="319.12" y="87.68" width="71.15" height="66.89" transform="translate(57.36 349.32) rotate(-56.36)"/><polygon class="cls-4" points="437.94 116.15 380.69 202.19 373.57 187.27 423 112.99 437.94 116.15"/><rect class="cls-5" x="345.8" y="135.43" width="89.22" height="18.92" transform="translate(53.5 389.66) rotate(-56.36)"/><polygon class="cls-4" points="327.13 42.41 269.88 128.45 265.57 115.41 315 41.13 327.13 42.41"/><polygon class="cls-1" points="437.94 116.15 380.69 202.19 394.39 201.12 443.81 126.84 437.94 116.15"/><circle class="cls-6" cx="335.95" cy="71.84" r="4.94"/><circle class="cls-6" cx="318.97" cy="97.36" r="4.94"/><circle class="cls-6" cx="301.99" cy="122.87" r="4.94"/><circle class="cls-6" cx="407.39" cy="119.38" r="4.94"/><circle class="cls-6" cx="390.41" cy="144.89" r="4.94"/><circle class="cls-6" cx="373.43" cy="170.41" r="4.94"/><polygon class="cls-4" points="362.39 83.49 387.15 99.97 389.27 69.15 362.39 83.49"/><polygon class="cls-1" points="389.27 69.15 374.41 91.49 387.15 99.97 389.27 69.15"/><rect class="cls-4" x="249.65" y="184.54" width="109.81" height="23.86" transform="translate(-27.72 341.18) rotate(-56.36)"/><polygon class="cls-1" points="335.18 150.45 345.11 157.06 284.07 248.78 274.5 242.41 335.18 150.45"/><path class="cls-7" d="M266.25,232.5l-7.19,10.81a32.59,32.59,0,0,0,19.86,13.22l8-12.07Z"/><path class="cls-8" d="M320.05,151.66a45.72,45.72,0,0,0,19.86,13.21,10.2,10.2,0,0,1-1.3,5,10.51,10.51,0,0,1-4.94,4.4A45.42,45.42,0,0,1,313.8,161a10.47,10.47,0,0,1,2.22-6.33A10.27,10.27,0,0,1,320.05,151.66Z"/><path class="cls-8" d="M270.65,225.88a45.85,45.85,0,0,0,19.86,13.22,10.19,10.19,0,0,1-1.3,5,10.3,10.3,0,0,1-4.94,4.4,45.18,45.18,0,0,1-19.86-13.21,10.44,10.44,0,0,1,2.21-6.33A10.31,10.31,0,0,1,270.65,225.88Z"/><circle class="cls-9" cx="354.83" cy="117.4" r="19.38"/></g></svg>