<svg id="Layer_2" data-name="Layer 2" xmlns="http://www.w3.org/2000/svg" xmlns:xlink="http://www.w3.org/1999/xlink" viewBox="0 0 841.89 595.28"><defs><style>.cls-1{fill:url(#linear-gradient);}.cls-2{fill:url(#linear-gradient-2);}.cls-3{fill:#807f62;}.cls-4{fill:url(#linear-gradient-3);}.cls-5{fill:url(#linear-gradient-4);}.cls-6{fill:url(#linear-gradient-5);}.cls-7{fill:#ebeadc;}.cls-8{fill:url(#linear-gradient-6);}.cls-9{fill:#695233;}.cls-10{fill:#4f3e26;}.cls-11{fill:#d2ab33;}.cls-12{fill:#957100;}.cls-13{fill:#de335c;}.cls-14{fill:#ab3350;}.cls-15{fill:#960024;}</style><linearGradient id="linear-gradient" x1="293.95" y1="172.49" x2="293.95" y2="-63.38" gradientTransform="translate(220.19 -117.69) rotate(42.19)" gradientUnits="userSpaceOnUse"><stop offset="0.47" stop-color="#39392f"/><stop offset="0.86" stop-color="#99987e"/><stop offset="1" stop-color="#99987e"/></linearGradient><linearGradient id="linear-gradient-2" x1="294.35" y1="47.45" x2="288.19" y2="-54.53" gradientTransform="translate(220.19 -117.69) rotate(42.19)" gradientUnits="userSpaceOnUse"><stop offset="0" stop-color="#39392f" stop-opacity="0"/><stop offset="0.3" stop-color="#83836c" stop-opacity="0"/><stop offset="0.39" stop-color="#83836c" stop-opacity="0.44"/><stop offset="0.49" stop-color="#84836d" stop-opacity="0.84"/><stop offset="0.53" stop-color="#84836d"/><stop offset="0.56" stop-color="#7c7b66"/><stop offset="0.76" stop-color="#4f4e41"/><stop offset="0.86" stop-color="#3d3d32"/></linearGradient><linearGradient id="linear-gradient-3" x1="315.45" y1="201.44" x2="473.85" y2="26.67" gradientUnits="userSpaceOnUse"><stop offset="0.16" stop-color="#39392f"/><stop offset="0.52" stop-color="#99987e"/><stop offset="0.74" stop-color="#ebeadc"/></linearGradient><linearGradient id="linear-gradient-4" x1="258.02" y1="172.74" x2="258.02" y2="-63.13" gradientTransform="translate(220.19 -117.69) rotate(42.19)" gradientUnits="userSpaceOnUse"><stop offset="0" stop-color="#707065"/><stop offset="0.69" stop-color="#c7c6a4"/><stop offset="1" stop-color="#cccba8"/></linearGradient><linearGradient id="linear-gradient-5" x1="346.64" y1="188.88" x2="361.09" y2="188.88" gradientTransform="translate(18.32 -92.67) rotate(2.09)" gradientUnits="userSpaceOnUse"><stop offset="0" stop-color="#ebeadc"/><stop offset="0.28" stop-color="#e8e7d8" stop-opacity="0.95"/><stop offset="0.44" stop-color="#dfdeca" stop-opacity="0.69"/><stop offset="0.69" stop-color="#d3d2b6" stop-opacity="0.32"/><stop offset="0.87" stop-color="#cbcaa9" stop-opacity="0.09"/><stop offset="0.95" stop-color="#c8c7a4" stop-opacity="0"/><stop offset="1" stop-color="#cccbaa" stop-opacity="0.03"/><stop offset="1" stop-color="#cac9a5" stop-opacity="0"/></linearGradient><linearGradient id="linear-gradient-6" x1="287.2" y1="259.17" x2="314.08" y2="259.17" gradientTransform="translate(18.32 -92.67) rotate(2.09)" xlink:href="#linear-gradient-4"/></defs><title>weapon_2.2-01</title><g id="weapon_2.2"><path class="cls-1" d="M473.85,26.67a144.13,144.13,0,0,1-6.42,22.39A143.15,143.15,0,0,1,457.1,70.71l-26.46,29.86-26.45,29.85c1.26-1.43-2.52,2.85-3.79,4.27,0,0-3.44,3.83-17.94,12.69C362.62,160.89,358,165.13,358,165.13a85.67,85.67,0,0,0-15.59,19.33l-7.42,21c-3.28.72-10.35,1.72-16.83-2.07a18.46,18.46,0,0,1-2.72-1.92Z"/><polygon class="cls-2" points="468.33 33.82 456.12 67.18 412.99 114.76 399.6 109.66 468.33 33.82"/><line class="cls-3" x1="473.85" y1="26.67" x2="315.45" y2="201.44"/><path class="cls-4" d="M473.85,26.67c-12.28,15.4-25,30.4-37.87,45.26-6.4,7.47-13,14.79-19.43,22.18l-19.68,22q-19.78,21.87-40.09,43.25c-13.52,14.27-27.21,28.4-41.33,42.12,12.27-15.4,25-30.4,37.86-45.26s25.9-29.59,39.12-44.14l19.92-21.73c6.72-7.18,13.37-14.42,20.17-21.51C446.05,54.53,459.73,40.4,473.85,26.67Z"/><path class="cls-5" d="M460.48,14.89a142.87,142.87,0,0,0-42.18,21L391.17,65.14l-27.1,29.25c1.29-1.4-2.6,2.78-3.88,4.18,0,0-3.48,3.8-10.88,19.1-11.49,21.07-15.26,26.07-15.26,26.07a85.59,85.59,0,0,1-17.71,17.41l-20.15,9.45,5.89,19.07Z"/><path class="cls-6" d="M371.86,88.41l-13.65,15.37q-.56,12.87-1.13,25.75l15.14-18.48Z"/><path class="cls-7" d="M438.83,23.48a143.06,143.06,0,0,0-20.53,12.4L391.17,65.14l-27.1,29.25c1.29-1.4-2.6,2.78-3.88,4.18,0,0-3.48,3.8-10.88,19.1-11.49,21.07-15.26,26.07-15.26,26.07a85.59,85.59,0,0,1-17.71,17.41l-20.15,9.45.93,3,24.78-13.85,13.89-14.87L360,102.52l59.29-62.1,35.73-19.54,5.42-6A143.12,143.12,0,0,0,438.83,23.48Z"/><path class="cls-8" d="M323.2,165.15a47.45,47.45,0,0,1-18.06,7.65,45.55,45.55,0,0,1-8,.81,12.41,12.41,0,0,0-.65,9.52,12.23,12.23,0,0,0,5.61,6.54Z"/><path class="cls-9" d="M304.69,223.1l1.64-2.9c3.19-5.61,5.76-10.1,7.43-13L305,200.73l-7.5-7.86c-2.68,2-6.81,5.13-12,9l-2.67,2c-12.8,9.68-16.59,14.26-18.07,16.14-.55.71-1.46,1.9-2.5,3.47a26.53,26.53,0,0,0,3.47,21.8h0a26.51,26.51,0,0,0,22.07.7c1.42-1.23,2.49-2.28,3.12-2.92C292.63,241.36,296.7,237,304.69,223.1Z"/><path class="cls-10" d="M287.83,246c1.42-1.23,2.49-2.28,3.12-2.92,1.68-1.7,5.75-6,13.74-20l1.64-2.9c3.19-5.61,5.76-10.1,7.43-13L305,200.73h0c-1.75,6.78-7,23.09-22.42,35.2a61.28,61.28,0,0,1-16.83,9.35,26.51,26.51,0,0,0,22.07.7Z"/><path class="cls-11" d="M306.79,198.7a95.91,95.91,0,0,1-8.65-23.36,81.91,81.91,0,0,1-2-20.88,25.78,25.78,0,0,0-10,1.61c-12.57,4.87-14.65,18.92-15,21.3a25.73,25.73,0,0,1,14.92,6.09c8.5,7.6,11.07,21.9,4.36,33.82Z"/><path class="cls-11" d="M306.77,198.68A96.09,96.09,0,0,0,331,204.32a81.61,81.61,0,0,0,21-.63,25.66,25.66,0,0,1-.33,10.13c-3.25,13.09-16.92,16.92-19.25,17.53a25.72,25.72,0,0,0-7.91-14c-8.62-7.47-23.12-8.22-34.1-.06Z"/><path class="cls-12" d="M302.75,204.31s-3.3,5.38-11.14,12.1l2.57-1.49c1.7-1,18.69-7.58,30.32,2.4a25.22,25.22,0,0,1,7.91,14c1.75-.37,12.19-2.79,17.3-12.48a23.34,23.34,0,0,0,2.63-10.52l-28.85-4.14-19.16-2.75h0C304,202,303.51,203.07,302.75,204.31Z"/><path class="cls-13" d="M324.07,179.09l-11.64-1.17L297.4,195v14.36l14.25-1.8,15-17Q325.37,184.79,324.07,179.09Z"/><polygon class="cls-14" points="312.43 177.92 297.4 194.97 297.41 209.34 311.66 207.54 326.69 190.49 315.28 189.06 312.43 177.92"/><polygon class="cls-15" points="324.06 179.09 297.41 209.34 311.66 207.54 326.69 190.49 324.06 179.09"/></g></svg>