<svg id="Layer_2" data-name="Layer 2" xmlns="http://www.w3.org/2000/svg" xmlns:xlink="http://www.w3.org/1999/xlink" viewBox="0 0 841.89 595.28"><defs><style>.cls-1{fill:url(#linear-gradient);}.cls-2{fill:url(#linear-gradient-2);}.cls-3{fill:#807f62;}.cls-4{fill:url(#linear-gradient-3);}.cls-5{fill:url(#linear-gradient-4);}.cls-6{fill:url(#linear-gradient-5);}.cls-7{fill:#dee4e6;}.cls-8{fill:url(#linear-gradient-6);}.cls-9{fill:#5d5300;}.cls-10{fill:#2f2a00;}.cls-11{fill:#6fb6c4;}.cls-12{fill:#396580;}.cls-13{fill:#727de0;}.cls-14{fill:#1426cc;}</style><linearGradient id="linear-gradient" x1="293.87" y1="172.4" x2="293.87" y2="-63.48" gradientTransform="translate(220.19 -117.69) rotate(42.19)" gradientUnits="userSpaceOnUse"><stop offset="0.47" stop-color="#31484c"/><stop offset="0.86" stop-color="#75a5ad"/><stop offset="1" stop-color="#98bbc2"/></linearGradient><linearGradient id="linear-gradient-2" x1="294.26" y1="47.35" x2="288.11" y2="-54.63" gradientTransform="translate(220.19 -117.69) rotate(42.19)" gradientUnits="userSpaceOnUse"><stop offset="0" stop-color="#39392f" stop-opacity="0"/><stop offset="0.3" stop-color="#83836c" stop-opacity="0"/><stop offset="0.31" stop-color="#81826b" stop-opacity="0.02"/><stop offset="0.46" stop-color="#475855" stop-opacity="0.73"/><stop offset="0.53" stop-color="#31484c"/><stop offset="0.86" stop-color="#31484c"/></linearGradient><linearGradient id="linear-gradient-3" x1="315.45" y1="201.31" x2="473.85" y2="26.54" gradientUnits="userSpaceOnUse"><stop offset="0.16" stop-color="#708488"/><stop offset="0.52" stop-color="#dee4e6"/><stop offset="0.74" stop-color="#dee4e6"/></linearGradient><linearGradient id="linear-gradient-4" x1="257.94" y1="172.65" x2="257.94" y2="-63.23" gradientTransform="translate(220.19 -117.69) rotate(42.19)" gradientUnits="userSpaceOnUse"><stop offset="0" stop-color="#455c60"/><stop offset="0.69" stop-color="#9dafb2"/><stop offset="1" stop-color="#7d9599"/></linearGradient><linearGradient id="linear-gradient-5" x1="346.63" y1="188.76" x2="361.09" y2="188.76" gradientTransform="translate(18.32 -92.67) rotate(2.09)" gradientUnits="userSpaceOnUse"><stop offset="0" stop-color="#bad2d6"/><stop offset="0.36" stop-color="#bad2d6" stop-opacity="0.95"/><stop offset="1" stop-color="#c8c7a4" stop-opacity="0"/></linearGradient><linearGradient id="linear-gradient-6" x1="287.2" y1="259.04" x2="314.07" y2="259.04" gradientTransform="translate(18.32 -92.67) rotate(2.09)" xlink:href="#linear-gradient-4"/></defs><title>weapon_2.4-01</title><g id="weapon_2.4"><path class="cls-1" d="M473.85,26.54a143.91,143.91,0,0,1-6.42,22.4A142.54,142.54,0,0,1,457.1,70.58l-26.46,29.87-26.45,29.84c1.26-1.42-2.52,2.85-3.79,4.27,0,0-3.44,3.84-17.94,12.7C362.62,160.76,358,165,358,165a85.9,85.9,0,0,0-15.59,19.33q-3.71,10.48-7.42,21c-3.28.71-10.35,1.71-16.83-2.07a18.5,18.5,0,0,1-2.72-1.93Z"/><polygon class="cls-2" points="468.33 33.7 456.12 67.06 412.99 114.63 399.6 109.53 468.33 33.7"/><line class="cls-3" x1="473.85" y1="26.54" x2="315.45" y2="201.31"/><path class="cls-4" d="M473.85,26.54c-12.28,15.4-25,30.4-37.87,45.26-6.4,7.47-13,14.79-19.43,22.19l-19.68,22q-19.78,21.87-40.09,43.25c-13.52,14.27-27.21,28.4-41.33,42.12,12.27-15.4,25-30.4,37.86-45.26s25.9-29.58,39.12-44.13l19.92-21.74c6.72-7.17,13.37-14.41,20.17-21.51C446.05,54.4,459.73,40.27,473.85,26.54Z"/><path class="cls-5" d="M460.48,14.77a142.52,142.52,0,0,0-42.18,21L391.17,65l-27.1,29.24c1.29-1.39-2.6,2.78-3.88,4.19,0,0-3.48,3.8-10.88,19.1-11.49,21.07-15.26,26.07-15.26,26.07A86.1,86.1,0,0,1,316.34,161l-20.15,9.44,5.89,19.07Z"/><path class="cls-6" d="M371.86,88.28l-13.65,15.38q-.56,12.87-1.13,25.74l15.14-18.48Z"/><path class="cls-7" d="M438.83,23.35a144,144,0,0,0-20.53,12.4L391.17,65l-27.1,29.24c1.29-1.39-2.6,2.78-3.88,4.19,0,0-3.48,3.8-10.88,19.1-11.49,21.07-15.26,26.07-15.26,26.07A86.1,86.1,0,0,1,316.34,161l-20.15,9.44.93,3,24.78-13.86,13.89-14.86L360,102.39l59.29-62.1,35.73-19.53,5.42-6A143,143,0,0,0,438.83,23.35Z"/><path class="cls-8" d="M323.2,165a47.31,47.31,0,0,1-18.06,7.64,46.61,46.61,0,0,1-8,.82,12.39,12.39,0,0,0-.65,9.52,12.24,12.24,0,0,0,5.61,6.53Z"/><path class="cls-9" d="M304.69,223l1.64-2.89c3.19-5.62,5.76-10.1,7.43-13L305,200.6l-7.5-7.86c-2.68,2-6.81,5.14-12,9l-2.67,2c-12.8,9.68-16.59,14.27-18.07,16.15-.55.7-1.46,1.89-2.5,3.46a26.56,26.56,0,0,0,3.47,21.81h0a26.51,26.51,0,0,0,22.07.7c1.42-1.24,2.49-2.29,3.12-2.93C292.63,241.23,296.7,236.89,304.69,223Z"/><path class="cls-10" d="M287.83,245.86c1.42-1.24,2.49-2.29,3.12-2.93,1.68-1.7,5.75-6,13.74-20l1.64-2.89c3.19-5.62,5.76-10.1,7.43-13L305,200.6h0c-1.75,6.78-7,23.09-22.42,35.21a61.81,61.81,0,0,1-16.83,9.35,26.51,26.51,0,0,0,22.07.7Z"/><path class="cls-11" d="M306.79,198.57a96,96,0,0,1-8.65-23.35,82,82,0,0,1-2-20.88,25.57,25.57,0,0,0-10,1.6c-12.57,4.87-14.65,18.92-15,21.31a25.71,25.71,0,0,1,14.92,6.08c8.5,7.61,11.07,21.9,4.36,33.82Z"/><path class="cls-11" d="M306.77,198.55A95.66,95.66,0,0,0,331,204.19a82.13,82.13,0,0,0,21-.62,25.61,25.61,0,0,1-.33,10.12c-3.25,13.09-16.92,16.93-19.25,17.54a25.66,25.66,0,0,0-7.91-14c-8.62-7.48-23.12-8.23-34.1-.07Z"/><path class="cls-12" d="M302.75,204.18s-3.3,5.38-11.14,12.1l2.57-1.49c1.7-1,18.69-7.58,30.32,2.41a25.15,25.15,0,0,1,7.91,14c1.75-.38,12.19-2.79,17.3-12.49a23.31,23.31,0,0,0,2.63-10.52l-28.85-4.14-19.16-2.75h0C304,201.9,303.51,202.94,302.75,204.18Z"/><path class="cls-13" d="M324.07,179l-11.64-1.16-15,17v14.36l14.25-1.8,15-17Q325.37,184.66,324.07,179Z"/><polygon class="cls-14" points="312.43 177.8 297.4 194.85 297.41 209.21 311.66 207.41 326.69 190.36 315.28 188.93 312.43 177.8"/><polygon points="324.06 178.96 297.41 209.21 311.66 207.41 326.69 190.36 324.06 178.96"/></g></svg>