<svg id="Layer_2" data-name="Layer 2" xmlns="http://www.w3.org/2000/svg" xmlns:xlink="http://www.w3.org/1999/xlink" viewBox="0 0 841.89 595.28"><defs><style>.cls-1{fill:url(#linear-gradient);}.cls-2{fill:url(#linear-gradient-2);}.cls-3{fill:url(#linear-gradient-3);}.cls-4{fill:url(#linear-gradient-4);}.cls-5{fill:#807f62;}.cls-6{fill:url(#linear-gradient-5);}.cls-7{fill:#b5b4b0;}.cls-8{fill:url(#linear-gradient-6);}.cls-9{fill:#403f39;}.cls-10{fill:url(#linear-gradient-7);}.cls-11{fill:url(#linear-gradient-8);}.cls-12{fill:#e36687;}.cls-13{fill:#d00037;}.cls-14{fill:#790024;}</style><linearGradient id="linear-gradient" x1="286.02" y1="162.69" x2="286.02" y2="-84.88" gradientTransform="translate(203.77 -123.29) rotate(42.91)" gradientUnits="userSpaceOnUse"><stop offset="0"/><stop offset="0.48" stop-color="#333"/><stop offset="1" stop-color="#333"/></linearGradient><linearGradient id="linear-gradient-2" x1="305.04" y1="162.69" x2="305.04" y2="-84.88" gradientTransform="translate(203.77 -123.29) rotate(42.91)" gradientUnits="userSpaceOnUse"><stop offset="0.47"/><stop offset="0.86" stop-color="#8b8b87"/><stop offset="1"/></linearGradient><linearGradient id="linear-gradient-3" x1="305.46" y1="31.45" x2="299" y2="-75.59" gradientTransform="translate(203.77 -123.29) rotate(42.91)" gradientUnits="userSpaceOnUse"><stop offset="0" stop-color="#39392f" stop-opacity="0"/><stop offset="0.3" stop-color="#83836c" stop-opacity="0"/><stop offset="0.53"/><stop offset="0.86"/></linearGradient><linearGradient id="linear-gradient-4" x1="377.49" y1="195.41" x2="392.67" y2="195.41" gradientTransform="translate(1.6 -100.8) rotate(2.81)" gradientUnits="userSpaceOnUse"><stop offset="0" stop-color="#999"/><stop offset="0.36" stop-color="#999" stop-opacity="0.95"/><stop offset="1" stop-color="#c8c7a4" stop-opacity="0"/></linearGradient><linearGradient id="linear-gradient-5" x1="307.28" y1="106.41" x2="480.22" y2="106.41" gradientUnits="userSpaceOnUse"><stop offset="0.09" stop-color="#272f2b"/><stop offset="0.37" stop-color="#686860"/><stop offset="0.74" stop-color="#dee4e6"/></linearGradient><linearGradient id="linear-gradient-6" x1="315.11" y1="269.18" x2="343.31" y2="269.18" gradientTransform="translate(1.6 -100.8) rotate(2.81)" xlink:href="#linear-gradient"/><linearGradient id="linear-gradient-7" x1="281.19" y1="186.91" x2="309.5" y2="186.91" gradientTransform="matrix(1, 0, 0, 1, 0, 0)" xlink:href="#linear-gradient"/><linearGradient id="linear-gradient-8" x1="293.81" y1="210.35" x2="347.51" y2="210.35" gradientTransform="matrix(1, 0, 0, 1, 0, 0)" xlink:href="#linear-gradient"/></defs><title>weapon_2.5-01</title><g id="weapon_2.5"><path class="cls-1" d="M478,15.74a149.31,149.31,0,0,0-22.84,8.72A150.9,150.9,0,0,0,433.48,37.2L404.62,67.56,375.79,97.9c1.37-1.45-2.76,2.89-4.13,4.34,0,0-3.7,3.94-11.66,19.91-12.34,22-16.36,27.15-16.36,27.15a90.07,90.07,0,0,1-18.82,18L303.55,177l5.93,20.08Z"/><path class="cls-2" d="M478,15.74a150.07,150.07,0,0,1-7,23.41,149,149,0,0,1-11.12,22.58l-28.17,31-28.15,31c1.34-1.48-2.67,3-4,4.43,0,0-3.66,4-19,13.09-21,13.91-25.9,18.3-25.9,18.3A90,90,0,0,0,338,179.61L330,201.53c-3.45.7-10.89,1.66-17.64-2.39a20.44,20.44,0,0,1-2.83-2.06Z"/><polygon class="cls-3" points="472.14 23.17 458.88 58.02 413 107.39 399 101.86 472.14 23.17"/><path class="cls-4" d="M384.05,91.73l-14.53,16q-.76,13.5-1.52,27l16.13-19.2Q384.09,103.61,384.05,91.73Z"/><line class="cls-5" x1="478.03" y1="15.74" x2="309.48" y2="197.08"/><path class="cls-6" d="M478,15.74c-13.14,16-26.71,31.51-40.43,46.92-6.82,7.75-13.8,15.34-20.7,23L396,108.45q-21,22.69-42.62,44.89c-14.37,14.81-28.89,29.48-43.85,43.74,13.13-16,26.7-31.52,40.42-46.93s27.6-30.68,41.66-45.78l21.19-22.56c7.14-7.44,14.21-15,21.43-22.32C448.55,44.67,463.07,30,478,15.74Z"/><path class="cls-7" d="M455.19,24.46A150.9,150.9,0,0,0,433.48,37.2L404.62,67.56,375.79,97.9c1.37-1.45-2.76,2.89-4.13,4.34,0,0-3.7,3.94-11.66,19.91-12.34,22-16.36,27.15-16.36,27.15a90.07,90.07,0,0,1-18.82,18L303.55,177l.94,3.17L330.67,166l14.78-15.41,26-44.16,63-64.4,37.75-20L478,15.74A149.31,149.31,0,0,0,455.19,24.46Z"/><path class="cls-8" d="M332,171.63a49.64,49.64,0,0,1-19.06,7.79,47.77,47.77,0,0,1-8.42.75,13,13,0,0,0-.81,10,12.85,12.85,0,0,0,5.8,6.93Z"/><path class="cls-9" d="M307,222.65c.3-.51.07-.13,1.77-3,3.42-5.85,6.17-10.52,8-13.56l-9.09-6.89-7.78-8.35c-2.84,2.09-7.21,5.3-12.69,9.29l-2.82,2.06c-13.56,10-17.61,14.75-19.18,16.71-.59.73-1.56,2-2.68,3.6a27.88,27.88,0,0,0,3.36,22.93h0a27.91,27.91,0,0,0,23.16,1c1.51-1.28,2.64-2.37,3.31-3C294.06,241.66,298.38,237.15,307,222.65Z"/><path d="M289,246.45c1.51-1.28,2.64-2.37,3.31-3,1.79-1.76,6.11-6.27,14.68-20.77.3-.51.07-.13,1.77-3,3.42-5.85,6.17-10.52,8-13.56l-9.09-6.89h0c-1.93,7.09-7.65,24.14-24,36.65a64.24,64.24,0,0,1-17.79,9.59,27.91,27.91,0,0,0,23.16,1Z"/><path class="cls-10" d="M309.5,197.09a71.22,71.22,0,0,1-4.91-37.7,23.83,23.83,0,0,0-8.66,2.13c-11.15,5.15-14.25,17.51-14.74,19.61,2.7,0,8.05.46,12.12,4.21,6.51,6,7.35,18.24.52,29.09Z"/><path class="cls-11" d="M309.49,197.07a71.11,71.11,0,0,0,38,1.08,23.84,23.84,0,0,1-1.24,8.83c-4,11.62-16,16-18,16.65-.27-2.69-1.27-8-5.4-11.63-6.63-5.87-18.9-5.47-29,2.42Z"/><path d="M307.82,200a46.83,46.83,0,0,1-11.67,12.72c9.6-6.25,20.53-6.19,26.66-.77,4.14,3.67,5.13,8.94,5.41,11.63,2-.7,14-5,18-16.65a23.84,23.84,0,0,0,1.24-8.83,70.78,70.78,0,0,1-17.9,2.07,71.56,71.56,0,0,1-20.07-3.13h0C309,198.06,308.43,199.05,307.82,200Z"/><path class="cls-12" d="M323.4,181.68l-7.31.26-11.37,12.58-1.5,9.49,9.29-2.45L323.88,189Z"/><polygon class="cls-13" points="316.09 181.94 304.72 194.53 303.23 204.01 312.51 201.56 323.88 188.98 316.75 189.04 316.09 181.94"/><polygon class="cls-14" points="323.4 181.68 303.23 204.01 312.51 201.56 323.88 188.98 323.4 181.68"/></g></svg>