<svg id="Layer_2" data-name="Layer 2" xmlns="http://www.w3.org/2000/svg" viewBox="0 0 841.89 595.28"><defs><style>.cls-1{fill:#9e6b2a;}.cls-2{fill:#d4a466;}.cls-3{fill:#c68633;}.cls-4{fill:#007de1;}.cls-5{fill:#60ebff;}.cls-6{fill:#005ea9;}.cls-7{fill:#47b0bf;}.cls-8{fill:#784400;}.cls-9{fill:#f1e1cc;}</style></defs><title>weapon_1.3-01</title><g id="weapon_2.3"><path class="cls-1" d="M235.17,245.64l5.44-5.66a91.62,91.62,0,0,1,27,25.94l-5.44,5.66Z"/><path class="cls-2" d="M240.61,240a33,33,0,0,0,27,25.94q-3.24,3.38-6.49,6.74a35.09,35.09,0,0,1-26.95-25.94Z"/><path class="cls-2" d="M246.6,245.89a22.71,22.71,0,0,0,15,14.66L317,202.39c17.57-11.22,35.85-23.95,54.45-38.41A724.57,724.57,0,0,0,479.77,60,42.9,42.9,0,0,0,466.1,38.29a42.34,42.34,0,0,0-17.89-8.84A776.61,776.61,0,0,0,340.92,137.37c-13.23,16.22-25.19,32.24-36,47.83Z"/><path class="cls-3" d="M261.55,260.61,317,202.45c17.57-11.22,35.84-23.95,54.45-38.41A725.06,725.06,0,0,0,479.77,60.1,42.9,42.9,0,0,0,466.1,38.35a42.08,42.08,0,0,0-5.7-4Q462,49.71,462,49.71L442.67,74.54s-41.76,47.12-48,54.17l-44.05,36h0L315.8,191.27h0c-.48.46-2.79,2.71-4.9,5.07-2.73,3-4.94,6-4.94,6l-13.71,14.14-18.85,17.55L251.24,254a22.36,22.36,0,0,0,10.31,6.66Z"/><path class="cls-4" d="M335.4,144.33a58.69,58.69,0,0,1,13.54-1.62c7.67.23,13.4,2.2,13.52,1.78s-9.81-5.06-20.66-8.09l-.65.79Q338.23,140.76,335.4,144.33Z"/><path class="cls-4" d="M388.51,150.35c-2.91-10-8-18.07-15.21-19.94-7.73-2-17.12,3.31-17,3.79,0,.14,4.47-1.57,8.67-.2,6.59,2.15,11.05,11.4,10.91,18.3-.08,4.3-2,8.4-4.91,12.12l.72-.56Q380.32,157.14,388.51,150.35Z"/><path class="cls-4" d="M342.3,154.24c0-.11-7.07-.87-13.78-1.13l-1.72,2.22C334.44,152.66,342.3,154.36,342.3,154.24Z"/><path class="cls-4" d="M246.83,245.71a22.76,22.76,0,0,0,14.95,14.72L316.89,202q8.73-5.69,17.54-11.57,9.1-6.07,18-12.14c-8.47,4-16.47,5.53-18.57,3.24-2.33-2.53,1.34-11,6.35-15.68,2.57-2.4,5.27-3.53,10.66-5.8,8-3.38,13.77-4.38,13.66-5s-4-.33-7.68.11-17,2-27.91,9.32C313.27,175,310.62,192,308.4,191.2c-1.23-.47-.84-5.87,1.16-12.49-1.49,2.11-3,4.21-4.42,6.31Z"/><path class="cls-5" d="M317,202.45c1.81-1.35,3.75-2.74,5.84-4.12s4.14-2.65,6.1-3.8a112.89,112.89,0,0,0-1.53-14.5c-.94-5.54-1.42-5.91-1.64-5.9-.69,0,1.24,8.37-3.15,15.75-5.47,9.22-14.53,6.37-23.46,14.76-10.76,10.12-11,26.82-12.24,29.38Z"/><path class="cls-5" d="M251.28,254a22.52,22.52,0,0,0,5.23,4.39,23.07,23.07,0,0,0,5,2.26h0l25-26.26h-.08c-.72-.12-.31-3.55-.81-8a43.82,43.82,0,0,0-5.14-15.84l-3.52,3.66c1.19,5.06,1.84,11.33-.85,17.23-5.38,11.83-19.22,11.21-27.57,18.9a22.39,22.39,0,0,0,2.61,3.6Z"/><path class="cls-5" d="M386.29,147.58c-5.8-7.28-11.22-12.32-11.47-12.1s3.44,2.87,5.06,8a17.88,17.88,0,0,1-3.24,16.59q3-2.29,6-4.79c2-1.65,3.95-3.3,5.82-4.92C387.92,149.66,387.19,148.7,386.29,147.58Z"/><path class="cls-6" d="M370.93,164.38l.72-.55q2.6-2,5.14-4a21,21,0,0,0,3-6.19,19,19,0,0,0,.06-10.14,15.73,15.73,0,0,0-.77-2l-4.51,3.69a20.68,20.68,0,0,1,1.25,7.16C375.76,156.57,373.86,160.67,370.93,164.38Z"/><path class="cls-6" d="M386.29,147.55c.93,1.15,1.62,2.06,2.16,2.82l.06-.05a43.8,43.8,0,0,0-5.42-12.16l-2.87,2.35C382,142.46,384.15,144.87,386.29,147.55Z"/><path class="cls-7" d="M380.21,140.52l-1.1.92a15.8,15.8,0,0,1,.76,2.08,18.66,18.66,0,0,1-.06,10.27,19.19,19.19,0,0,1-3.17,6.29c2-1.51,4-3.1,6-4.77s4-3.32,5.84-5c-.25-.34-.6-.8-1-1.34-.23-.29-1.07-1.37-2.33-2.86C383.14,143.74,380.83,141.2,380.21,140.52Z"/><path class="cls-6" d="M364.5,155.08c0-.2-.69-.29-1.7-.3l-2.19,1.79C363.1,155.8,364.55,155.38,364.5,155.08Z"/><path class="cls-6" d="M329,194.53q11.57-7.71,23.43-16.29c-8.46,4-16.46,5.54-18.56,3.25-.69-.75-.84-2-.6-3.56l-5.47,4.18C328.25,185.52,328.71,189.8,329,194.53Z"/><path class="cls-7" d="M324.86,184.32a20.36,20.36,0,0,1-2.22,5.49c-3.48,5.85-8.4,6.84-13.81,8.93-1.65,2-2.79,3.54-2.79,3.54l-13.71,14.14-1.49,1.39c-2.75,7.52-3.14,14.55-3.91,16.14l30-31.49.08-.08.05,0h0l.13-.14q5.84-3.72,11.76-7.67c-.25-4.73-.7-9-1.21-12.42Z"/><path class="cls-6" d="M322.65,189.81a20.27,20.27,0,0,0,2.23-5.49l-9,6.85h0c-.47.46-2.78,2.71-4.9,5.07-.77.86-1.49,1.71-2.14,2.49C314.26,196.66,319.18,195.66,322.65,189.81Z"/><path class="cls-6" d="M285.19,223.08c.21,1.07.4,2.16.53,3.27.5,4.42.09,7.84.81,8,0,0,.05,0,.08,0l.31-.33c.77-1.59,1.16-8.62,3.9-16.14Z"/><path class="cls-7" d="M264.7,241.9l-13.46,12a22.23,22.23,0,0,0,10.34,6.66l25-26.29-.08,0c-.72-.13-.31-3.55-.81-8-.13-1.11-.32-2.19-.53-3.26l-9,8.4C273.68,236.92,269.4,239.71,264.7,241.9Z"/><path class="cls-6" d="M276.09,231.56c-1.62,1.52-2.7,2.51-2.7,2.51L264.61,242C269.31,239.77,273.59,237,276.09,231.56Z"/><path class="cls-3" d="M244.07,263.78a35.3,35.3,0,0,0,17,8.88q3.26-3.36,6.49-6.74a33.3,33.3,0,0,1-17.68-9c.69,2.43.91,4.73-.24,5.84s-3.64.95-6.92-.36C243.16,262.89,243.6,263.34,244.07,263.78Z"/><path class="cls-8" d="M435.73,68.56a110.28,110.28,0,0,1-7.34-9A99.36,99.36,0,0,1,423,51.27c-1.24,1.12-2.49,2.23-3.73,3.37a99.3,99.3,0,0,0,12.56,17,99.31,99.31,0,0,0,21.8,17.77l1.6-1.69c.56-.6,1.11-1.2,1.67-1.79A111.23,111.23,0,0,1,435.73,68.56Z"/><path class="cls-8" d="M441.75,61.62c-3.69-4-6.91-8.38-6.91-8.38-2-2.73-3.74-5.38-5.22-7.86l-3.76,3.31a99,99,0,0,0,12,16,99.77,99.77,0,0,0,22.06,18l1.58-1.72,1.68-1.84C460.18,77.16,449.84,70.38,441.75,61.62Z"/><polygon class="cls-9" points="375.83 102.47 410.8 68.31 421.06 65.97 418.62 73.33 385.04 105.78 372.69 110.4 375.83 102.47"/><polygon class="cls-9" points="394 103.36 399.4 97.06 404.67 97.17 404.6 100.37 399.22 105.75 393.9 107.87 394 103.36"/></g></svg>