<svg id="Layer_2" data-name="Layer 2" xmlns="http://www.w3.org/2000/svg" viewBox="0 0 841.89 595.28"><defs><style>.cls-1{fill:#916b26;}.cls-2{fill:#ce9736;}.cls-3{fill:#ff9600;}.cls-4{fill:#ffd219;}.cls-5{fill:#bf7100;}.cls-6{fill:#bf9e12;}.cls-7{fill:#9e7329;}.cls-8{fill:#6d501c;}.cls-9{fill:#ebd5af;}.cls-10{fill:#e2c186;}</style></defs><title>weapon_1.1-01</title><g id="weapon_1.1"><path class="cls-1" d="M235.35,245.58l5.45-5.66a91.09,91.09,0,0,1,26.95,25.94l-5.44,5.66Z"/><path class="cls-2" d="M240.8,239.92a33,33,0,0,0,26.95,25.94l-6.48,6.74a35.09,35.09,0,0,1-27-25.94Q237.55,243.29,240.8,239.92Z"/><path class="cls-2" d="M246.79,245.82a22.69,22.69,0,0,0,4.63,8.07,23,23,0,0,0,10.31,6.59l55.43-58.15c17.58-11.22,35.85-24,54.45-38.42A724.57,724.57,0,0,0,480,60a42.75,42.75,0,0,0-13.67-21.75,42.23,42.23,0,0,0-17.89-8.84A778.27,778.27,0,0,0,341.1,137.3c-13.23,16.22-25.19,32.24-36,47.83Z"/><path class="cls-1" d="M261.73,260.54l55.43-58.15c17.58-11.22,35.85-24,54.45-38.41A725.1,725.1,0,0,0,480,60a42.77,42.77,0,0,0-13.67-21.74,41.32,41.32,0,0,0-5.7-4q1.6,15.39,1.61,15.38L442.85,74.47l-48,54.17-44.05,36h0L316,191.21h0c-.48.46-2.78,2.71-4.9,5.07-2.72,3-4.94,6-4.94,6l-13.71,14.15L273.58,234l-22.16,19.88a22.6,22.6,0,0,0,5.24,4.38A22.37,22.37,0,0,0,261.73,260.54Z"/><path class="cls-3" d="M335.59,144.26a59.33,59.33,0,0,1,13.54-1.62c7.66.24,13.39,2.21,13.51,1.79.17-.57-9.81-5.07-20.65-8.1l-.66.79Q338.42,140.7,335.59,144.26Z"/><path class="cls-3" d="M388.7,150.28c-2.92-10-8.05-18.07-15.22-19.94-7.72-2-17.12,3.32-17,3.79,0,.15,4.47-1.56,8.66-.2,6.59,2.15,11.06,11.4,10.92,18.3-.09,4.31-2,8.4-4.92,12.12l.73-.55Q380.51,157.07,388.7,150.28Z"/><path class="cls-3" d="M342.49,154.18c0-.11-7.08-.87-13.79-1.13L327,155.26C334.62,152.59,342.48,154.29,342.49,154.18Z"/><path class="cls-3" d="M247,245.64a22.85,22.85,0,0,0,4.63,8.07,22.6,22.6,0,0,0,5.24,4.38,22.92,22.92,0,0,0,5.07,2.28q27.56-29.22,55.12-58.42,8.71-5.69,17.53-11.57,9.11-6.07,18-12.13c-8.46,4-16.46,5.53-18.57,3.24-2.32-2.53,1.35-11,6.35-15.69,2.57-2.39,5.27-3.53,10.67-5.8,8-3.38,13.76-4.38,13.65-5s-4-.33-7.67.11-17,2-27.92,9.32c-15.64,10.44-18.28,27.53-20.51,26.69-1.23-.47-.83-5.87,1.17-12.48-1.5,2.1-3,4.21-4.43,6.3Z"/><path class="cls-4" d="M317.2,202.39c1.8-1.36,3.75-2.74,5.83-4.13s4.14-2.65,6.1-3.8a112.75,112.75,0,0,0-1.52-14.5c-.95-5.53-1.43-5.91-1.64-5.9-.69,0,1.23,8.37-3.15,15.75-5.48,9.22-14.53,6.38-23.47,14.77-10.76,10.11-11,26.81-12.24,29.37Z"/><path class="cls-4" d="M251.46,253.89a22.73,22.73,0,0,0,5.23,4.38,22.34,22.34,0,0,0,5,2.26l0,0,25-26.27s-.05,0-.07,0c-.73-.12-.31-3.54-.82-8a43.75,43.75,0,0,0-5.14-15.84l-3.52,3.66c1.19,5,1.84,11.33-.84,17.22-5.39,11.83-19.22,11.21-27.57,18.91a21.74,21.74,0,0,0,2.61,3.59Z"/><path class="cls-4" d="M386.48,147.51c-5.81-7.28-11.23-12.32-11.47-12.09s3.43,2.86,5.06,8a18.11,18.11,0,0,1,.1,10.18,17.9,17.9,0,0,1-3.35,6.4c2-1.53,4-3.12,6-4.79s3.95-3.29,5.82-4.92C388.11,149.6,387.37,148.64,386.48,147.51Z"/><path class="cls-5" d="M371.11,164.32l.72-.55c1.73-1.35,3.44-2.7,5.15-4.05a21.34,21.34,0,0,0,3-6.19,18.87,18.87,0,0,0,.05-10.13,14.54,14.54,0,0,0-.77-2.05L374.77,145A21,21,0,0,1,376,152.2C375.94,156.51,374.05,160.6,371.11,164.32Z"/><path class="cls-5" d="M386.48,147.48c.92,1.15,1.61,2.06,2.15,2.82l.07-.05a44.16,44.16,0,0,0-5.42-12.15l-2.87,2.34C382.22,142.39,384.34,144.8,386.48,147.48Z"/><path class="cls-6" d="M380.4,140.46l-1.11.92a15.65,15.65,0,0,1,.77,2.07,18.9,18.9,0,0,1-.06,10.28,19.13,19.13,0,0,1-3.18,6.28q3-2.26,6-4.77c2-1.66,4-3.32,5.85-5l-1-1.34c-.23-.29-1.07-1.37-2.33-2.86C383.32,143.68,381,141.14,380.4,140.46Z"/><path class="cls-5" d="M364.68,155c0-.2-.69-.29-1.69-.3l-2.19,1.79C363.28,155.73,364.74,155.32,364.68,155Z"/><path class="cls-5" d="M329.13,194.46q11.56-7.69,23.44-16.28c-8.47,4-16.47,5.53-18.57,3.24a4.26,4.26,0,0,1-.6-3.55L327.93,182C328.43,185.46,328.89,189.73,329.13,194.46Z"/><path class="cls-6" d="M325,184.25a19.92,19.92,0,0,1-2.22,5.49c-3.48,5.85-8.39,6.85-13.8,8.93-1.65,2-2.79,3.54-2.79,3.54l-13.72,14.14L291,217.74c-2.75,7.53-3.13,14.56-3.9,16.14l30-31.48.08-.08.05,0h0l.13-.14q5.83-3.72,11.76-7.68c-.24-4.73-.7-9-1.2-12.42Z"/><path class="cls-5" d="M322.84,189.75a20.49,20.49,0,0,0,2.22-5.49l-9,6.85h0c-.48.46-2.79,2.71-4.9,5.07-.77.85-1.5,1.7-2.15,2.49C314.44,196.59,319.36,195.6,322.84,189.75Z"/><path class="cls-5" d="M285.37,223c.22,1.07.41,2.16.53,3.27.51,4.42.09,7.84.82,8,0,0,0,0,.07,0l.31-.33c.77-1.58,1.16-8.61,3.91-16.14Z"/><path class="cls-6" d="M264.88,241.83l-13.46,12.06a22.85,22.85,0,0,0,5.24,4.38,22.4,22.4,0,0,0,5.11,2.28q12.51-13.16,25-26.29s-.05,0-.07,0c-.73-.12-.31-3.54-.82-8-.12-1.11-.31-2.2-.53-3.27l-9,8.4C273.86,236.86,269.59,239.65,264.88,241.83Z"/><path class="cls-5" d="M276.27,231.5,273.58,234l-8.78,7.88C269.5,239.7,273.78,236.91,276.27,231.5Z"/><path class="cls-7" d="M244.25,263.72a35.32,35.32,0,0,0,17,8.88l6.48-6.74a33.34,33.34,0,0,1-17.68-9c.7,2.43.91,4.74-.24,5.85s-3.64.95-6.91-.36C243.34,262.83,243.79,263.27,244.25,263.72Z"/><path class="cls-8" d="M435.91,68.49a108.42,108.42,0,0,1-7.34-9,96.66,96.66,0,0,1-5.41-8.33l-3.74,3.37a99.45,99.45,0,0,0,12.57,17,99.29,99.29,0,0,0,21.8,17.76l1.59-1.69c.56-.6,1.12-1.19,1.67-1.79A110.83,110.83,0,0,1,435.91,68.49Z"/><path class="cls-8" d="M441.94,61.55c-3.69-4-6.92-8.38-6.92-8.38-2-2.73-3.73-5.37-5.22-7.86L426,48.63a98.93,98.93,0,0,0,12,15.95,99.5,99.5,0,0,0,22.07,18l1.57-1.71L463.33,79C460.36,77.09,450,70.31,441.94,61.55Z"/><polygon class="cls-9" points="376.01 102.4 410.98 68.24 421.24 65.9 418.8 73.26 385.23 105.72 372.87 110.33 376.01 102.4"/><polygon class="cls-10" points="394.18 103.29 399.58 97 404.85 97.11 404.78 100.31 399.4 105.69 394.09 107.81 394.18 103.29"/></g></svg>