<svg id="Layer_2" data-name="Layer 2" xmlns="http://www.w3.org/2000/svg" xmlns:xlink="http://www.w3.org/1999/xlink" viewBox="0 0 841.89 595.28"><defs><style>.cls-1{fill:url(#linear-gradient);}.cls-2{fill:url(#linear-gradient-2);}.cls-3{fill:url(#linear-gradient-3);}.cls-4{fill:url(#linear-gradient-4);}.cls-5{fill:#807f62;}.cls-6{fill:url(#linear-gradient-5);}.cls-7{fill:#ebeadc;}.cls-8{fill:url(#linear-gradient-6);}.cls-9{fill:#695233;}.cls-10{fill:#4f3e26;}.cls-11{fill:#d2ab33;}.cls-12{fill:#957100;}.cls-13{fill:#de335c;}.cls-14{fill:#ab3350;}.cls-15{fill:#960024;}</style><linearGradient id="linear-gradient" x1="286" y1="162.69" x2="286" y2="-84.89" gradientTransform="translate(203.77 -123.29) rotate(42.91)" gradientUnits="userSpaceOnUse"><stop offset="0" stop-color="#707065"/><stop offset="0.69" stop-color="#c7c6a4"/><stop offset="1" stop-color="#cccba8"/></linearGradient><linearGradient id="linear-gradient-2" x1="305.02" y1="162.69" x2="305.02" y2="-84.89" gradientTransform="translate(203.77 -123.29) rotate(42.91)" gradientUnits="userSpaceOnUse"><stop offset="0.47" stop-color="#39392f"/><stop offset="0.86" stop-color="#99987e"/><stop offset="1" stop-color="#99987e"/></linearGradient><linearGradient id="linear-gradient-3" x1="305.43" y1="31.44" x2="298.97" y2="-75.6" gradientTransform="translate(203.77 -123.29) rotate(42.91)" gradientUnits="userSpaceOnUse"><stop offset="0" stop-color="#39392f" stop-opacity="0"/><stop offset="0.3" stop-color="#83836c" stop-opacity="0"/><stop offset="0.39" stop-color="#83836c" stop-opacity="0.44"/><stop offset="0.49" stop-color="#84836d" stop-opacity="0.84"/><stop offset="0.53" stop-color="#84836d"/><stop offset="0.56" stop-color="#7c7b66"/><stop offset="0.76" stop-color="#4f4e41"/><stop offset="0.86" stop-color="#3d3d32"/></linearGradient><linearGradient id="linear-gradient-4" x1="377.48" y1="195.39" x2="392.65" y2="195.39" gradientTransform="translate(1.6 -100.8) rotate(2.81)" gradientUnits="userSpaceOnUse"><stop offset="0" stop-color="#ebeadc"/><stop offset="0.28" stop-color="#e8e7d8" stop-opacity="0.95"/><stop offset="0.44" stop-color="#dfdeca" stop-opacity="0.69"/><stop offset="0.69" stop-color="#d3d2b6" stop-opacity="0.32"/><stop offset="0.87" stop-color="#cbcaa9" stop-opacity="0.09"/><stop offset="0.95" stop-color="#c8c7a4" stop-opacity="0"/><stop offset="1" stop-color="#cccbaa" stop-opacity="0.03"/><stop offset="1" stop-color="#cac9a5" stop-opacity="0"/></linearGradient><linearGradient id="linear-gradient-5" x1="309.47" y1="197.06" x2="478.01" y2="15.71" gradientUnits="userSpaceOnUse"><stop offset="0.16" stop-color="#39392f"/><stop offset="0.52" stop-color="#99987e"/><stop offset="0.74" stop-color="#ebeadc"/></linearGradient><linearGradient id="linear-gradient-6" x1="315.09" y1="269.16" x2="343.3" y2="269.16" gradientTransform="translate(1.6 -100.8) rotate(2.81)" xlink:href="#linear-gradient"/></defs><title>weapon_2.1-01</title><g id="weapon_2.1"><path class="cls-1" d="M478,15.71a151.31,151.31,0,0,0-22.84,8.73,148.92,148.92,0,0,0-21.7,12.74L404.61,67.54,375.78,97.88c1.37-1.45-2.76,2.88-4.13,4.34,0,0-3.7,3.94-11.67,19.9-12.34,22-16.36,27.16-16.36,27.16a90,90,0,0,1-18.81,18L303.54,177l5.93,20.09Z"/><path class="cls-2" d="M478,15.71a149.26,149.26,0,0,1-7,23.42,149.51,149.51,0,0,1-11.12,22.58l-28.17,31-28.15,31c1.34-1.48-2.68,3-4,4.43,0,0-3.66,4-19,13.09-21,13.92-25.89,18.3-25.89,18.3A90.27,90.27,0,0,0,338,179.59l-8.07,21.91c-3.45.71-10.88,1.67-17.63-2.39a19.61,19.61,0,0,1-2.83-2.05Z"/><polygon class="cls-3" points="472.13 23.15 458.87 58 412.99 107.37 398.99 101.84 472.13 23.15"/><path class="cls-4" d="M384,91.7l-14.53,16-1.53,27,16.14-19.19Q384.07,103.59,384,91.7Z"/><line class="cls-5" x1="478.01" y1="15.71" x2="309.47" y2="197.06"/><path class="cls-6" d="M478,15.71c-13.13,16-26.7,31.52-40.42,46.93-6.83,7.74-13.8,15.34-20.71,23l-20.94,22.78q-21.06,22.68-42.62,44.89c-14.37,14.81-28.89,29.48-43.85,43.74,13.13-16,26.7-31.52,40.42-46.93s27.6-30.68,41.65-45.78l21.19-22.56c7.15-7.45,14.21-15,21.44-22.33C448.54,44.65,463.06,30,478,15.71Z"/><path class="cls-7" d="M455.17,24.44a148.92,148.92,0,0,0-21.7,12.74L404.61,67.54,375.78,97.88c1.37-1.45-2.76,2.88-4.13,4.34,0,0-3.7,3.94-11.67,19.9-12.34,22-16.36,27.16-16.36,27.16a90,90,0,0,1-18.81,18L303.54,177l.94,3.18,26.18-14.22,14.78-15.42,26-44.15,63-64.4,37.75-20L478,15.71A151.31,151.31,0,0,0,455.17,24.44Z"/><path class="cls-8" d="M332,171.61a49.82,49.82,0,0,1-19.05,7.79,48.74,48.74,0,0,1-8.42.75,12.56,12.56,0,0,0,5,16.91Z"/><path class="cls-9" d="M306.94,222.63l1.76-3c3.42-5.85,6.17-10.53,8-13.56l-9.1-6.89-7.77-8.36c-2.84,2.1-7.22,5.31-12.69,9.3l-2.83,2.06c-13.56,10-17.6,14.75-19.17,16.7-.59.74-1.56,2-2.68,3.61a27.88,27.88,0,0,0,3.36,22.93h0a27.83,27.83,0,0,0,23.15,1c1.51-1.27,2.65-2.36,3.32-3C294,241.63,298.37,237.13,306.94,222.63Z"/><path class="cls-10" d="M288.94,246.42c1.51-1.27,2.65-2.36,3.32-3,1.78-1.77,6.11-6.27,14.68-20.77l1.76-3c3.42-5.85,6.17-10.53,8-13.56l-9.1-6.89h0c-1.92,7.09-7.64,24.13-24,36.65a64.65,64.65,0,0,1-17.79,9.59,27.83,27.83,0,0,0,23.15,1Z"/><path class="cls-11" d="M309.49,197.06a71.17,71.17,0,0,1-4.91-37.69,23.75,23.75,0,0,0-8.66,2.12c-11.16,5.15-14.25,17.52-14.74,19.62,2.7,0,8.05.46,12.11,4.2,6.52,6,7.36,18.25.53,29.1Z"/><path class="cls-11" d="M309.48,197.05a71.34,71.34,0,0,0,38,1.08,23.84,23.84,0,0,1-1.23,8.83c-4,11.61-16,15.94-18,16.64-.28-2.68-1.27-8-5.41-11.62-6.63-5.88-18.89-5.48-29,2.42Z"/><path class="cls-12" d="M307.8,200a46.9,46.9,0,0,1-11.66,12.71c9.6-6.24,20.53-6.19,26.65-.76,4.14,3.67,5.14,8.94,5.41,11.63,2-.7,14-5,18-16.65a23.84,23.84,0,0,0,1.24-8.83,71.12,71.12,0,0,1-38-1.07h0C309,198,308.42,199,307.8,200Z"/><path class="cls-13" d="M323.38,181.66l-7.3.26L304.7,194.5,303.21,204l9.28-2.44L323.87,189Q323.62,185.31,323.38,181.66Z"/><polygon class="cls-14" points="316.08 181.91 304.7 194.5 303.21 203.98 312.49 201.54 323.87 188.95 316.74 189.01 316.08 181.91"/><polygon class="cls-15" points="323.38 181.66 303.21 203.98 312.49 201.54 323.87 188.95 323.38 181.66"/></g></svg>