<svg id="Layer_2" data-name="Layer 2" xmlns="http://www.w3.org/2000/svg" xmlns:xlink="http://www.w3.org/1999/xlink" viewBox="0 0 841.89 595.28"><defs><style>.cls-1{fill:url(#linear-gradient);}.cls-2{fill:url(#linear-gradient-2);}.cls-3{fill:#807f62;}.cls-4{fill:url(#linear-gradient-3);}.cls-5{fill:url(#linear-gradient-4);}.cls-6{fill:url(#linear-gradient-5);}.cls-7{fill:#b5b4b0;}.cls-8{fill:url(#linear-gradient-6);}.cls-9{fill:#403f39;}.cls-10{fill:url(#linear-gradient-7);}.cls-11{fill:url(#linear-gradient-8);}.cls-12{fill:#e36687;}.cls-13{fill:#d00037;}.cls-14{fill:#790024;}</style><linearGradient id="linear-gradient" x1="293.91" y1="172.46" x2="293.91" y2="-63.41" gradientTransform="translate(220.19 -117.69) rotate(42.19)" gradientUnits="userSpaceOnUse"><stop offset="0.47"/><stop offset="0.86" stop-color="#8b8b87"/><stop offset="1"/></linearGradient><linearGradient id="linear-gradient-2" x1="294.3" y1="47.42" x2="288.15" y2="-54.56" gradientTransform="translate(220.19 -117.69) rotate(42.19)" gradientUnits="userSpaceOnUse"><stop offset="0" stop-color="#39392f" stop-opacity="0"/><stop offset="0.3" stop-color="#83836c" stop-opacity="0"/><stop offset="0.53"/><stop offset="0.86"/></linearGradient><linearGradient id="linear-gradient-3" x1="315.43" y1="201.39" x2="473.84" y2="26.62" gradientUnits="userSpaceOnUse"><stop offset="0.09" stop-color="#272f2b"/><stop offset="0.37" stop-color="#686860"/><stop offset="0.74" stop-color="#dee4e6"/></linearGradient><linearGradient id="linear-gradient-4" x1="296.18" y1="102.23" x2="460.47" y2="102.23" gradientUnits="userSpaceOnUse"><stop offset="0"/><stop offset="0.48" stop-color="#333"/><stop offset="1" stop-color="#333"/></linearGradient><linearGradient id="linear-gradient-5" x1="346.62" y1="188.83" x2="361.08" y2="188.83" gradientTransform="translate(18.32 -92.67) rotate(2.09)" gradientUnits="userSpaceOnUse"><stop offset="0" stop-color="#999"/><stop offset="0.36" stop-color="#999" stop-opacity="0.95"/><stop offset="1" stop-color="#c8c7a4" stop-opacity="0"/></linearGradient><linearGradient id="linear-gradient-6" x1="287.19" y1="259.12" x2="314.06" y2="259.12" gradientTransform="translate(18.32 -92.67) rotate(2.09)" xlink:href="#linear-gradient-4"/><linearGradient id="linear-gradient-7" x1="271.13" y1="185.81" x2="306.78" y2="185.81" xlink:href="#linear-gradient-4"/><linearGradient id="linear-gradient-8" x1="290.39" y1="214.97" x2="352.33" y2="214.97" xlink:href="#linear-gradient-4"/></defs><title>weapon_2.6-01</title><g id="weapon_2.6"><path class="cls-1" d="M473.84,26.62A144.13,144.13,0,0,1,467.42,49a144.12,144.12,0,0,1-10.33,21.65l-26.47,29.86-26.44,29.85c1.26-1.43-2.52,2.85-3.79,4.27,0,0-3.44,3.83-17.94,12.69C362.61,160.84,358,165.07,358,165.07a86,86,0,0,0-15.59,19.34q-3.71,10.49-7.43,21c-3.27.72-10.35,1.72-16.83-2.07a19.59,19.59,0,0,1-2.72-1.92Z"/><polygon class="cls-2" points="468.32 33.77 456.1 67.13 412.98 114.71 399.58 109.61 468.32 33.77"/><line class="cls-3" x1="473.84" y1="26.62" x2="315.43" y2="201.39"/><path class="cls-4" d="M473.84,26.62C461.56,42,448.84,57,436,71.88c-6.39,7.47-12.95,14.79-19.43,22.18l-19.67,22q-19.78,21.86-40.09,43.25c-13.53,14.27-27.21,28.39-41.34,42.12,12.28-15.4,25-30.4,37.87-45.26s25.9-29.59,39.11-44.14l19.93-21.73c6.72-7.18,13.36-14.42,20.17-21.51C446,54.48,459.72,40.35,473.84,26.62Z"/><path class="cls-5" d="M460.47,14.84a143.17,143.17,0,0,0-42.18,21L391.16,65.09c-13.55,14.63-27.11,29.25-27.11,29.25,1.3-1.4-2.59,2.78-3.87,4.18,0,0-3.49,3.8-10.88,19.1C337.8,138.69,334,143.69,334,143.69a86.1,86.1,0,0,1-17.71,17.41l-20.15,9.45,5.89,19.06Z"/><path class="cls-6" d="M371.85,88.36,358.2,103.73q-.57,12.87-1.13,25.75L372.21,111Z"/><path class="cls-7" d="M438.82,23.43a143.44,143.44,0,0,0-20.53,12.39L391.16,65.09c-13.55,14.63-27.11,29.25-27.11,29.25,1.3-1.4-2.59,2.78-3.87,4.18,0,0-3.49,3.8-10.88,19.1C337.8,138.69,334,143.69,334,143.69a86.1,86.1,0,0,1-17.71,17.41l-20.15,9.45.93,3,24.77-13.86,13.9-14.86L360,102.47l59.29-62.1L455,20.83l5.43-6A143.12,143.12,0,0,0,438.82,23.43Z"/><path class="cls-8" d="M323.19,165.1a47.53,47.53,0,0,1-18.06,7.65,45.64,45.64,0,0,1-8,.81,12.41,12.41,0,0,0-.65,9.52,12.19,12.19,0,0,0,5.61,6.53Z"/><path class="cls-9" d="M304.68,223.05l1.64-2.9c3.19-5.61,5.76-10.1,7.43-13L305,200.68l-7.5-7.86c-2.69,2-6.81,5.13-12,9l-2.67,2c-12.8,9.68-16.59,14.26-18.07,16.14-.55.71-1.46,1.9-2.51,3.47a26.48,26.48,0,0,0,3.48,21.8h0a26.51,26.51,0,0,0,22.07.7c1.42-1.23,2.49-2.29,3.12-2.92C292.62,241.31,296.69,237,304.68,223.05Z"/><path d="M287.82,245.93c1.42-1.23,2.49-2.29,3.12-2.92,1.68-1.7,5.75-6,13.74-20l1.64-2.9c3.19-5.61,5.76-10.1,7.43-13L305,200.68h0c-1.75,6.78-7,23.09-22.42,35.2a61.28,61.28,0,0,1-16.83,9.35,26.51,26.51,0,0,0,22.07.7Z"/><path class="cls-10" d="M306.78,198.65a96.46,96.46,0,0,1-8.66-23.36,81.83,81.83,0,0,1-2-20.88,25.75,25.75,0,0,0-10,1.61c-12.57,4.87-14.65,18.92-15,21.3a25.78,25.78,0,0,1,14.92,6.08c8.5,7.61,11.07,21.9,4.36,33.83Z"/><path class="cls-11" d="M306.76,198.63A96.09,96.09,0,0,0,331,204.27a81.61,81.61,0,0,0,21-.63,25.66,25.66,0,0,1-.33,10.13c-3.25,13.08-16.92,16.92-19.25,17.53a25.72,25.72,0,0,0-7.91-14c-8.62-7.47-23.12-8.22-34.1-.06Z"/><path d="M302.74,204.26s-3.3,5.38-11.14,12.1l2.57-1.49c1.7-1,18.69-7.58,30.32,2.4a25.22,25.22,0,0,1,7.91,14c1.75-.37,12.19-2.79,17.3-12.48a23.34,23.34,0,0,0,2.63-10.52l-28.85-4.14-19.17-2.75h0C304,202,303.5,203,302.74,204.26Z"/><path class="cls-12" d="M324.05,179l-11.64-1.17-15,17v14.37l14.25-1.8,15-17.05Q325.37,184.74,324.05,179Z"/><polygon class="cls-13" points="312.41 177.87 297.39 194.92 297.4 209.29 311.65 207.49 326.67 190.44 315.27 189.01 312.41 177.87"/><polygon class="cls-14" points="324.05 179.04 297.4 209.29 311.65 207.49 326.67 190.44 324.05 179.04"/></g></svg>