<svg id="Layer_2" data-name="Layer 2" xmlns="http://www.w3.org/2000/svg" viewBox="0 0 841.89 595.28"><defs><style>.cls-1{fill:#859000;}.cls-2{fill:#b2c000;}.cls-3{fill:#646c00;}</style></defs><title>arm_left-01</title><g id="arm_left"><path class="cls-1" d="M313.15,189.46c-12.38-2.68-29.47,11.4-35.57,27.67-6.85,18.24,1.57,36.13,19.09,71,18.55,36.89,27.83,55.34,38,54.77,19.55-1.08,42.47-60.2,24.82-96.19-4.3-8.75-8.55-9-25.43-33C322.19,196.69,319.89,190.92,313.15,189.46Z"/><path class="cls-2" d="M300.53,194c-8.47,2.81-14.53,11.59-17.86,16.42l-.59.86c-2.58,3.91-10.39,17-5.07,28.55,1.11,2.41,2.21,4.8,4.7,5.92,9,4,25.09-13.51,33.18-27.74,3.91-6.88,8.28-15.22,4.68-20.61S306.44,192,300.53,194Z"/><path class="cls-3" d="M321.62,202.17a36.25,36.25,0,0,1-1.48,15.51,41.87,41.87,0,0,1-19.73,24.11,36.07,36.07,0,0,1-14.93,4.48,81.81,81.81,0,0,0,12.81-7.79,60.48,60.48,0,0,0,10.45-10,59.51,59.51,0,0,0,7.75-12.22A81.34,81.34,0,0,0,321.62,202.17Z"/></g></svg>