<svg id="Layer_2" data-name="Layer 2" xmlns="http://www.w3.org/2000/svg" viewBox="0 0 841.89 595.28"><defs><style>.cls-1{fill:#abaa9c;}.cls-2{fill:#6f4c3b;}</style></defs><title>sleeve_left_cost1-01</title><g id="sleeve_left_cost1"><path class="cls-1" d="M335.92,216.23q-4.11,21.92-8.21,43.82L309,277.55l-16.41,7.91,10.47,15.35,19.27-11.12,17.93-16.37,5.93-18.64,1.56-13.13-1.68-12-4.5-9.36Z"/><path class="cls-2" d="M341.55,219.56a77.55,77.55,0,0,1-13,48.39,76.62,76.62,0,0,1-31.81,26.54,114.5,114.5,0,0,0,30.12,48.38c5.27,2,9.36,2,12.42,1.32,16.14-3.58,27.6-30.09,27.67-66.07q-.57-11.3-1.13-22.59-2.55-7.62-5.08-15.25Z"/></g></svg>