<svg id="Layer_2" data-name="Layer 2" xmlns="http://www.w3.org/2000/svg" xmlns:xlink="http://www.w3.org/1999/xlink" viewBox="0 0 841.89 595.28"><defs><style>.cls-1{fill:#d65a38;}.cls-2{fill:#a31a34;}.cls-3{fill:#b59683;}.cls-4{fill:#7b5c44;}.cls-5{fill:url(#linear-gradient);}.cls-6{fill:#786251;}.cls-7{fill:#554b3f;}.cls-8{fill:#776a61;}.cls-9{fill:#b09c5f;stroke:#756a62;}.cls-10,.cls-11,.cls-12,.cls-9{stroke-linecap:square;stroke-miterlimit:10;}.cls-10,.cls-12,.cls-9{stroke-width:4px;}.cls-10,.cls-11,.cls-12{fill:none;}.cls-10{stroke:#7b5c44;}.cls-11{stroke:#e9d4c3;stroke-width:2px;}.cls-12{stroke:#574e45;}.cls-13{fill:#3b3225;}</style><linearGradient id="linear-gradient" x1="482.36" y1="212.78" x2="539.04" y2="212.78" gradientTransform="translate(36.64 -89.6) rotate(10.24)" gradientUnits="userSpaceOnUse"><stop offset="0.01" stop-color="#776a61"/><stop offset="0.9" stop-color="#b59683"/></linearGradient></defs><title>hat_2.4-01</title><g id="hat_2.4"><path class="cls-1" d="M396.45,200.67a22.11,22.11,0,0,1,2.11-9.38c-1.31.4-2.41.76-3.23,1-20.11,6.65-39.26,24-36.09,33.3,1,3,7.79,5.77,21.3,11.26,13.92,5.66,15,4.64,15.31,4.28,2.13-3-13.49-18.32-13.29-18.5s15,11.73,23.59,16.92c1,.59,3.11,1.85,5.1,1.13,2.5-.9,3.33-4.42,3.82-6.63a28,28,0,0,0,.51-9.13C404.25,220.54,396.45,211.33,396.45,200.67Z"/><path class="cls-2" d="M360.15,227c-.47,1.1,32.81,18.46,35.7,14.13,2.18-3.27-13.33-18.46-13.29-18.5s12.58,13.63,24.75,17.56a6.28,6.28,0,0,0,4.82,0c4.74-2.47,3.22-13.63,3.06-14.82-2.49-18.25-22.95-31.18-25.23-29.18s14,20.56,9.6,25.41c-3.92,4.33-20.94-6-22.77-3-1.58,2.54,10.41,11.14,8.84,13.93C383.59,236.22,360.53,226.12,360.15,227Z"/><path class="cls-3" d="M513,258.41c-1.88,0-18.86-.21-35-7.55-3-1.38-10.83-5.17-18.8-9.45l-2.26-1.23c-1-.54-2-1.07-3.59-1.94-7.4-3.94-13.23-6.79-16-8.16-11.86-5.8-28.23-13.25-32.31-15-19.45-8.43-47.77-13.46-70.53-17.5-15.11-2.68-33.83-6-36-8.75.74-.82,5.46-4.42,33.65-8.7a164.69,164.69,0,0,1,26.8-1.83c9,0,20.59.36,35.19.9,49.48,1.82,57.77,3,65.55,4.68,21.23,4.63,35.76,11.25,42.52,14.79,10.85,5.67,33.43,17.47,39.29,37.4,1.09,3.72,2.92,9.95-.61,14.8-5.41,7.42-19.9,7.51-27.68,7.55Z"/><path class="cls-4" d="M358.88,180.29c9,0,20.54.36,35.11.9,49.32,1.82,57.54,3,65.21,4.64,21,4.57,35.34,11.11,42,14.6,10.6,5.55,32.67,17.08,38.29,36.19,1.34,4.56,2.42,9.32-.31,13.06-4.82,6.61-18.64,6.69-26.09,6.73H513c-1.83,0-18.41-.2-34.22-7.37-3-1.37-10.74-5.12-18.67-9.4-.91-.48-1.58-.85-2.26-1.22-1-.54-2-1.07-3.6-1.94-7.45-4-13.29-6.83-16.1-8.2-11.91-5.82-28.31-13.28-32.39-15.05-19.67-8.52-48.12-13.57-71-17.63-9.45-1.68-17.62-3.13-24-4.6a71.51,71.51,0,0,1-8.15-2.27c3.61-1.47,11.76-3.9,29.77-6.63a161.7,161.7,0,0,1,26.48-1.81m0-4a164.65,164.65,0,0,0-27.08,1.85c-5.42.83-35.68,5.41-35.46,10.72.34,8.3,70.7,11.94,107.85,28,4.37,1.9,20.76,9.37,32.22,15,3.13,1.53,8.74,4.28,16,8.14,2.74,1.46,3.62,2,5.84,3.16,8.5,4.57,16.25,8.3,18.92,9.51,16.64,7.55,34.2,7.73,35.87,7.73h.13c8.25-.05,23.28-.13,29.28-8.37,4-5.54,2.18-12.26.92-16.55-6-20.32-27.84-32.1-40.28-38.6-3.8-2-19.05-9.75-43-15-7.71-1.68-15.21-2.86-65.91-4.73-15.7-.58-26.68-.9-35.26-.9Z"/><path class="cls-5" d="M477.83,199.59a3.6,3.6,0,0,0,1.55,1c3.29,1.26,17.2,9.2,23.23,13.29,1.44,1,4.87,3.9,11.72,9.74,8.64,7.36,10.19,9.09,11.21,8.64,2.67-1.17,1.06-14-7.75-22.77-2.07-2.06-9.72-6.14-25-14.32,0,0-1.3-.69-7.44-3.44s-8-3.35-8.69-2.76.39,1.56.68,4.77c.07.76-.11,1.49-.1,3.12A4,4,0,0,0,477.83,199.59Z"/><path class="cls-6" d="M349.5,201c7.13,1.77,13.54,3.07,19.29,3.93,9.15,1.38,24,2.76,40.91,10.05h0c.06,0,30.29,1.55,58.87-8.86,5.35-1.94,8.24-4,9.26-6.52.9-2.17-.06-3.61-.66-7.46-.36-2.32-.24-4.81,0-9.79,1-21.44,6.67-30.49,0-36.81-9.52-9-38.84-7.51-52.26-5.6-10.35,1.48-19.11,4.33-29.77,1.4-7.69-2.11-8.1-5-14.55-5.59-11.29-1.12-22.9,6.33-28.45,13a24.13,24.13,0,0,0-5.29,11.65C345.4,168.18,344.22,181.85,349.5,201Z"/><path class="cls-7" d="M467.67,248.55c1.16-1.63-19.7-18.87-36.52-31.65-18.44-14-27.68-21-34.27-24.65-8.84-4.92-61.08-32.48-98.17-12.3-18.61,10.12-34.55,32.85-27.08,51.48,0,0,3.77,9.41,40.18,28,.28.15,1.76.87,2.32.44,1.49-1.13-6.56-7.91-6.33-17a14.54,14.54,0,0,1,1.26-5.62c.07-.15.15-.33.26-.52,1.21-2.28,1.78-3.44,5.69-6.37,4.1-3.07,1.86-7.35,6.39-13.61,3.09-4.27,7.12-6.4,14.55-10.32,3-1.56,4.52-2.51,7-3a26.06,26.06,0,0,1,13.34.51,15.37,15.37,0,0,1,2.25.92,28.21,28.21,0,0,1,5.79,3.9c2.25,2,5,2.83,10.41,4.47,17.19,5.23,33,9.9,43.41,13.47a285.07,285.07,0,0,1,27,11C460.09,244.65,467,249.46,467.67,248.55Z"/><path class="cls-8" d="M541.28,230a13.11,13.11,0,0,1,.92,9.4c-2.27,7.25-11.43,10.24-15.64,11.83-11.9,4.5-23.29,2.24-35.62-.21a125.2,125.2,0,0,1-30.89-10.44,43.27,43.27,0,0,0,7.62,7.94c16.24,13.13,38.21,12.18,45.48,11.86,12.65-.55,23.9-1,29.28-8.37C548.75,243.38,542.23,231.68,541.28,230Z"/><line class="cls-9" x1="482.57" y1="235.73" x2="467.72" y2="240.82"/><line class="cls-9" x1="471.05" y1="232.37" x2="479.24" y2="244.18"/><line class="cls-9" x1="509.61" y1="240.52" x2="498.12" y2="250.08"/><line class="cls-9" x1="497.47" y1="241.17" x2="510.26" y2="249.43"/><line class="cls-9" x1="531.54" y1="235.57" x2="527" y2="248.76"/><line class="cls-9" x1="521.34" y1="241.28" x2="537.19" y2="243.06"/><line class="cls-10" x1="382.95" y1="194.74" x2="368.1" y2="199.83"/><line class="cls-10" x1="371.43" y1="191.37" x2="379.62" y2="203.19"/><line class="cls-10" x1="357.19" y1="188.83" x2="342.34" y2="193.92"/><line class="cls-10" x1="345.67" y1="185.46" x2="353.85" y2="197.28"/><line class="cls-10" x1="330.64" y1="185.27" x2="319.1" y2="194.78"/><line class="cls-10" x1="318.5" y1="185.87" x2="331.24" y2="194.18"/><line class="cls-10" x1="302.71" y1="191.62" x2="297.65" y2="204.67"/><line class="cls-10" x1="292.3" y1="197.03" x2="308.07" y2="199.27"/><line class="cls-10" x1="282.97" y1="212" x2="289.11" y2="224.7"/><line class="cls-10" x1="279.24" y1="221.97" x2="292.84" y2="214.74"/><line class="cls-10" x1="284.16" y1="235.6" x2="294.06" y2="240.96"/><line class="cls-10" x1="286.82" y1="242.91" x2="291.4" y2="233.65"/><line class="cls-10" x1="401.23" y1="204.97" x2="402.74" y2="213.84"/><line class="cls-10" x1="397.02" y1="210.75" x2="406.95" y2="208.07"/><ellipse class="cls-11" cx="453.55" cy="189.41" rx="3.31" ry="2.85"/><ellipse class="cls-11" cx="465.54" cy="181.33" rx="3.31" ry="2.85"/><ellipse class="cls-11" cx="465.54" cy="195.92" rx="3.31" ry="2.85"/><line class="cls-12" x1="375.53" y1="140.68" x2="379.8" y2="145.15"/><line class="cls-12" x1="387.32" y1="144.02" x2="391.59" y2="148.48"/><line class="cls-12" x1="399.09" y1="147.01" x2="403.37" y2="151.47"/><line class="cls-12" x1="410.82" y1="148.03" x2="415.09" y2="152.5"/><line class="cls-12" x1="422.89" y1="146.25" x2="427.17" y2="150.71"/><line class="cls-12" x1="432.89" y1="144.02" x2="437.16" y2="148.48"/><line class="cls-12" x1="443.86" y1="144.02" x2="448.14" y2="148.48"/><line class="cls-12" x1="454.72" y1="144.02" x2="458.99" y2="148.48"/><line class="cls-12" x1="466.14" y1="145.8" x2="470.42" y2="150.27"/><line class="cls-12" x1="365.97" y1="142.92" x2="370.24" y2="147.38"/><line class="cls-12" x1="359.33" y1="148.03" x2="363.61" y2="152.5"/><line class="cls-12" x1="426.52" y1="205.83" x2="430.79" y2="210.3"/><line class="cls-12" x1="437.16" y1="203.6" x2="441.43" y2="208.07"/><line class="cls-12" x1="447.24" y1="201.37" x2="451.51" y2="205.83"/><line class="cls-12" x1="454.72" y1="199.79" x2="458.99" y2="204.26"/><path class="cls-13" d="M349.5,201a22.72,22.72,0,0,0-3.54-.5c-38.49-2.19-48.15,15.25-48.15,15.25-5.52,10-.8,22.53.31,25.48,2.71,7.25,7.05,12.46,12.52,17.64,1,.55,2.07,1.1,3.23,1.63A42.49,42.49,0,0,0,321,263q.58-3.43,1.11-7,.48-3.23.87-6.36L309.61,236.3l16.4-.42-6.27-9.69,11,.39a42.4,42.4,0,0,1,2.19-4,38.86,38.86,0,0,1,2.82-4.09c1-1.25,1.94-2.29,2.18-2.56l.29-.3a17.49,17.49,0,0,1,1-3.31,10.43,10.43,0,0,1,.82-1.4,11.94,11.94,0,0,1,3.05-3l.81-3.85a25.36,25.36,0,0,1,6.78-1.41,8.38,8.38,0,0,1,4.78.86,7,7,0,0,1,.82.53A19.78,19.78,0,0,0,349.5,201Z"/></g></svg>