<svg id="Layer_2" data-name="Layer 2" xmlns="http://www.w3.org/2000/svg" xmlns:xlink="http://www.w3.org/1999/xlink" viewBox="0 0 841.89 595.28"><defs><style>.cls-1{fill:#dbcab5;}.cls-2{fill:#aea587;}.cls-3{fill:#966040;stroke:#856049;}.cls-13,.cls-14,.cls-15,.cls-16,.cls-17,.cls-18,.cls-3,.cls-4,.cls-8{stroke-miterlimit:10;stroke-width:4px;}.cls-4{fill:#6b1911;stroke:#5a221d;}.cls-5{fill:#8b7d71;}.cls-6{fill:#806459;}.cls-7{fill:none;stroke:#443f37;stroke-linecap:round;stroke-linejoin:bevel;stroke-width:5px;}.cls-8{fill:#ba9872;}.cls-13,.cls-14,.cls-15,.cls-16,.cls-17,.cls-18,.cls-8{stroke:#d5bcc6;}.cls-9{fill:#fdf6e4;}.cls-10{fill:url(#linear-gradient);}.cls-11{fill:url(#linear-gradient-2);}.cls-12{fill:url(#linear-gradient-3);}.cls-13{fill:url(#linear-gradient-4);}.cls-14{fill:url(#linear-gradient-5);}.cls-15{fill:url(#linear-gradient-6);}.cls-16{fill:url(#linear-gradient-7);}.cls-17{fill:url(#linear-gradient-8);}.cls-18{fill:url(#linear-gradient-9);}</style><linearGradient id="linear-gradient" x1="340.16" y1="215.86" x2="356.76" y2="201.75" gradientTransform="translate(-36.49 83.63) rotate(-13.42)" gradientUnits="userSpaceOnUse"><stop offset="0" stop-color="#d5bcc6"/><stop offset="1" stop-color="#eadad6"/></linearGradient><linearGradient id="linear-gradient-2" x1="367.29" y1="214.36" x2="395.24" y2="240.1" gradientTransform="matrix(0.42, -0.91, 0.91, 0.42, 46.44, 461)" gradientUnits="userSpaceOnUse"><stop offset="0" stop-color="#d5bcc6"/><stop offset="0.05" stop-color="#d8c0c8"/><stop offset="0.28" stop-color="#e2cfd0"/><stop offset="0.56" stop-color="#e8d7d5"/><stop offset="1" stop-color="#eadad6"/></linearGradient><linearGradient id="linear-gradient-3" x1="370.61" y1="264.56" x2="388.3" y2="280.85" gradientTransform="matrix(-0.69, -0.73, 0.73, -0.69, 522.14, 655.61)" xlink:href="#linear-gradient-2"/><linearGradient id="linear-gradient-4" x1="332.99" y1="183.59" x2="339.89" y2="189.95" gradientTransform="matrix(0.87, 0.49, -0.49, 0.87, 122.76, -123.91)" xlink:href="#linear-gradient"/><linearGradient id="linear-gradient-5" x1="130.68" y1="183.43" x2="141.15" y2="193.08" gradientTransform="matrix(-0.87, -0.49, -0.49, 0.87, 527.27, 104.45)" xlink:href="#linear-gradient"/><linearGradient id="linear-gradient-6" x1="414.22" y1="103.09" x2="420.29" y2="108.68" gradientTransform="translate(216.92 -185.6) rotate(46.66)" xlink:href="#linear-gradient"/><linearGradient id="linear-gradient-7" x1="49.52" y1="102.92" x2="59.27" y2="111.9" gradientTransform="matrix(-0.69, -0.73, -0.73, 0.69, 535.74, 152.23)" xlink:href="#linear-gradient"/><linearGradient id="linear-gradient-8" x1="399.43" y1="60.96" x2="405.62" y2="66.66" gradientTransform="translate(574.38 -188.89) rotate(100.39)" xlink:href="#linear-gradient"/><linearGradient id="linear-gradient-9" x1="64.54" y1="61.01" x2="69.61" y2="65.68" gradientTransform="matrix(0.18, -0.98, -0.98, -0.18, 490.61, 268.02)" xlink:href="#linear-gradient"/></defs><title>hat_1.2-01</title><g id="hat_1.2"><path class="cls-1" d="M526,205.8c.45,8.46-9.31,15.39-21.13,14.95-19.93-.73-36.45-1.76-48.76-2.64-42.15-3-63.72-6.53-95.32-2.8-4.73.56-9.15,1.22-13.23,1.92-12.47,2.15-24.61-4.5-24.81-13.69a62,62,0,0,1,1.14-13.12,69.81,69.81,0,0,1,8-21.12c3.33-5.87,9.89-7.22,13.91-8.58a223.17,223.17,0,0,1,59.06-10.86c14.05-.33,68.23-1.33,99.08,10.51,6.39,2.45,12.86,4.66,15,10.52a125.62,125.62,0,0,1,5.9,23.17A117.08,117.08,0,0,1,526,205.8Z"/><path class="cls-2" d="M442.16,150.23a36.94,36.94,0,0,1,4.33,67.15c11.1,1.18,22.8,2.11,35.07,2.68,9.21.42,18.12.61,26.7.62,9.71-1,13.62-5.24,15-7,5.19-6.78,2.84-16.35-.89-31.48-1.87-7.6-2.8-11.4-5.33-14.54-1.31-1.62-5-5.75-24.35-10.84A193,193,0,0,0,469,152.1,216.65,216.65,0,0,0,442.16,150.23Z"/><path class="cls-3" d="M437.54,156.67,449.23,165"/><path class="cls-4" d="M458.93,156.67,470.62,165"/><path class="cls-4" d="M479.39,158.81l11.7,8.37"/><path class="cls-5" d="M466.56,210.35c8.46-14.54,37.05-21,54.24-12,11.34,5.91,13.88,16.55,18.37,35.41,4.67,19.58,8,33.64-2.62,42.94-8.72,7.63-24.28,9.81-36.18,5.91-14.76-4.83-20-17.77-28.22-38C465.18,227.33,461.69,218.73,466.56,210.35Z"/><path class="cls-6" d="M499.69,194.29a34.35,34.35,0,0,1,17.94,2.53,32.82,32.82,0,0,1,10.77,7.53c2.72,2.93,4.86,6.39,8,15.52,5.11,14.85,6,24.74,7.07,36.56a25.37,25.37,0,0,1-1.56,12.83,23.54,23.54,0,0,1-3,5.05c-5.34,6.82-13.62,8.61-16.56,9.11a92.93,92.93,0,0,0-22.68-89.13Z"/><path class="cls-7" d="M523.47,282.73a14.38,14.38,0,0,0,5.28,8.68c6.33,5.27,15.27,5.61,16.87,5.65"/><path class="cls-8" d="M512.62,213.36l-17.35,21.12"/><path class="cls-8" d="M517.9,231,490,216.82"/><path class="cls-8" d="M518,239.7q-4.56,6.69-9.11,13.37"/><path class="cls-8" d="M522.37,250.21l-17.81-7.65"/><path class="cls-8" d="M520.85,259.08q-2.13,4.89-4.24,9.78"/><path class="cls-8" d="M525.35,265.9,512.1,262"/><path class="cls-9" d="M481.16,194c-.17-4.82-6.75-8.62-15.35-9.27a5.17,5.17,0,0,0,.59-2.53c-.16-4.94-7.88-8.69-17.22-8.38-5.37.19-10.1,1.68-13.13,3.85-3.18-2-8-3.12-13.39-2.94-6.08.21-11.35,2.09-14.26,4.73l-.59.1c-2.91-3.47-8.85-5.73-15.64-5.5-6,.21-11.2,2.3-14.17,5.31a30.13,30.13,0,0,0-7.84-.73,30.65,30.65,0,0,0-6.88,1c-2.17-4.13-8.64-7-16.19-6.72-7.08.24-13,3.15-15.29,7-.14,0-.29,0-.44,0-7.5.26-13.54,4.11-14.05,8.77-7.21,1.93-12.17,5.93-12,10.39.12,3.73,3.79,6.9,9.26,8.68a5.23,5.23,0,0,0-.23,1.67c.08,2.24,1.59,4.25,4,5.81a8.33,8.33,0,0,0-.16,1.71c0,7,9.08,13.51,16.94,15.45,13.13,3.25,24.22-5.86,25-6.55a30.22,30.22,0,0,0,14.13,2.63A34.13,34.13,0,0,0,383,227.1a52.42,52.42,0,0,0,12.06,1l1.26-.06a29.55,29.55,0,0,0,10.42,1.42c5.62-.19,10.57-1.75,13.76-4a56.15,56.15,0,0,0,21.43,3.19c19-.65,34.1-9.32,33.76-19.37a11.14,11.14,0,0,0-2.67-6.65C478,200.6,481.28,197.43,481.16,194Z"/><path class="cls-10" d="M350,203c-.69.56,10.56,4.39,9.1,7.87-1.28,3-12,5.19-20,3.58-6.26-1.25-8.58-4.35-9.46-4-1.52.66,1.88,11.13,13.67,12.25A23.17,23.17,0,0,0,359.59,218c.73-.63,5-4.28,3.17-8.38C360.52,204.47,350.59,202.54,350,203Z"/><path class="cls-11" d="M414.25,206.42c-.57.18,3.19,3.33,1.16,6.48-1.47,2.29-6,4.46-9.57,4-6.46-.74-6.63-9.29-11-9.25-2.66,0-5.09,3.25-6,5.05-2,4,.7,6.43-1.82,7.8-2.27,1.24-6.49.37-7.93.08-5.23-1.08-7.79-3.74-7.76-3.76s8.24,8.14,15.3,7.08c5.1-.77,5.79-5.77,10-5.87s5,5.11,10.54,5.74c5,.56,12.21-2.86,13.93-7.34C423.37,210.61,415,206.2,414.25,206.42Z"/><path class="cls-12" d="M451.58,190.12c0,.39,6.26-.71,10.15,1.52,2.83,1.63,4.27,5,2.2,6.91-3.69,3.47-16.55.67-18.24,3.19-1,1.55,2.82,4,5.13,5.18,5.18,2.54,9.9,1.78,10.94,3.7.94,1.73-2.05,3.87-3.08,4.61a20.48,20.48,0,0,1-8.73,3.2c0-.05,15.48-2,16.74-6.43.9-3.2-6.29-5.3-4.77-7.75s9.66-1.16,12.82-4.14c2.86-2.71.64-8-5.36-10.54C461.51,186.28,451.53,189.62,451.58,190.12Z"/><path class="cls-13" d="M319.92,194.78q2.68,5.33,5.39,10.64"/><path class="cls-14" d="M331.46,198.71l-17.7,2.78"/><path class="cls-15" d="M426.24,181.63c0,3.45,0,6.91,0,10.36"/><path class="cls-16" d="M434.57,187.08l-16.63-.54"/><path class="cls-17" d="M446.92,190.92l-9.72,4.65"/><path class="cls-18" d="M445.2,196.38l-6.28-6.27"/></g></svg>