<svg id="Layer_2" data-name="Layer 2" xmlns="http://www.w3.org/2000/svg" viewBox="0 0 841.89 595.28"><defs><style>.cls-1{fill:#3c3216;}.cls-2{fill:#1e190b;}.cls-3{fill:#7a7675;}.cls-4{fill:#fbe0d4;}.cls-5{fill:#e4bdb5;}.cls-6{fill:#958f91;}.cls-7{fill:#c1b4a8;}.cls-8{fill:#d0d946;}.cls-9{fill:#ef806e;}.cls-10{fill:#9ed2c7;}.cls-11{fill:#eacac4;}</style></defs><title>hat_3.2-01</title><g id="hat_3.2"><path class="cls-1" d="M468.63,160.66c-12.47-3.47-30.92-8.59-51.95-2.83-10.33,2.83-22.84,8.72-24,6.6-.58-1.07,2.21-3.1,1.6-4.71-.9-2.34-9.33-1.48-14.69-.38-40.47,8.28-51.2,39.53-51.2,39.53-5.9,17.19-2.24,36.8,1.6,37.46,1.51.25,2.41-2.51,5.93-5.93,7.1-6.91,16.23-8.23,20.31-8.82,11.11-1.63,30.66.39,33.9,11.08,2.38,7.79-4.6,18-8.65,19.48-.26.09-2,.75-4,1.39-3.35,1.05-4.88,1.27-4.83,1.62.25,1.64,38.73,3.23,44.33-10.92,2.86-7.23-3.38-19.24-11-24.84-3.35-2.46-7.6-4.15-7.41-4.61.26-.62,7.9,2,10,2.72,38.83,13.23,58.25,19.84,65.7,19.58,3-.1,7-.48,10.16,2.07,7,5.61,1.52,18.43,6.23,21.27,5.25,3.16,20.33-5.84,26.6-19.25,11.22-24-7.37-59-23.79-61.31-3.63-.52-9.5.22-9.6-.57-.15-1.07,10.76-1.87,11.29-5.08C495.82,170.28,480.72,164,468.63,160.66Z"/><path class="cls-2" d="M490.67,260.42c9.36,2.06,21.54-8.44,26.59-19.25,11.23-24-7.36-59-23.79-61.32-3.62-.51-9.49.23-9.6-.56-.14-1.08,10.77-1.87,11.3-5.09.65-3.93-14.45-10.19-26.54-13.55-8.55-2.37-19.9-5.53-33-5.42a74.93,74.93,0,0,1,28.94,8,72.67,72.67,0,0,1,12.84,8.41,93.66,93.66,0,0,0-48.56,12.42,42.53,42.53,0,0,1,18.43,8.32,43.8,43.8,0,0,1,15.39,25.27c-.45-.21-1.19-.57-2.12-1-20.2-9.07-40.15-8-54.73-7.1-3.4.21-8.34.62-14.3,1.46,11.32,7.17,17.34,17.92,15,26.26-1.76,6.17-7.76,9.76-11.92,12.24a40.93,40.93,0,0,1-22,5.58h0c.25,1.65,38.73,3.24,44.33-10.91,2.86-7.24-3.38-19.24-11-24.85-4-2.91-7.61-3.85-7.4-4.61.42-1.48,14.9.81,28.11,4.62,11.3,3.25,18.38,5.29,26.73,10.54,10.86,6.81,23.12,18.56,27.39,22.77C486,257.83,487.37,259.69,490.67,260.42Z"/><path class="cls-3" d="M309.38,248c-2.23-6.46-1.4-9.89,0-11.84,1.9-2.58,5.65-3.62,5.42-4.29-.18-.51-2.37-.23-3.2-.06-6.35,1.34-12.95,13.9-13.29,26.26-.45,16.75,10.58,33.21,15.95,32.12,1.48-.3,3.27-2.07,4.49-8.76Q314.08,264.72,309.38,248Z"/><ellipse class="cls-4" cx="500.73" cy="268.89" rx="28.44" ry="35.58"/><path class="cls-5" d="M494.32,279.53a14.49,14.49,0,0,0-1.27,6.07c.17,1.91.79,2.53.57,4.23a7.45,7.45,0,0,1-2.56,4.6c-2,1.56-5.23,2.07-6.41,2.25-.75.12-1,.11-1.06.28-.4,1.06,6.8,6.63,15.18,7.55,1.39.16,10.06,1,17.29-4.94,6.53-5.33,7.72-12.75,8.76-19.2.95-6,2.75-17.14-2.26-20.33C514.73,255.06,496.69,273.66,494.32,279.53Z"/><ellipse class="cls-6" cx="507.37" cy="268.89" rx="18.65" ry="27.72"/><ellipse class="cls-7" cx="519.38" cy="268.89" rx="18.65" ry="27.72"/><path class="cls-7" d="M507.55,241.17l-1.15-76.53H329.34v38a59.21,59.21,0,0,1,5.59-10.86,50.18,50.18,0,0,1,3.58-4.69,18.54,18.54,0,0,0,2.1-2.36,9.44,9.44,0,0,0,1-6.36,12.89,12.89,0,0,0-1.05-3.7h155.9l1.73,66.47c-.18,1.85-.21,3.77-.21,3.77h0"/><ellipse class="cls-8" cx="521.73" cy="288.89" rx="2.82" ry="2.5"/><ellipse class="cls-9" cx="513.13" cy="286.39" rx="2.82" ry="2.5"/><ellipse class="cls-10" cx="508.43" cy="279.46" rx="2.82" ry="2.5"/><path class="cls-11" d="M315.62,240.84a47.28,47.28,0,0,0-4.09-4.12l14.46-.81-7.25-11.2a46,46,0,0,0-6.46,7.1,47.4,47.4,0,0,0-3.24,5.06h0L309,237s-.16.18-.31.39c-.35.54-9.21,19.12,0,41.72a60.1,60.1,0,0,0,9.84,16.13c.14-5.52.43-11.31.93-17.35.82-10,2.07-19.24,3.55-27.7A75.63,75.63,0,0,0,315.62,240.84Z"/></g></svg>