<svg id="Layer_2" data-name="Layer 2" xmlns="http://www.w3.org/2000/svg" viewBox="0 0 841.89 595.28"><defs><style>.cls-1{fill:#ff5434;}.cls-2{fill:#dfff53;}</style></defs><title>hat_6.3-01</title><g id="hat_6.3"><path class="cls-1" d="M380.65,201.2c-4.15-1.22-6.88-7.77-6.55-13.36.07-1.14.51-8.33,5.73-10.9,6.69-3.28,14.47,4.38,15,4.91.75.76,5.56,5.64,4.63,10.9-.39,2.18-1.67,3.89-1.36,4.09s1-.36,4.36-4.64c6.44-8.1,6.34-9.72,8.44-10.35,4.27-1.28,10.08,3.77,12.54,8.72.68,1.36,3.29,6.63.82,10.63-1.9,3.06-5.93,4-7.63,4.36a17,17,0,0,1-4.49.35c-5.29-.3-9.05-3-9.14-2.81s4.9,3.13,10.08,6.82c4.36,3.09,5.07,4,5.18,5.17.33,3.54-5.35,6.58-6.81,7.36-2.64,1.41-6,3.21-9,1.91-3.91-1.7-4.88-7.67-5.45-11.17-.55-3.33-.35-6-.55-6s-.1,6.18-2.45,13.35c-1.51,4.59-2.52,7.68-5.18,8.72-4.24,1.66-10.25-2.86-12.81-7.63-.73-1.37-2.56-4.78-1.36-8.17,1.12-3.14,4.27-4.67,8.72-6.81,5.17-2.5,8.82-3,8.72-3.82s-3.71-1.12-6.54-1.36C381.93,201.16,381.76,201.52,380.65,201.2Z"/><path class="cls-2" d="M391.16,202.36a4,4,0,0,1-2.92-4.11,3.74,3.74,0,0,1,2.56-3.34c3-1,6.47,1.34,6.71,1.5s2.49,1.74,2.07,3.35c-.18.67-.75,1.2-.61,1.26s.43-.11,1.95-1.43c2.88-2.49,2.84-3,3.78-3.18,1.91-.39,4.51,1.16,5.61,2.68.3.42,1.47,2,.37,3.27-.85.94-2.66,1.22-3.42,1.34a11.5,11.5,0,0,1-2,.1,14.3,14.3,0,0,1-4.1-.86c0,.06,2.2,1,4.52,2.09,1.95,1,2.26,1.24,2.31,1.59.15,1.09-2.39,2-3.05,2.26a6.59,6.59,0,0,1-4,.59c-1.75-.52-2.18-2.36-2.44-3.43s-.15-1.84-.24-1.84a16.37,16.37,0,0,1-1.1,4.1c-.67,1.41-1.13,2.36-2.32,2.68-1.9.51-4.59-.88-5.73-2.35-.33-.42-1.15-1.47-.61-2.51s1.91-1.43,3.9-2.09c2.32-.77,3.95-.92,3.91-1.17s-1.67-.35-2.93-.42C391.74,202.34,391.66,202.46,391.16,202.36Z"/></g></svg>