<svg id="Layer_2" data-name="Layer 2" xmlns="http://www.w3.org/2000/svg" viewBox="0 0 841.89 595.28"><defs><style>.cls-1{fill:#34002b;}.cls-2{fill:#bf9f3e;}.cls-3{fill:#ffd453;}.cls-4{fill:#ffc0df;}.cls-5{fill:#bf90a7;}.cls-6{fill:#5d3355;}.cls-7{fill:#ffeeba;}.cls-8{fill:#ff6dc3;}.cls-9{fill:#bf5292;}</style></defs><title>hat_5.3-01</title><g id="hat_5.3"><path class="cls-1" d="M414.77,96c7.21,1,86.09,13.78,115.14,80,10.27,23.4,10.85,45.62,9.66,60.51l-124.8-72Z"/><path class="cls-2" d="M529.91,176C500.86,109.76,422,97,414.77,96v12c7,.28,58.38,3.22,90.67,46.87,22.95,31,22.71,64.32,22.22,74.76l11.91,6.87C540.76,221.59,540.18,199.37,529.91,176Z"/><path class="cls-1" d="M295,209.85c3.53-15.31,15.53-57.94,55.4-89.7A154.28,154.28,0,0,1,404.6,92.48c16.66,5.16,40.37,15.19,61,36.14,9.77,9.93,14.81,18.2,27.11,37.27,10.7,16.6,26.54,40.81,46.87,70.59a389.38,389.38,0,0,0-47.76-16.75s-2.11-.59-4.19-1.15c-47.72-12.85-96.57-13.73-96.57-13.73s-46.49-.78-87.63,8.29l-.05,0a6.89,6.89,0,0,1-3.71-.25h0c-2.56.72-4.63,0-5-1.18A2.18,2.18,0,0,1,295,209.85Z"/><path class="cls-3" d="M492.7,165.89c-12.3-19.06-17.33-27.34-27.11-37.27-20.62-21-44.33-31-61-36.14a162.25,162.25,0,0,0-54.21,27.67,160.41,160.41,0,0,0-36.74,40.28c-12.17,19.42-22.42,45.85-22.42,45.85h0s-.92,4.61.56,6.58c1.1,1.47,3.56,1.54,10.59.47,3.41-.52,8-1.32,13.46-2.59h0a110.83,110.83,0,0,0-11.3-1.17c-4-.21-4.44,0-4.9-.38-4.3-3.49,12.39-38,36.9-64.37,11.63-12.53,32.55-31.32,67-45.56a172.33,172.33,0,0,1,34.62,19.43c5.1,3.71,21.48,16,49.33,53.61a572,572,0,0,1,38.08,58.59h0c5,1.89,9.65,3.77,14,5.6C519.25,206.7,503.4,182.49,492.7,165.89Z"/><path class="cls-4" d="M392.66,119.68a38.13,38.13,0,0,1,22.73,1.62,13.08,13.08,0,0,1,5.38,7.61c1.28,6-2.61,12.89-9.91,16.34l-18.2-2.43c-5.55-4.92-7.63-11.9-5.38-17.26A12.72,12.72,0,0,1,392.66,119.68Z"/><path class="cls-1" d="M408,127.8l7.91,4.26a3.62,3.62,0,0,1,.22,2.67,3.71,3.71,0,0,1-2.06,2.22,6.52,6.52,0,0,1-5.1,0,6.59,6.59,0,0,1-3.4-3.48,4.92,4.92,0,0,1,.34-3.68A4.82,4.82,0,0,1,408,127.8Z"/><path class="cls-1" d="M397.15,126.78l-7.07,3.09a4.24,4.24,0,0,0-.5,2.62A3.7,3.7,0,0,0,391,135a4.79,4.79,0,0,0,4.23.72,5.88,5.88,0,0,0,3.24-3,5.78,5.78,0,0,0,.15-3.69A4.71,4.71,0,0,0,397.15,126.78Z"/><path class="cls-1" d="M401.27,132.94,399,138.36a4.65,4.65,0,0,0,1.83,1,4.57,4.57,0,0,0,2.84-.1Z"/><path class="cls-5" d="M385.08,186.52a9.08,9.08,0,0,0,.84-3.33l25.52-12.76a9,9,0,0,0,3.22,1.36,12.1,12.1,0,0,0,8.73-1,10.26,10.26,0,0,0,3.45-3.29,6.25,6.25,0,0,0-.25-2.91,6,6,0,0,0-2.81-3.2l0-.09a6,6,0,0,0-.88-4.16,6.28,6.28,0,0,0-2.18-2,10.26,10.26,0,0,0-4.7.79,12,12,0,0,0-6.07,6.35,9,9,0,0,0-.84,3.27l-25.58,12.79a8.82,8.82,0,0,0-3.17-1.32,12,12,0,0,0-8.72,1,10.25,10.25,0,0,0-3.45,3.28,6.3,6.3,0,0,0,.25,2.92,6,6,0,0,0,2.8,3.19l.14,0h0v0l-.11.09a6,6,0,0,0,.87,4.16,6.18,6.18,0,0,0,2.18,1.95,10.23,10.23,0,0,0,4.7-.79A12,12,0,0,0,385.08,186.52Z"/><path class="cls-4" d="M410.79,190.36a9,9,0,0,1-.26-3.43l-23-16.92a9.06,9.06,0,0,1-3.4.79,12,12,0,0,1-8.42-2.53,10.28,10.28,0,0,1-2.84-3.82,6.2,6.2,0,0,1,.74-2.83,6,6,0,0,1,3.31-2.67l.06-.08a6,6,0,0,1,1.57-4,6.26,6.26,0,0,1,2.48-1.54,10.3,10.3,0,0,1,4.5,1.57,12,12,0,0,1,4.9,7.3,8.83,8.83,0,0,1,.27,3.36l23,17a9.05,9.05,0,0,1,3.35-.76,12,12,0,0,1,8.41,2.52,10.11,10.11,0,0,1,2.84,3.83,6.07,6.07,0,0,1-.74,2.82,6,6,0,0,1-3.31,2.67l-.13,0h0v0l.09.11a6,6,0,0,1-1.57,4,6.26,6.26,0,0,1-2.48,1.54,10.21,10.21,0,0,1-4.5-1.57A12.06,12.06,0,0,1,410.79,190.36Z"/><polygon class="cls-4" points="394.96 144.52 393.61 146.75 407.21 148.58 407.21 146.14 394.96 144.52"/><polygon class="cls-6" points="331.98 169.07 332.97 153.51 353.45 132.56 371.93 130.62 368.73 144.08 347.18 163.41 331.98 169.07"/><polygon class="cls-7" points="336.21 140.73 335 135.01 345.82 124.2 357.62 120.51 357.14 125.84 345.43 136.24 336.21 140.73"/><path class="cls-8" d="M484.93,231.59l15.64,4.14c.83,14.54,1.31,29.91,1.28,46,0,15.05-.5,29.44-1.28,43.11a60.29,60.29,0,0,1-2.58-7.53,59.35,59.35,0,0,1-1.6-8.1,8.45,8.45,0,0,1-3.64,7.16,303.25,303.25,0,0,1-7.82-84.81Z"/><path class="cls-8" d="M327.07,209a394.84,394.84,0,0,1,163,10.27,13.33,13.33,0,0,1,0,17.24,349.38,349.38,0,0,0-161-10,10.28,10.28,0,0,1-6.63-10C322.73,211.84,326.6,209.27,327.07,209Z"/><path class="cls-9" d="M512.93,231.81c-.06-4.1-3.75-6.65-4.14-6.91A397.16,397.16,0,0,0,396.93,205h-.39q43.07,6.93,42.87,12.22-.12,3.24-16.52,5.88h0c11.31,1.16,23.61,2.94,36.71,5.61a377.05,377.05,0,0,1,44.47,12C509.35,240,513,235.94,512.93,231.81Z"/><path class="cls-9" d="M496.39,309.3a60.49,60.49,0,0,0,4.18,15.57c.78-13.67,1.25-28.06,1.28-43.11,0-16.12-.45-31.49-1.28-46l-15.64-4.14a191.53,191.53,0,0,1,11.46,77.71Z"/></g></svg>