<svg id="Layer_2" data-name="Layer 2" xmlns="http://www.w3.org/2000/svg" viewBox="0 0 841.89 595.28"><defs><style>.cls-1{fill:#fff267;}.cls-2{fill:#caa80c;}.cls-3{fill:#5c97a5;}.cls-4{fill:#fbe0d4;}.cls-5{fill:#e4bdb5;}.cls-6{fill:#7bcadd;}.cls-7{fill:#b8e0ec;}.cls-8{fill:#d0d946;}.cls-9{fill:#ef806e;}.cls-10{fill:#9ed2c7;}.cls-11{fill:#eacac4;}</style></defs><title>hat_3.3-01</title><g id="hat_3.3"><path class="cls-1" d="M468.65,160.66c-12.47-3.46-30.92-8.59-52-2.82-10.32,2.83-22.83,8.71-24,6.59-.58-1.06,2.21-3.09,1.59-4.71-.89-2.33-9.32-1.47-14.68-.38-40.47,8.29-51.2,39.53-51.2,39.53-5.9,17.19-2.24,36.81,1.6,37.46,1.51.26,2.41-2.5,5.93-5.93,7.1-6.91,16.23-8.22,20.31-8.82,11.11-1.62,30.65.4,33.9,11.08,2.37,7.8-4.61,18-8.66,19.48-.25.1-2,.75-4,1.39-3.35,1.06-4.89,1.28-4.83,1.63.25,1.64,38.73,3.23,44.33-10.92,2.86-7.24-3.38-19.24-11-24.85-3.35-2.46-7.6-4.14-7.41-4.61s7.89,2,10,2.73c38.83,13.22,58.25,19.84,65.69,19.57,3-.1,7-.48,10.17,2.08,7,5.6,1.52,18.43,6.23,21.27,5.25,3.16,20.33-5.84,26.59-19.25,11.23-24-7.36-59-23.79-61.32-3.62-.51-9.49.23-9.6-.56-.14-1.08,10.77-1.87,11.3-5.09C495.84,170.28,480.74,164,468.65,160.66Z"/><path class="cls-2" d="M490.69,260.42c9.36,2.07,21.54-8.43,26.59-19.25,11.23-24-7.36-59-23.79-61.31-3.62-.52-9.49.22-9.6-.57-.15-1.07,10.77-1.87,11.3-5.08.65-3.94-14.45-10.19-26.54-13.55-8.55-2.38-19.9-5.53-33-5.43a75.1,75.1,0,0,1,28.95,8,73.23,73.23,0,0,1,12.84,8.41,93.83,93.83,0,0,0-48.56,12.43,42.41,42.41,0,0,1,18.43,8.32,43.86,43.86,0,0,1,15.39,25.27c-.45-.22-1.19-.57-2.12-1-20.2-9.08-40.15-8-54.73-7.11-3.4.22-8.34.62-14.3,1.46,11.32,7.18,17.34,17.92,15,26.26-1.76,6.18-7.76,9.76-11.92,12.24a40.89,40.89,0,0,1-22,5.59h0c.25,1.64,38.73,3.23,44.33-10.92,2.86-7.23-3.38-19.24-11-24.85-4-2.91-7.61-3.85-7.4-4.6.42-1.48,14.9.8,28.11,4.61,11.3,3.26,18.38,5.3,26.73,10.54,10.86,6.82,23.12,18.57,27.39,22.78C486,257.84,487.39,259.69,490.69,260.42Z"/><path class="cls-3" d="M309.4,248c-2.23-6.46-1.4-9.89,0-11.84,1.9-2.58,5.64-3.61,5.41-4.29-.17-.5-2.37-.23-3.19-.06-6.35,1.34-13,13.9-13.29,26.27-.45,16.75,10.58,33.21,15.95,32.12,1.48-.3,3.27-2.07,4.49-8.76Z"/><ellipse class="cls-4" cx="500.75" cy="268.89" rx="28.44" ry="35.58"/><path class="cls-5" d="M494.34,279.53a14.49,14.49,0,0,0-1.27,6.07c.17,1.91.79,2.54.57,4.24a7.55,7.55,0,0,1-2.56,4.6c-2,1.56-5.23,2.06-6.41,2.24-.75.12-1,.11-1.06.29-.4,1.06,6.8,6.63,15.18,7.55,1.39.15,10.06,1,17.29-4.94,6.53-5.34,7.72-12.75,8.76-19.2.95-6,2.75-17.14-2.26-20.33C514.75,255.07,496.71,273.67,494.34,279.53Z"/><ellipse class="cls-6" cx="507.39" cy="268.89" rx="18.65" ry="27.72"/><ellipse class="cls-7" cx="519.39" cy="268.89" rx="18.65" ry="27.72"/><path class="cls-6" d="M507.57,241.18l-1.15-76.53H329.36v38A58.89,58.89,0,0,1,335,191.82a49.62,49.62,0,0,1,3.57-4.69,17.93,17.93,0,0,0,2.11-2.37,9.43,9.43,0,0,0,1-6.36,12.84,12.84,0,0,0-1.05-3.69h155.9l1.72,66.47C498,243,498,245,498,245h0"/><ellipse class="cls-8" cx="521.75" cy="288.89" rx="2.82" ry="2.5"/><ellipse class="cls-9" cx="513.15" cy="286.39" rx="2.82" ry="2.5"/><ellipse class="cls-10" cx="508.45" cy="279.46" rx="2.82" ry="2.5"/><path class="cls-11" d="M315.64,240.85a46.1,46.1,0,0,0-4.1-4.13l14.47-.81-7.25-11.2a46,46,0,0,0-6.46,7.1,47.4,47.4,0,0,0-3.24,5.06h0L309,237s-.16.18-.31.39c-.35.54-9.21,19.11,0,41.71a60.12,60.12,0,0,0,9.84,16.14c.14-5.52.43-11.31.93-17.35.82-10,2.07-19.25,3.55-27.71A74.89,74.89,0,0,0,315.64,240.85Z"/></g></svg>