<svg id="Layer_2" data-name="Layer 2" xmlns="http://www.w3.org/2000/svg" viewBox="0 0 841.89 595.28"><defs><style>.cls-1{fill:#150502;}.cls-2{fill:#8f8e78;}.cls-3{fill:#2a0a04;}.cls-4{fill:#bfbda0;}.cls-5{fill:#ffeaa1;}.cls-6{fill:#bfb079;}.cls-7{fill:#553b36;}.cls-8{fill:#fffeee;}.cls-9{fill:#86b5ff;}.cls-10{fill:#4e7abf;}</style></defs><title>hat_5.2-01</title><g id="hat_5.2"><path class="cls-1" d="M414.77,96c7.21,1,86.1,13.78,115.14,80,10.27,23.4,10.86,45.62,9.66,60.5l-124.8-72Z"/><path class="cls-2" d="M529.91,176C500.87,109.75,422,97,414.77,96v12c7,.28,58.38,3.22,90.67,46.87,22.95,31,22.72,64.31,22.22,74.75l11.91,6.87C540.77,221.58,540.18,199.36,529.91,176Z"/><path class="cls-3" d="M295,209.84c3.53-15.32,15.53-58,55.4-89.71A154.7,154.7,0,0,1,404.6,92.46c16.66,5.16,40.37,15.19,61,36.14,9.78,9.93,14.82,18.21,27.11,37.28,10.7,16.6,26.55,40.81,46.87,70.58a388,388,0,0,0-47.76-16.74s-2.1-.59-4.18-1.15c-47.73-12.85-96.58-13.73-96.58-13.73s-46.49-.78-87.63,8.29h-.05a6.75,6.75,0,0,1-3.7-.25h0c-2.57.73-4.64,0-5.05-1.17A2.18,2.18,0,0,1,295,209.84Z"/><path class="cls-4" d="M492.7,165.88c-12.29-19.07-17.33-27.35-27.11-37.27-20.62-21-44.33-31-61-36.15a162.38,162.38,0,0,0-54.22,27.67,160.27,160.27,0,0,0-36.73,40.29c-12.18,19.41-22.43,45.84-22.43,45.84h0s-.92,4.62.56,6.59c1.1,1.47,3.56,1.54,10.6.47,3.4-.52,8-1.32,13.46-2.59h0a107.73,107.73,0,0,0-11.3-1.17c-4-.21-4.44,0-4.89-.38-4.31-3.49,12.39-38,36.89-64.38,11.64-12.52,32.56-31.31,67-45.55a172.06,172.06,0,0,1,34.62,19.43c5.11,3.7,21.48,16,49.33,53.61a572,572,0,0,1,38.08,58.59h0c5,1.89,9.65,3.77,14,5.59C519.25,206.69,503.41,182.48,492.7,165.88Z"/><path class="cls-5" d="M392.66,119.67a38.17,38.17,0,0,1,22.74,1.62,13,13,0,0,1,5.37,7.61c1.28,5.95-2.61,12.89-9.91,16.34l-18.2-2.44c-5.54-4.92-7.63-11.89-5.38-17.25A12.77,12.77,0,0,1,392.66,119.67Z"/><path class="cls-3" d="M408,127.79,416,132a3.57,3.57,0,0,1-1.84,4.9,6.44,6.44,0,0,1-8.51-3.5,4.86,4.86,0,0,1,.35-3.67A4.7,4.7,0,0,1,408,127.79Z"/><path class="cls-3" d="M397.16,126.77l-7.08,3.09a4.26,4.26,0,0,0-.49,2.62A3.67,3.67,0,0,0,391,135a4.79,4.79,0,0,0,4.23.72,5.88,5.88,0,0,0,3.24-3,5.73,5.73,0,0,0,.15-3.68A4.72,4.72,0,0,0,397.16,126.77Z"/><path class="cls-3" d="M401.27,132.93,399,138.34a4.52,4.52,0,0,0,1.83,1,4.71,4.71,0,0,0,2.84-.1Z"/><path class="cls-6" d="M385.08,186.51a8.89,8.89,0,0,0,.84-3.33l25.52-12.76a9,9,0,0,0,3.23,1.36,12.08,12.08,0,0,0,8.72-1.05,10.35,10.35,0,0,0,3.45-3.29,6.25,6.25,0,0,0-.25-2.91,6,6,0,0,0-2.8-3.2l-.05-.09a5.92,5.92,0,0,0-.88-4.16,6.07,6.07,0,0,0-2.17-2,10.23,10.23,0,0,0-4.7.79,12,12,0,0,0-6.08,6.35,9.22,9.22,0,0,0-.84,3.27L383.5,178.33a9.14,9.14,0,0,0-3.18-1.33,12.08,12.08,0,0,0-8.72,1.05,10.35,10.35,0,0,0-3.45,3.29,6.25,6.25,0,0,0,.25,2.91,6,6,0,0,0,2.81,3.2l.14,0v0l-.11.09a6,6,0,0,0,.88,4.16,6.07,6.07,0,0,0,2.17,2,10.28,10.28,0,0,0,4.71-.79A12,12,0,0,0,385.08,186.51Z"/><path class="cls-5" d="M410.79,190.35a9,9,0,0,1-.26-3.43l-23-16.92a9,9,0,0,1-3.4.78,12,12,0,0,1-8.42-2.52,10.22,10.22,0,0,1-2.84-3.83,6.33,6.33,0,0,1,.74-2.82,6,6,0,0,1,3.31-2.67l.06-.09a6.08,6.08,0,0,1,1.57-3.95,6.26,6.26,0,0,1,2.48-1.54,10.17,10.17,0,0,1,4.5,1.57,12,12,0,0,1,4.9,7.29,9.13,9.13,0,0,1,.28,3.37l23,17a9,9,0,0,1,3.35-.77,12,12,0,0,1,8.41,2.53,10.17,10.17,0,0,1,2.84,3.82,6.08,6.08,0,0,1-.74,2.83,6,6,0,0,1-3.31,2.67l-.13-.06v0h0l.09.11a6,6,0,0,1-1.57,4,6.13,6.13,0,0,1-2.48,1.54,10.18,10.18,0,0,1-4.49-1.57A12,12,0,0,1,410.79,190.35Z"/><polygon class="cls-5" points="394.96 144.5 393.61 146.74 407.21 148.56 407.21 146.13 394.96 144.5"/><polygon class="cls-7" points="331.98 169.06 332.98 153.5 353.45 132.55 371.93 130.6 368.73 144.07 347.19 163.39 331.98 169.06"/><polygon class="cls-8" points="336.21 140.71 335 134.99 345.82 124.19 357.62 120.49 357.14 125.82 345.43 136.22 336.21 140.71"/><path class="cls-9" d="M484.93,231.58l15.64,4.13c.83,14.55,1.31,29.92,1.28,46,0,15.05-.5,29.44-1.28,43.1a59.86,59.86,0,0,1-4.18-15.62,8.45,8.45,0,0,1-.66,3.48,8.55,8.55,0,0,1-3,3.67,303.11,303.11,0,0,1-7.82-84.8Z"/><path class="cls-9" d="M327.07,209a394.81,394.81,0,0,1,163,10.27,13.31,13.31,0,0,1,0,17.23,349.54,349.54,0,0,0-161-10,10.28,10.28,0,0,1-6.64-10C322.73,211.82,326.61,209.26,327.07,209Z"/><path class="cls-10" d="M512.94,231.79c-.07-4.09-3.75-6.64-4.15-6.9A397,397,0,0,0,396.93,205h-.39q43.07,6.92,42.87,12.22-.12,3.24-16.51,5.87h0c11.31,1.16,23.62,2.94,36.71,5.61a373.41,373.41,0,0,1,44.48,12C509.35,240,513,235.93,512.94,231.79Z"/><path class="cls-10" d="M496.4,309.29a58.5,58.5,0,0,0,1.59,8,59.55,59.55,0,0,0,2.58,7.52c.78-13.66,1.25-28.05,1.28-43.1,0-16.12-.45-31.49-1.28-46l-15.64-4.13a191.73,191.73,0,0,1,11.47,77.71Z"/></g></svg>