<svg id="Layer_2" data-name="Layer 2" xmlns="http://www.w3.org/2000/svg" viewBox="0 0 841.89 595.28"><defs><style>.cls-1{fill:#d65a38;}.cls-2{fill:#b22f26;}.cls-3{fill:#413e3c;}.cls-4{fill:#fbe0d4;}.cls-5{fill:#e4bdb5;}.cls-6{fill:#45413e;}.cls-7{fill:#5e5d5a;}.cls-8{fill:#d0d946;}.cls-9{fill:#ef806e;}.cls-10{fill:#9ed2c7;}.cls-11{fill:#eacac4;}</style></defs><title>hat_3.1-01</title><g id="hat_3.1"><path class="cls-1" d="M468.61,160.66c-12.47-3.46-30.92-8.59-52-2.82-10.32,2.83-22.83,8.71-24,6.59-.58-1.06,2.21-3.09,1.59-4.71-.89-2.33-9.32-1.47-14.68-.38-40.47,8.29-51.2,39.53-51.2,39.53-5.9,17.19-2.24,36.81,1.6,37.46,1.51.26,2.41-2.5,5.93-5.93,7.1-6.91,16.23-8.22,20.31-8.82,11.11-1.63,30.65.4,33.9,11.08,2.37,7.79-4.61,18-8.66,19.48-.25.09-2,.75-4,1.39-3.35,1.06-4.89,1.28-4.83,1.62.25,1.65,38.73,3.23,44.33-10.91,2.86-7.24-3.38-19.24-11-24.85-3.34-2.46-7.59-4.15-7.4-4.61.25-.61,7.89,2,10,2.73,38.83,13.22,58.24,19.83,65.69,19.57,3-.1,7-.48,10.17,2.07,7,5.61,1.52,18.44,6.23,21.28,5.25,3.16,20.33-5.84,26.59-19.26,11.23-24-7.36-59-23.79-61.31-3.62-.52-9.49.22-9.6-.57-.14-1.07,10.77-1.86,11.3-5.08C495.8,170.28,480.7,164,468.61,160.66Z"/><path class="cls-2" d="M490.65,260.42c9.36,2.07,21.54-8.44,26.59-19.25,11.23-24-7.37-59-23.79-61.32-3.62-.51-9.49.23-9.6-.56-.15-1.07,10.76-1.87,11.3-5.08.65-3.94-14.45-10.2-26.54-13.56-8.55-2.37-19.9-5.52-33-5.42a75,75,0,0,1,28.95,8,73.23,73.23,0,0,1,12.84,8.41,93.93,93.93,0,0,0-48.56,12.42,42.65,42.65,0,0,1,18.43,8.32,43.92,43.92,0,0,1,15.39,25.27c-.45-.21-1.19-.57-2.12-1-20.2-9.08-40.15-8-54.73-7.11-3.4.22-8.34.62-14.31,1.46,11.33,7.18,17.35,17.92,15,26.26-1.76,6.17-7.77,9.76-11.92,12.24a41.08,41.08,0,0,1-22,5.59h0c.25,1.64,38.73,3.23,44.33-10.92,2.86-7.24-3.38-19.24-11-24.85-4-2.91-7.61-3.85-7.4-4.61.42-1.48,14.9.81,28.11,4.62,11.3,3.26,18.38,5.3,26.73,10.54,10.86,6.81,23.12,18.57,27.39,22.78C486,257.83,487.35,259.69,490.65,260.42Z"/><path class="cls-3" d="M309.36,248c-2.23-6.46-1.4-9.89,0-11.84,1.9-2.58,5.64-3.62,5.41-4.29-.17-.51-2.37-.23-3.19-.06-6.35,1.34-12.95,13.9-13.29,26.26-.45,16.75,10.58,33.22,15.95,32.12,1.48-.3,3.26-2.07,4.49-8.76Q314.06,264.72,309.36,248Z"/><ellipse class="cls-4" cx="500.71" cy="268.89" rx="28.44" ry="35.58"/><path class="cls-5" d="M494.3,279.53A14.49,14.49,0,0,0,493,285.6c.16,1.91.79,2.53.57,4.24a7.51,7.51,0,0,1-2.56,4.59c-2,1.57-5.23,2.07-6.41,2.25-.75.12-1,.11-1.06.28-.4,1.06,6.8,6.64,15.18,7.56,1.39.15,10.06,1,17.29-4.94,6.53-5.34,7.72-12.75,8.76-19.2,1-6,2.75-17.14-2.26-20.33C514.71,255.07,496.67,273.67,494.3,279.53Z"/><ellipse class="cls-6" cx="507.35" cy="268.89" rx="18.65" ry="27.72"/><ellipse class="cls-7" cx="519.35" cy="268.89" rx="18.65" ry="27.72"/><path class="cls-6" d="M507.53,241.17l-1.15-76.53H329.32v38a58.89,58.89,0,0,1,5.59-10.86,50.73,50.73,0,0,1,3.57-4.7,17.44,17.44,0,0,0,2.11-2.36,9.44,9.44,0,0,0,1-6.36,13,13,0,0,0-1.05-3.7h155.9l1.72,66.47C498,243,498,245,498,245h0"/><ellipse class="cls-8" cx="521.71" cy="288.89" rx="2.82" ry="2.5"/><ellipse class="cls-9" cx="513.11" cy="286.39" rx="2.82" ry="2.5"/><ellipse class="cls-10" cx="508.41" cy="279.46" rx="2.82" ry="2.5"/><path class="cls-11" d="M315.6,240.85a46.1,46.1,0,0,0-4.1-4.13l14.47-.81-7.25-11.2a46,46,0,0,0-6.46,7.1,47.4,47.4,0,0,0-3.24,5.06h0l-.08.09a2.58,2.58,0,0,0-.31.39c-.36.53-9.21,19.11,0,41.71a60,60,0,0,0,9.84,16.13c.14-5.51.43-11.31.93-17.34.81-10,2.07-19.25,3.55-27.71A75.85,75.85,0,0,0,315.6,240.85Z"/></g></svg>