<svg id="Layer_2" data-name="Layer 2" xmlns="http://www.w3.org/2000/svg" xmlns:xlink="http://www.w3.org/1999/xlink" viewBox="0 0 841.89 595.28"><defs><style>.cls-1{fill:#e4ca54;}.cls-2{fill:#df9e00;}.cls-3{fill:#b59683;}.cls-4{fill:#7b5c44;}.cls-5{fill:url(#linear-gradient);}.cls-6{fill:#786251;}.cls-7{fill:#554b3f;}.cls-8{fill:#776a61;}.cls-9{fill:#b09c5f;stroke:#756a62;}.cls-10,.cls-11,.cls-12,.cls-9{stroke-linecap:square;stroke-miterlimit:10;}.cls-10,.cls-12,.cls-9{stroke-width:4px;}.cls-10,.cls-11,.cls-12{fill:none;}.cls-10{stroke:#7b5c44;}.cls-11{stroke:#e9d4c3;stroke-width:2px;}.cls-12{stroke:#574e45;}.cls-13{fill:#3b3225;}</style><linearGradient id="linear-gradient" x1="482.35" y1="212.8" x2="539.02" y2="212.8" gradientTransform="translate(36.64 -89.6) rotate(10.24)" gradientUnits="userSpaceOnUse"><stop offset="0.01" stop-color="#776a61"/><stop offset="0.9" stop-color="#b59683"/></linearGradient></defs><title>hat_2.3-01</title><g id="hat_2.3"><path class="cls-1" d="M396.43,200.69a22,22,0,0,1,2.12-9.38c-1.31.39-2.41.76-3.24,1-20.11,6.65-39.26,24-36.09,33.29,1,3,7.79,5.78,21.3,11.27,13.92,5.65,15.05,4.64,15.31,4.28,2.13-3-13.48-18.32-13.29-18.5s15,11.72,23.59,16.92c1,.58,3.11,1.85,5.1,1.13,2.5-.9,3.33-4.42,3.82-6.63a28.3,28.3,0,0,0,.52-9.13C404.23,220.56,396.43,211.34,396.43,200.69Z"/><path class="cls-2" d="M360.13,227c-.47,1.11,32.81,18.47,35.7,14.14,2.18-3.27-13.33-18.46-13.29-18.5s12.58,13.62,24.75,17.56c1.12.36,3.1.92,4.83,0,4.73-2.48,3.21-13.63,3.05-14.83-2.49-18.24-22.95-31.18-25.22-29.17s14,20.56,9.6,25.41c-3.92,4.33-20.95-6-22.78-3-1.58,2.54,10.41,11.14,8.85,13.93C383.57,236.24,360.51,226.14,360.13,227Z"/><path class="cls-3" d="M513,258.43c-1.89,0-18.86-.21-35.05-7.55-3-1.38-10.83-5.17-18.8-9.46-.91-.49-1.6-.86-2.28-1.24-1-.53-1.95-1.06-3.57-1.92-7.4-3.95-13.23-6.8-16-8.17-11.87-5.79-28.24-13.24-32.31-15-19.45-8.43-47.78-13.46-70.54-17.5-15.11-2.68-33.83-6-36-8.75.73-.81,5.46-4.41,33.64-8.69a163.57,163.57,0,0,1,26.8-1.83c9,0,20.6.36,35.19.89,49.48,1.83,57.78,3,65.55,4.69,21.24,4.62,35.76,11.25,42.53,14.78,10.85,5.68,33.42,17.48,39.28,37.4,1.09,3.72,2.93,10-.61,14.81-5.41,7.42-19.89,7.5-27.67,7.55Z"/><path class="cls-4" d="M358.87,180.31c9,0,20.54.35,35.11.89,49.31,1.82,57.53,3,65.2,4.64,21,4.58,35.34,11.12,42,14.61,10.61,5.54,32.67,17.08,38.29,36.19,1.34,4.55,2.42,9.31-.31,13.06-4.81,6.6-18.64,6.68-26.08,6.73H513c-1.84,0-18.42-.21-34.22-7.38-3-1.36-10.75-5.12-18.68-9.39l-2.25-1.22c-1-.54-2-1.08-3.61-1.95-7.45-4-13.29-6.82-16.1-8.19-11.9-5.82-28.31-13.28-32.39-15.05-19.66-8.53-48.12-13.58-71-17.64-9.45-1.67-17.61-3.12-24-4.59a69.75,69.75,0,0,1-8.15-2.28c3.61-1.46,11.76-3.89,29.76-6.63a162.89,162.89,0,0,1,26.48-1.8h0m0-4a164.73,164.73,0,0,0-27.08,1.85c-5.41.82-35.67,5.41-35.45,10.72.34,8.3,70.69,11.94,107.84,28,4.38,1.89,20.76,9.37,32.23,15,3.13,1.53,8.73,4.27,16,8.13,2.74,1.46,3.62,2,5.84,3.16,8.5,4.58,16.25,8.3,18.93,9.52,16.64,7.54,34.19,7.73,35.87,7.73h.13c8.24-.05,23.27-.14,29.27-8.38,4-5.53,2.18-12.26.92-16.54-6-20.33-27.83-32.1-40.28-38.61-3.8-2-19-9.74-43-15-7.71-1.68-15.21-2.85-65.91-4.72-15.7-.58-26.68-.9-35.26-.9Z"/><path class="cls-5" d="M477.82,199.6a3.46,3.46,0,0,0,1.55,1c3.29,1.27,17.2,9.21,23.23,13.3,1.43,1,4.86,3.89,11.71,9.73,8.65,7.37,10.2,9.09,11.22,8.65,2.66-1.17,1.06-14-7.75-22.78-2.07-2-9.72-6.14-25-14.31,0,0-1.31-.7-7.44-3.45s-8-3.34-8.7-2.76.4,1.57.69,4.78c.07.76-.12,1.49-.11,3.11A3.93,3.93,0,0,0,477.82,199.6Z"/><path class="cls-6" d="M349.48,201c7.13,1.78,13.54,3.07,19.29,3.94,9.15,1.37,24,2.76,40.91,10h0c.07,0,30.29,1.56,58.87-8.85,5.35-1.95,8.24-4,9.27-6.53.89-2.17-.07-3.6-.67-7.45-.36-2.32-.24-4.81,0-9.79,1-21.44,6.68-30.5,0-36.82-9.52-9-38.83-7.51-52.26-5.59-10.34,1.48-19.11,4.32-29.76,1.4-7.69-2.11-8.11-5-14.56-5.59-11.29-1.12-22.89,6.33-28.44,13.05a24.09,24.09,0,0,0-5.29,11.65C345.38,168.2,344.2,181.86,349.48,201Z"/><path class="cls-7" d="M467.65,248.57c1.17-1.63-19.7-18.88-36.52-31.65-18.44-14-27.67-21-34.26-24.66-8.85-4.92-61.08-32.48-98.18-12.3-18.61,10.13-34.54,32.85-27.08,51.49,0,0,3.77,9.41,40.18,28,.28.14,1.76.86,2.33.44,1.49-1.13-6.56-7.91-6.33-17a14.72,14.72,0,0,1,1.25-5.61c.08-.16.16-.33.26-.52,1.22-2.28,1.78-3.45,5.69-6.37,4.1-3.07,1.87-7.36,6.4-13.61,3.09-4.28,7.12-6.4,14.54-10.33,3-1.56,4.52-2.51,7-3a25.94,25.94,0,0,1,13.34.51,14.92,14.92,0,0,1,2.25.92,27.79,27.79,0,0,1,5.79,3.9c2.25,2,5,2.82,10.41,4.47,17.19,5.23,33,9.89,43.41,13.47a285.54,285.54,0,0,1,27,10.95C460.07,244.66,467,249.47,467.65,248.57Z"/><path class="cls-8" d="M541.27,230.05a13.16,13.16,0,0,1,.92,9.4c-2.27,7.25-11.43,10.24-15.64,11.83-11.9,4.49-23.3,2.23-35.63-.21A126.19,126.19,0,0,1,460,240.63a43.59,43.59,0,0,0,7.62,7.94c16.24,13.13,38.21,12.17,45.49,11.86,12.64-.55,23.9-1,29.27-8.38C548.73,243.39,542.21,231.69,541.27,230.05Z"/><line class="cls-9" x1="482.56" y1="235.75" x2="467.7" y2="240.84"/><line class="cls-9" x1="471.04" y1="232.38" x2="479.22" y2="244.2"/><line class="cls-9" x1="509.59" y1="240.53" x2="498.1" y2="250.09"/><line class="cls-9" x1="497.45" y1="241.18" x2="510.24" y2="249.44"/><line class="cls-9" x1="531.52" y1="235.59" x2="526.98" y2="248.78"/><line class="cls-9" x1="521.33" y1="241.3" x2="537.18" y2="243.07"/><line class="cls-10" x1="382.94" y1="194.75" x2="368.08" y2="199.84"/><line class="cls-10" x1="371.42" y1="191.39" x2="379.6" y2="203.2"/><line class="cls-10" x1="357.17" y1="188.84" x2="342.32" y2="193.93"/><line class="cls-10" x1="345.65" y1="185.48" x2="353.84" y2="197.3"/><line class="cls-10" x1="330.62" y1="185.28" x2="319.08" y2="194.8"/><line class="cls-10" x1="318.48" y1="185.89" x2="331.22" y2="194.19"/><line class="cls-10" x1="302.7" y1="191.64" x2="297.63" y2="204.69"/><line class="cls-10" x1="292.28" y1="197.05" x2="308.05" y2="199.28"/><line class="cls-10" x1="282.95" y1="212.02" x2="289.09" y2="224.72"/><line class="cls-10" x1="279.22" y1="221.98" x2="292.82" y2="214.75"/><line class="cls-10" x1="284.14" y1="235.61" x2="294.04" y2="240.97"/><line class="cls-10" x1="286.8" y1="242.92" x2="291.38" y2="233.66"/><line class="cls-10" x1="401.21" y1="204.99" x2="402.72" y2="213.85"/><line class="cls-10" x1="397" y1="210.76" x2="406.93" y2="208.08"/><ellipse class="cls-11" cx="453.53" cy="189.43" rx="3.31" ry="2.85"/><ellipse class="cls-11" cx="465.52" cy="181.34" rx="3.31" ry="2.85"/><ellipse class="cls-11" cx="465.52" cy="195.94" rx="3.31" ry="2.85"/><line class="cls-12" x1="375.51" y1="140.7" x2="379.78" y2="145.16"/><line class="cls-12" x1="387.31" y1="144.03" x2="391.58" y2="148.5"/><line class="cls-12" x1="399.08" y1="147.02" x2="403.35" y2="151.49"/><line class="cls-12" x1="410.8" y1="148.05" x2="415.07" y2="152.51"/><line class="cls-12" x1="422.88" y1="146.27" x2="427.15" y2="150.73"/><line class="cls-12" x1="432.87" y1="144.03" x2="437.15" y2="148.5"/><line class="cls-12" x1="443.85" y1="144.03" x2="448.12" y2="148.5"/><line class="cls-12" x1="454.71" y1="144.03" x2="458.98" y2="148.5"/><line class="cls-12" x1="466.13" y1="145.82" x2="470.4" y2="150.28"/><line class="cls-12" x1="365.95" y1="142.93" x2="370.22" y2="147.4"/><line class="cls-12" x1="359.32" y1="148.05" x2="363.59" y2="152.51"/><line class="cls-12" x1="426.5" y1="205.85" x2="430.78" y2="210.31"/><line class="cls-12" x1="437.15" y1="203.62" x2="441.42" y2="208.08"/><line class="cls-12" x1="447.22" y1="201.38" x2="451.49" y2="205.85"/><line class="cls-12" x1="454.71" y1="199.81" x2="458.98" y2="204.27"/><path class="cls-13" d="M349.48,201a23.43,23.43,0,0,0-3.53-.49c-38.5-2.19-48.16,15.25-48.16,15.25-5.52,10-.79,22.53.31,25.47,2.72,7.25,7.06,12.47,12.52,17.64,1,.56,2.07,1.11,3.23,1.64A44.36,44.36,0,0,0,321,263c.39-2.3.76-4.63,1.11-7q.48-3.22.88-6.36l-13.38-13.33L326,235.9l-6.27-9.69,11,.38c.76-1.59,1.52-2.94,2.18-4a43.94,43.94,0,0,1,2.82-4.09c1-1.24,1.94-2.29,2.19-2.55l.28-.31a17.51,17.51,0,0,1,1-3.3,9.66,9.66,0,0,1,.83-1.4,12,12,0,0,1,3-3c.28-1.28.55-2.56.82-3.84a25.47,25.47,0,0,1,6.77-1.42,8.45,8.45,0,0,1,4.78.86,7.28,7.28,0,0,1,.82.54A19.86,19.86,0,0,0,349.48,201Z"/></g></svg>