<svg id="Layer_2" data-name="Layer 2" xmlns="http://www.w3.org/2000/svg" viewBox="0 0 841.89 595.28"><defs><style>.cls-1{fill:#3c3216;}.cls-2{fill:#534a1a;}</style></defs><title>hat_4.1-01</title><g id="hat_4.1"><path class="cls-1" d="M383.34,226.35l-92.86-62.88,73.1,25.27-30-41.78,51.9,42.47,5.4-38.26,19.36,35.31,16.05-11.33-2.73,25.23a38.61,38.61,0,0,0-12.51.92,39.29,39.29,0,0,0-16.38,8.49A39.72,39.72,0,0,0,383.34,226.35Z"/><polygon class="cls-2" points="290.44 163.7 381.46 201.7 363.63 188.69 290.44 163.7"/><polygon class="cls-2" points="333.44 147.02 386.42 194.24 385.5 189.29 333.44 147.02"/><polygon class="cls-2" points="390.76 151.02 404.9 192.15 410.24 186.25 390.76 151.02"/><path class="cls-2" d="M426.25,175.15l-6,25.09,3.29.18Q424.92,187.79,426.25,175.15Z"/></g></svg>