<svg id="Layer_2" data-name="Layer 2" xmlns="http://www.w3.org/2000/svg" viewBox="0 0 841.89 595.28"><defs><style>.cls-1{fill:#587900;}.cls-2{fill:#2c3d00;}</style></defs><title>hat_4.2-01</title><g id="hat_4.2"><path class="cls-1" d="M383.36,226.35,290.5,163.47l73.1,25.27-30-41.78,51.9,42.47,5.41-38.26,19.35,35.31,16-11.33q-1.36,12.61-2.72,25.23a38.66,38.66,0,0,0-12.52.92,39.29,39.29,0,0,0-16.38,8.49A39.72,39.72,0,0,0,383.36,226.35Z"/><polygon class="cls-2" points="290.46 163.7 381.48 201.7 363.65 188.69 290.46 163.7"/><polygon class="cls-2" points="333.46 147.02 386.44 194.24 385.52 189.29 333.46 147.02"/><polygon class="cls-2" points="390.78 151.02 404.92 192.15 410.26 186.25 390.78 151.02"/><path class="cls-2" d="M426.27,175.15l-6,25.09,3.29.18Q424.94,187.79,426.27,175.15Z"/></g></svg>