<svg id="Layer_2" data-name="Layer 2" xmlns="http://www.w3.org/2000/svg" xmlns:xlink="http://www.w3.org/1999/xlink" viewBox="0 0 841.89 595.28"><defs><style>.cls-1{fill:#3c3216;}.cls-2{fill:#1e190b;}.cls-3{fill:#b59683;}.cls-4{fill:#7b5c44;}.cls-5{fill:url(#linear-gradient);}.cls-6{fill:#786251;}.cls-7{fill:#554b3f;}.cls-8{fill:#776a61;}.cls-9{fill:#b09c5f;stroke:#756a62;}.cls-10,.cls-11,.cls-12,.cls-9{stroke-linecap:square;stroke-miterlimit:10;}.cls-10,.cls-12,.cls-9{stroke-width:4px;}.cls-10,.cls-11,.cls-12{fill:none;}.cls-10{stroke:#7b5c44;}.cls-11{stroke:#e9d4c3;stroke-width:2px;}.cls-12{stroke:#574e45;}.cls-13{fill:#3b3225;}</style><linearGradient id="linear-gradient" x1="482.32" y1="212.81" x2="538.99" y2="212.81" gradientTransform="translate(36.64 -89.6) rotate(10.24)" gradientUnits="userSpaceOnUse"><stop offset="0.01" stop-color="#776a61"/><stop offset="0.9" stop-color="#b59683"/></linearGradient></defs><title>hat_2.2-01</title><g id="hat_2.2"><path class="cls-1" d="M396.4,200.69a22,22,0,0,1,2.12-9.38c-1.31.4-2.41.76-3.24,1-20.11,6.65-39.26,24-36.09,33.29,1,3,7.79,5.78,21.3,11.26,13.92,5.66,15.05,4.65,15.31,4.29,2.13-3-13.48-18.32-13.29-18.5s15,11.72,23.59,16.91c1,.59,3.11,1.85,5.1,1.14,2.5-.9,3.33-4.42,3.82-6.64a28.24,28.24,0,0,0,.52-9.13C404.2,220.56,396.4,211.35,396.4,200.69Z"/><path class="cls-2" d="M360.1,227.05c-.47,1.1,32.81,18.46,35.7,14.14,2.18-3.28-13.33-18.46-13.29-18.5s12.58,13.62,24.75,17.56c1.12.36,3.1.92,4.83,0,4.73-2.47,3.21-13.62,3.05-14.82-2.49-18.24-22.95-31.18-25.22-29.18s14,20.57,9.6,25.42c-3.92,4.32-20.95-6-22.78-3-1.58,2.55,10.41,11.14,8.85,13.93C383.54,236.24,360.48,226.15,360.1,227.05Z"/><path class="cls-3" d="M513,258.44c-1.89,0-18.86-.22-35.05-7.56-3-1.37-10.82-5.16-18.8-9.45l-2.28-1.24-3.57-1.93c-7.43-4-13.24-6.8-16-8.16-11.88-5.81-28.24-13.25-32.3-15-19.46-8.43-47.78-13.46-70.54-17.5-15.11-2.68-33.83-6-36-8.75.73-.82,5.46-4.41,33.63-8.69a163.71,163.71,0,0,1,26.81-1.84c9,0,20.6.36,35.19.9,49.48,1.83,57.78,3,65.55,4.68,21.24,4.63,35.76,11.26,42.53,14.79,10.85,5.67,33.42,17.47,39.28,37.4,1.09,3.72,2.93,9.95-.61,14.8-5.41,7.42-19.89,7.51-27.67,7.55Z"/><path class="cls-4" d="M358.83,180.31c9,0,20.55.36,35.11.9,49.32,1.82,57.54,3,65.21,4.64,21,4.58,35.34,11.11,42,14.6,10.61,5.55,32.67,17.08,38.29,36.19,1.34,4.56,2.42,9.32-.31,13.07-4.81,6.6-18.64,6.68-26.08,6.72H513c-1.84,0-18.42-.21-34.22-7.38-3-1.36-10.75-5.12-18.68-9.39l-2.25-1.22c-1-.54-2-1.08-3.61-1.95-7.45-4-13.29-6.83-16.1-8.2-11.9-5.81-28.31-13.28-32.39-15.05-19.67-8.52-48.12-13.57-71-17.63-9.45-1.68-17.61-3.13-24-4.6a70.55,70.55,0,0,1-8.14-2.27c3.6-1.46,11.76-3.9,29.76-6.63a161.7,161.7,0,0,1,26.48-1.81m0-4a163.53,163.53,0,0,0-27.08,1.86c-5.42.82-35.67,5.41-35.45,10.71.34,8.31,70.69,11.94,107.84,28,4.38,1.9,20.76,9.38,32.23,15,3.13,1.53,8.73,4.27,16,8.13,2.74,1.46,3.62,2,5.84,3.16,8.5,4.57,16.25,8.3,18.92,9.51,16.65,7.55,34.2,7.74,35.88,7.74h.13c8.24,0,23.27-.13,29.27-8.37,4-5.54,2.18-12.26.92-16.54-6-20.33-27.83-32.11-40.28-38.61-3.8-2-19-9.75-43-15-7.71-1.68-15.21-2.86-65.91-4.73-15.7-.58-26.68-.9-35.26-.9Z"/><path class="cls-5" d="M477.78,199.61a3.52,3.52,0,0,0,1.56,1c3.29,1.26,17.2,9.21,23.23,13.3,1.43,1,4.86,3.89,11.71,9.73,8.65,7.37,10.2,9.09,11.22,8.64,2.66-1.16,1.06-14-7.75-22.77-2.07-2.06-9.72-6.14-25-14.32,0,0-1.3-.69-7.43-3.44s-8-3.34-8.7-2.76.4,1.57.69,4.78c.07.76-.12,1.49-.11,3.11A3.94,3.94,0,0,0,477.78,199.61Z"/><path class="cls-6" d="M349.45,201c7.13,1.77,13.54,3.07,19.29,3.93,9.15,1.38,24,2.76,40.91,10.05h0c.07,0,30.29,1.55,58.87-8.85,5.35-1.95,8.24-4,9.26-6.53.9-2.17-.06-3.6-.66-7.46-.36-2.32-.24-4.8,0-9.78,1-21.44,6.68-30.5,0-36.82-9.52-9-38.83-7.51-52.26-5.59-10.34,1.47-19.11,4.32-29.76,1.4-7.69-2.11-8.11-5-14.56-5.6-11.29-1.11-22.89,6.34-28.44,13.05a24.17,24.17,0,0,0-5.29,11.65C345.35,168.2,344.17,181.87,349.45,201Z"/><path class="cls-7" d="M467.62,248.57c1.16-1.62-19.7-18.87-36.52-31.65-18.44-14-27.67-21-34.26-24.65-8.85-4.92-61.08-32.48-98.18-12.3-18.61,10.12-34.54,32.85-27.08,51.48,0,0,3.77,9.41,40.18,28.05.28.14,1.76.86,2.33.43,1.49-1.12-6.56-7.91-6.33-17a14.53,14.53,0,0,1,1.25-5.61l.26-.52c1.22-2.29,1.78-3.45,5.69-6.38,4.1-3.06,1.87-7.35,6.4-13.61,3.09-4.27,7.12-6.4,14.54-10.32,3-1.56,4.52-2.51,7-3a25.83,25.83,0,0,1,13.34.51,15,15,0,0,1,2.25.91,28.1,28.1,0,0,1,5.79,3.91c2.25,2,5,2.82,10.41,4.46,17.19,5.24,33,9.9,43.41,13.47a284.92,284.92,0,0,1,27,11C460,244.67,467,249.48,467.62,248.57Z"/><path class="cls-8" d="M541.24,230.06a13.14,13.14,0,0,1,.92,9.39c-2.27,7.26-11.43,10.25-15.65,11.84-11.89,4.49-23.29,2.23-35.62-.21A126.19,126.19,0,0,1,460,240.64a43.6,43.6,0,0,0,7.62,7.93c16.24,13.13,38.21,12.18,45.49,11.86,12.64-.54,23.9-1,29.27-8.37C548.7,243.4,542.18,231.7,541.24,230.06Z"/><line class="cls-9" x1="482.52" y1="235.75" x2="467.67" y2="240.84"/><line class="cls-9" x1="471.01" y1="232.39" x2="479.19" y2="244.21"/><line class="cls-9" x1="509.56" y1="240.54" x2="498.07" y2="250.1"/><line class="cls-9" x1="497.42" y1="241.19" x2="510.21" y2="249.45"/><line class="cls-9" x1="531.49" y1="235.6" x2="526.95" y2="248.79"/><line class="cls-9" x1="521.29" y1="241.3" x2="537.15" y2="243.08"/><line class="cls-10" x1="382.9" y1="194.76" x2="368.05" y2="199.85"/><line class="cls-10" x1="371.39" y1="191.39" x2="379.57" y2="203.21"/><line class="cls-10" x1="357.14" y1="188.85" x2="342.29" y2="193.94"/><line class="cls-10" x1="345.62" y1="185.49" x2="353.81" y2="197.3"/><line class="cls-10" x1="330.59" y1="185.29" x2="319.05" y2="194.8"/><line class="cls-10" x1="318.45" y1="185.89" x2="331.19" y2="194.2"/><line class="cls-10" x1="302.66" y1="191.65" x2="297.6" y2="204.7"/><line class="cls-10" x1="292.25" y1="197.05" x2="308.02" y2="199.29"/><line class="cls-10" x1="282.92" y1="212.02" x2="289.06" y2="224.73"/><line class="cls-10" x1="279.19" y1="221.99" x2="292.79" y2="214.76"/><line class="cls-10" x1="284.11" y1="235.62" x2="294.01" y2="240.98"/><line class="cls-10" x1="286.77" y1="242.93" x2="291.35" y2="233.67"/><line class="cls-10" x1="401.18" y1="205" x2="402.69" y2="213.86"/><line class="cls-10" x1="396.97" y1="210.77" x2="406.9" y2="208.09"/><ellipse class="cls-11" cx="453.5" cy="189.44" rx="3.31" ry="2.85"/><ellipse class="cls-11" cx="465.49" cy="181.35" rx="3.31" ry="2.85"/><ellipse class="cls-11" cx="465.49" cy="195.95" rx="3.31" ry="2.85"/><line class="cls-12" x1="375.48" y1="140.71" x2="379.75" y2="145.17"/><line class="cls-12" x1="387.28" y1="144.04" x2="391.55" y2="148.51"/><line class="cls-12" x1="399.05" y1="147.03" x2="403.32" y2="151.5"/><line class="cls-12" x1="410.77" y1="148.06" x2="415.04" y2="152.52"/><line class="cls-12" x1="422.85" y1="146.27" x2="427.12" y2="150.74"/><line class="cls-12" x1="432.84" y1="144.04" x2="437.12" y2="148.51"/><line class="cls-12" x1="443.82" y1="144.04" x2="448.09" y2="148.51"/><line class="cls-12" x1="454.68" y1="144.04" x2="458.95" y2="148.51"/><line class="cls-12" x1="466.1" y1="145.82" x2="470.37" y2="150.29"/><line class="cls-12" x1="365.92" y1="142.94" x2="370.19" y2="147.4"/><line class="cls-12" x1="359.29" y1="148.06" x2="363.56" y2="152.52"/><line class="cls-12" x1="426.47" y1="205.86" x2="430.75" y2="210.32"/><line class="cls-12" x1="437.12" y1="203.62" x2="441.39" y2="208.09"/><line class="cls-12" x1="447.19" y1="201.39" x2="451.46" y2="205.86"/><line class="cls-12" x1="454.68" y1="199.82" x2="458.95" y2="204.28"/><path class="cls-13" d="M349.45,201a24.2,24.2,0,0,0-3.53-.5c-38.5-2.18-48.16,15.26-48.16,15.26-5.52,10-.8,22.53.31,25.47,2.71,7.25,7.06,12.47,12.52,17.64,1,.55,2.07,1.11,3.23,1.63A42.49,42.49,0,0,0,321,263q.58-3.43,1.11-7,.48-3.22.88-6.36l-13.38-13.34,16.41-.41-6.27-9.69,11,.38c.77-1.59,1.53-2.94,2.19-4a43.94,43.94,0,0,1,2.82-4.09c1-1.24,1.94-2.29,2.19-2.56l.28-.3a17.83,17.83,0,0,1,1-3.31,9.32,9.32,0,0,1,.83-1.4,11.85,11.85,0,0,1,3-3c.27-1.28.55-2.56.82-3.85a25.23,25.23,0,0,1,6.77-1.41,8.36,8.36,0,0,1,4.78.86,6.12,6.12,0,0,1,.82.54A19.86,19.86,0,0,0,349.45,201Z"/></g></svg>