<svg id="Layer_2" data-name="Layer 2" xmlns="http://www.w3.org/2000/svg" viewBox="0 0 841.89 595.28"><defs><style>.cls-1{fill:#ea5742;}.cls-2{fill:#b04132;}</style></defs><title>hat_4.3-01</title><g id="hat_4.3"><path class="cls-1" d="M383.38,226.35l-92.86-62.88,73.1,25.27-30-41.78,51.9,42.47,5.41-38.26,19.35,35.31,16.06-11.33-2.73,25.23a38.66,38.66,0,0,0-12.52.92,39.29,39.29,0,0,0-16.38,8.49A39.72,39.72,0,0,0,383.38,226.35Z"/><polygon class="cls-2" points="290.48 163.7 381.5 201.7 363.67 188.69 290.48 163.7"/><polygon class="cls-2" points="333.48 147.02 386.46 194.24 385.54 189.29 333.48 147.02"/><polygon class="cls-2" points="390.8 151.02 404.94 192.15 410.29 186.25 390.8 151.02"/><path class="cls-2" d="M426.3,175.15q-3,12.54-6,25.09l3.29.18Q425,187.79,426.3,175.15Z"/></g></svg>