<svg id="Layer_2" data-name="Layer 2" xmlns="http://www.w3.org/2000/svg" xmlns:xlink="http://www.w3.org/1999/xlink" viewBox="0 0 841.89 595.28"><defs><style>.cls-1{fill:#d19875;}.cls-2,.cls-3{fill:#966040;}.cls-3{stroke:#856049;}.cls-13,.cls-14,.cls-15,.cls-16,.cls-17,.cls-18,.cls-3,.cls-4,.cls-8{stroke-miterlimit:10;stroke-width:4px;}.cls-4{fill:#6b1911;stroke:#5a221d;}.cls-5{fill:#ab8576;}.cls-6{fill:#806459;}.cls-7{fill:none;stroke:#443f37;stroke-linecap:round;stroke-linejoin:bevel;stroke-width:5px;}.cls-8,.cls-9{fill:#fdf6e4;}.cls-8{stroke:#fff0c7;}.cls-10{fill:url(#linear-gradient);}.cls-11{fill:url(#linear-gradient-2);}.cls-12{fill:url(#linear-gradient-3);}.cls-13,.cls-14,.cls-15,.cls-16,.cls-17,.cls-18{stroke:#d5bcc6;}.cls-13{fill:url(#linear-gradient-4);}.cls-14{fill:url(#linear-gradient-5);}.cls-15{fill:url(#linear-gradient-6);}.cls-16{fill:url(#linear-gradient-7);}.cls-17{fill:url(#linear-gradient-8);}.cls-18{fill:url(#linear-gradient-9);}</style><linearGradient id="linear-gradient" x1="340.17" y1="215.96" x2="356.77" y2="201.84" gradientTransform="translate(-36.49 83.63) rotate(-13.42)" gradientUnits="userSpaceOnUse"><stop offset="0" stop-color="#d5bcc6"/><stop offset="1" stop-color="#eadad6"/></linearGradient><linearGradient id="linear-gradient-2" x1="367.23" y1="214.43" x2="395.18" y2="240.17" gradientTransform="matrix(0.42, -0.91, 0.91, 0.42, 46.44, 461)" gradientUnits="userSpaceOnUse"><stop offset="0" stop-color="#d5bcc6"/><stop offset="0.05" stop-color="#d8c0c8"/><stop offset="0.28" stop-color="#e2cfd0"/><stop offset="0.56" stop-color="#e8d7d5"/><stop offset="1" stop-color="#eadad6"/></linearGradient><linearGradient id="linear-gradient-3" x1="370.52" y1="264.53" x2="388.21" y2="280.82" gradientTransform="matrix(-0.69, -0.73, 0.73, -0.69, 522.14, 655.61)" xlink:href="#linear-gradient-2"/><linearGradient id="linear-gradient-4" x1="333.06" y1="183.65" x2="339.96" y2="190.01" gradientTransform="matrix(0.87, 0.49, -0.49, 0.87, 122.76, -123.91)" xlink:href="#linear-gradient"/><linearGradient id="linear-gradient-5" x1="130.6" y1="183.49" x2="141.08" y2="193.14" gradientTransform="matrix(-0.87, -0.49, -0.49, 0.87, 527.27, 104.45)" xlink:href="#linear-gradient"/><linearGradient id="linear-gradient-6" x1="414.3" y1="103.12" x2="420.38" y2="108.71" gradientTransform="translate(216.92 -185.6) rotate(46.66)" xlink:href="#linear-gradient"/><linearGradient id="linear-gradient-7" x1="49.44" y1="102.95" x2="59.18" y2="111.93" gradientTransform="matrix(-0.69, -0.73, -0.73, 0.69, 535.74, 152.23)" xlink:href="#linear-gradient"/><linearGradient id="linear-gradient-8" x1="399.5" y1="60.91" x2="405.69" y2="66.61" gradientTransform="translate(574.38 -188.89) rotate(100.39)" xlink:href="#linear-gradient"/><linearGradient id="linear-gradient-9" x1="64.46" y1="60.96" x2="69.53" y2="65.63" gradientTransform="matrix(0.18, -0.98, -0.98, -0.18, 490.61, 268.02)" xlink:href="#linear-gradient"/></defs><title>hat_1.1-01</title><g id="hat_1.1"><path class="cls-1" d="M526,205.88c.46,8.46-9.3,15.4-21.12,15-19.94-.74-36.46-1.76-48.76-2.65-42.15-3-63.73-6.52-95.32-2.79-4.74.56-9.16,1.21-13.23,1.92-12.48,2.15-24.62-4.51-24.81-13.69a61.9,61.9,0,0,1,1.14-13.12,70,70,0,0,1,8-21.12c3.34-5.87,9.89-7.23,13.91-8.59a223.75,223.75,0,0,1,59.07-10.86c14.05-.32,68.22-1.32,99.08,10.52,6.39,2.45,12.86,4.66,14.95,10.52a125.4,125.4,0,0,1,5.91,23.17C525.44,198.21,525.83,202.13,526,205.88Z"/><path class="cls-2" d="M442.2,150.32a36.95,36.95,0,0,1,4.33,67.15c11.09,1.18,22.8,2.11,35.07,2.67,9.21.43,18.12.62,26.69.62,9.72-1,13.63-5.23,15-7,5.19-6.78,2.83-16.36-.89-31.49-1.87-7.59-2.8-11.39-5.34-14.54-1.3-1.62-5-5.75-24.34-10.84a192.45,192.45,0,0,0-23.72-4.7A212.64,212.64,0,0,0,442.2,150.32Z"/><path class="cls-3" d="M437.57,156.75l11.7,8.37"/><path class="cls-4" d="M459,156.75l11.69,8.37"/><path class="cls-4" d="M479.43,158.9l11.69,8.36"/><path class="cls-5" d="M466.6,210.43c8.45-14.53,37-21,54.24-12,11.34,5.92,13.87,16.56,18.37,35.42,4.66,19.58,8,33.64-2.62,42.94-8.72,7.63-24.29,9.81-36.18,5.91-14.76-4.84-20-17.77-28.23-38.05C465.21,227.41,461.73,218.81,466.6,210.43Z"/><path class="cls-6" d="M499.73,194.37a34.38,34.38,0,0,1,17.94,2.54,32.86,32.86,0,0,1,10.76,7.53c2.73,2.93,4.87,6.39,8,15.51,5.11,14.85,6,24.75,7.08,36.56A25.42,25.42,0,0,1,542,269.35a23.1,23.1,0,0,1-3,5c-5.35,6.82-13.63,8.62-16.56,9.12a92.94,92.94,0,0,0-22.68-89.14Z"/><path class="cls-7" d="M523.51,282.81a14.35,14.35,0,0,0,5.27,8.68c6.34,5.28,15.28,5.62,16.87,5.66"/><path class="cls-8" d="M512.66,213.45l-17.35,21.12"/><path class="cls-8" d="M517.93,231.11,490,216.91"/><path class="cls-8" d="M518.05,239.79q-4.54,6.69-9.11,13.36"/><path class="cls-8" d="M522.41,250.3l-17.82-7.65"/><path class="cls-8" d="M520.88,259.16q-2.11,4.89-4.24,9.79"/><path class="cls-8" d="M525.39,266l-13.25-3.87"/><path class="cls-9" d="M481.19,194.05c-.16-4.82-6.74-8.62-15.35-9.28a5.14,5.14,0,0,0,.6-2.52c-.17-4.95-7.88-8.7-17.23-8.38-5.36.18-10.09,1.67-13.12,3.84-3.19-2-8-3.12-13.39-2.93-6.09.2-11.35,2.08-14.26,4.73l-.6.1c-2.9-3.47-8.84-5.73-15.63-5.5-6,.2-11.2,2.3-14.17,5.31a30.16,30.16,0,0,0-7.85-.73,30.56,30.56,0,0,0-6.87,1c-2.18-4.13-8.64-7-16.19-6.73-7.09.25-13,3.16-15.29,7h-.44c-7.5.26-13.54,4.1-14,8.77-7.21,1.92-12.17,5.93-12,10.39.13,3.73,3.79,6.9,9.27,8.67a5.31,5.31,0,0,0-.23,1.67c.07,2.24,1.59,4.25,4,5.82a8.86,8.86,0,0,0-.17,1.7c0,7,9.08,13.51,16.95,15.46,13.12,3.25,24.22-5.86,25-6.55a30.27,30.27,0,0,0,14.13,2.63,34.66,34.66,0,0,0,8.68-1.38,52.44,52.44,0,0,0,12.06.94l1.25,0a29.64,29.64,0,0,0,10.43,1.42c5.61-.2,10.57-1.75,13.75-4A56.21,56.21,0,0,0,442,228.68c19-.65,34.1-9.32,33.76-19.37a11.14,11.14,0,0,0-2.67-6.65C478.07,200.69,481.31,197.52,481.19,194.05Z"/><path class="cls-10" d="M350,203.12c-.69.55,10.56,4.38,9.1,7.86-1.28,3.05-12.05,5.2-20.06,3.59-6.25-1.26-8.57-4.35-9.46-4-1.51.67,1.89,11.14,13.68,12.26A23.24,23.24,0,0,0,359.63,218c.72-.63,5-4.28,3.17-8.38C360.55,204.56,350.63,202.63,350,203.12Z"/><path class="cls-11" d="M414.28,206.51c-.56.18,3.19,3.33,1.17,6.47-1.48,2.29-6,4.47-9.58,4.05-6.45-.73-6.62-9.29-11-9.24-2.65,0-5.09,3.25-6,5-2,4,.7,6.43-1.82,7.81-2.26,1.23-6.48.37-7.93.07-5.22-1.07-7.79-3.73-7.75-3.75s8.23,8.14,15.3,7.08c5.1-.77,5.79-5.77,10-5.88s5,5.12,10.55,5.74c5,.57,12.21-2.86,13.93-7.33C423.4,210.7,415,206.28,414.28,206.51Z"/><path class="cls-12" d="M451.62,190.2c0,.39,6.26-.71,10.14,1.53,2.84,1.63,4.28,5,2.21,6.9-3.7,3.48-16.55.68-18.24,3.2-1,1.54,2.81,4,5.13,5.18,5.17,2.54,9.9,1.78,10.94,3.7.94,1.73-2.06,3.87-3.08,4.6a20.61,20.61,0,0,1-8.73,3.21c0-.05,15.48-2,16.74-6.44.9-3.2-6.3-5.3-4.77-7.74s9.66-1.16,12.81-4.14c2.87-2.71.64-8-5.36-10.54C461.55,186.36,451.57,189.71,451.62,190.2Z"/><path class="cls-13" d="M320,194.87l5.39,10.63"/><path class="cls-14" d="M331.5,198.8l-17.7,2.77"/><path class="cls-15" d="M426.27,181.71l0,10.37"/><path class="cls-16" d="M434.6,187.16,418,186.63"/><path class="cls-17" d="M447,191l-9.72,4.65"/><path class="cls-18" d="M445.24,196.47,439,190.2"/></g></svg>