<svg id="Layer_2" data-name="Layer 2" xmlns="http://www.w3.org/2000/svg" xmlns:xlink="http://www.w3.org/1999/xlink" viewBox="0 0 841.89 595.28"><defs><style>.cls-1{fill:#a0c972;}.cls-2{fill:#789756;}.cls-3{fill:#b59683;}.cls-4{fill:#7b5c44;}.cls-5{fill:url(#linear-gradient);}.cls-6{fill:#786251;}.cls-7{fill:#554b3f;}.cls-8{fill:#776a61;}.cls-9{fill:#b09c5f;stroke:#756a62;}.cls-10,.cls-11,.cls-12,.cls-9{stroke-linecap:square;stroke-miterlimit:10;}.cls-10,.cls-12,.cls-9{stroke-width:4px;}.cls-10,.cls-11,.cls-12{fill:none;}.cls-10{stroke:#7b5c44;}.cls-11{stroke:#e9d4c3;stroke-width:2px;}.cls-12{stroke:#574e45;}.cls-13{fill:#3b3225;}</style><linearGradient id="linear-gradient" x1="482.33" y1="212.81" x2="539" y2="212.81" gradientTransform="translate(36.64 -89.6) rotate(10.24)" gradientUnits="userSpaceOnUse"><stop offset="0.01" stop-color="#776a61"/><stop offset="0.9" stop-color="#b59683"/></linearGradient></defs><title>hat_2.1-01</title><g id="hat_2.1"><path class="cls-1" d="M396.41,200.66a22,22,0,0,1,2.12-9.37c-1.31.39-2.41.75-3.24,1-20.11,6.65-39.26,24-36.09,33.29,1,3,7.79,5.78,21.3,11.27,13.92,5.65,15.05,4.64,15.31,4.28,2.13-3-13.48-18.32-13.29-18.5s15,11.72,23.59,16.91c1,.59,3.11,1.85,5.1,1.14,2.5-.9,3.33-4.42,3.82-6.64a28.24,28.24,0,0,0,.52-9.13C404.21,220.53,396.41,211.32,396.41,200.66Z"/><path class="cls-2" d="M360.11,227c-.47,1.1,32.81,18.46,35.7,14.14,2.18-3.28-13.33-18.46-13.29-18.5s12.58,13.62,24.75,17.56c1.12.36,3.1.92,4.83,0,4.73-2.47,3.21-13.62,3-14.82-2.49-18.24-22.95-31.18-25.23-29.17s14,20.56,9.6,25.41c-3.91,4.33-20.94-6-22.77-3-1.58,2.54,10.41,11.13,8.85,13.93C383.55,236.21,360.49,226.12,360.11,227Z"/><path class="cls-3" d="M513,258.44c-1.88,0-18.86-.21-35-7.55-3-1.38-10.82-5.16-18.8-9.46l-2.28-1.23c-1-.54-1.95-1.07-3.58-1.93-7.42-4-13.24-6.8-16-8.17-11.88-5.8-28.24-13.24-32.31-15-19.45-8.43-47.77-13.45-70.53-17.49-15.11-2.69-33.84-6-36-8.76.74-.81,5.46-4.41,33.64-8.69a163.7,163.7,0,0,1,26.81-1.83c9,0,20.59.36,35.18.9,49.49,1.82,57.78,3,65.56,4.68,21.23,4.63,35.75,11.25,42.52,14.79,10.85,5.67,33.43,17.47,39.29,37.39,1.09,3.73,2.92,9.95-.62,14.81-5.41,7.42-19.89,7.5-27.67,7.55Z"/><path class="cls-4" d="M358.84,180.32c9,0,20.54.36,35.11.89,49.32,1.82,57.53,3,65.2,4.64,21,4.58,35.35,11.12,42,14.61,10.61,5.54,32.68,17.08,38.3,36.19,1.34,4.55,2.42,9.32-.31,13.06-4.82,6.6-18.64,6.69-26.09,6.73H513c-1.84,0-18.41-.21-34.22-7.37-3-1.37-10.74-5.13-18.68-9.4l-2.25-1.22-3.6-1.95c-7.45-4-13.29-6.82-16.1-8.19-11.91-5.82-28.31-13.28-32.39-15.05-19.67-8.52-48.12-13.58-71-17.63-9.46-1.68-17.62-3.13-24-4.6a71.51,71.51,0,0,1-8.15-2.27c3.61-1.47,11.76-3.9,29.77-6.64a162.81,162.81,0,0,1,26.48-1.8m0-4a164.65,164.65,0,0,0-27.08,1.85c-5.42.82-35.68,5.41-35.46,10.72.34,8.3,70.7,11.94,107.84,28,4.38,1.89,20.77,9.37,32.23,15,3.13,1.53,8.74,4.28,16,8.13,2.75,1.46,3.62,2,5.85,3.16,8.5,4.58,16.25,8.31,18.92,9.52,16.64,7.55,34.19,7.73,35.87,7.73h.13c8.25-.05,23.28-.14,29.28-8.37,4-5.54,2.17-12.27.91-16.55-6-20.33-27.83-32.1-40.27-38.61-3.8-2-19-9.74-43-15-7.71-1.68-15.2-2.85-65.9-4.72-15.71-.58-26.68-.9-35.26-.9Z"/><path class="cls-5" d="M477.79,199.62a3.7,3.7,0,0,0,1.55,1c3.29,1.26,17.2,9.2,23.23,13.29,1.44,1,4.86,3.9,11.72,9.73,8.64,7.37,10.19,9.1,11.21,8.65,2.67-1.17,1.06-14-7.75-22.77-2.07-2.06-9.72-6.15-25-14.32,0,0-1.3-.7-7.44-3.45s-8-3.34-8.69-2.76.39,1.57.68,4.78c.07.76-.11,1.49-.1,3.11A4,4,0,0,0,477.79,199.62Z"/><path class="cls-6" d="M349.46,201c7.13,1.78,13.53,3.07,19.29,3.94,9.14,1.37,24,2.76,40.9,10h0c.07,0,30.3,1.56,58.88-8.85,5.35-1.95,8.23-4,9.26-6.52.9-2.18-.06-3.61-.66-7.46-.36-2.32-.24-4.81,0-9.79,1-21.44,6.67-30.49,0-36.82-9.52-9-38.84-7.5-52.26-5.59-10.35,1.48-19.11,4.32-29.77,1.4-7.69-2.11-8.1-5-14.55-5.59-11.29-1.12-22.9,6.33-28.45,13a24.09,24.09,0,0,0-5.29,11.65C345.36,168.21,344.18,181.87,349.46,201Z"/><path class="cls-7" d="M467.63,248.58c1.16-1.63-19.7-18.88-36.52-31.65-18.45-14-27.68-21-34.27-24.66-8.84-4.91-61.08-32.47-98.17-12.3-18.61,10.13-34.55,32.86-27.08,51.49,0,0,3.77,9.41,40.17,28,.29.15,1.77.86,2.33.44,1.49-1.13-6.56-7.91-6.33-17a14.47,14.47,0,0,1,1.26-5.61c.07-.16.15-.33.25-.52,1.22-2.28,1.79-3.45,5.7-6.37,4.1-3.07,1.86-7.35,6.39-13.61,3.09-4.28,7.12-6.4,14.55-10.33,2.95-1.56,4.52-2.51,7-3a26.09,26.09,0,0,1,13.35.51,15.84,15.84,0,0,1,2.25.92,28.52,28.52,0,0,1,5.79,3.9c2.25,2,5,2.82,10.4,4.47,17.2,5.23,33,9.89,43.42,13.47a285.07,285.07,0,0,1,27,11C460,244.67,467,249.49,467.63,248.58Z"/><path class="cls-8" d="M541.24,230.06a13.11,13.11,0,0,1,.92,9.4c-2.27,7.25-11.43,10.24-15.64,11.83-11.9,4.49-23.29,2.24-35.62-.21A125.81,125.81,0,0,1,460,240.64a43.37,43.37,0,0,0,7.63,7.94c16.23,13.13,38.21,12.17,45.48,11.86,12.65-.55,23.9-1,29.28-8.37C548.71,243.41,542.19,231.7,541.24,230.06Z"/><line class="cls-9" x1="482.53" y1="235.76" x2="467.68" y2="240.85"/><line class="cls-9" x1="471.01" y1="232.39" x2="479.2" y2="244.21"/><line class="cls-9" x1="509.57" y1="240.54" x2="498.07" y2="250.1"/><line class="cls-9" x1="497.43" y1="241.19" x2="510.21" y2="249.45"/><line class="cls-9" x1="531.5" y1="235.6" x2="526.95" y2="248.79"/><line class="cls-9" x1="521.3" y1="241.31" x2="537.15" y2="243.08"/><line class="cls-10" x1="382.91" y1="194.76" x2="368.06" y2="199.85"/><line class="cls-10" x1="371.39" y1="191.4" x2="379.58" y2="203.22"/><line class="cls-10" x1="357.14" y1="188.85" x2="342.29" y2="193.94"/><line class="cls-10" x1="345.63" y1="185.49" x2="353.81" y2="197.31"/><line class="cls-10" x1="330.6" y1="185.29" x2="319.05" y2="194.81"/><line class="cls-10" x1="318.46" y1="185.9" x2="331.2" y2="194.21"/><line class="cls-10" x1="302.67" y1="191.65" x2="297.61" y2="204.7"/><line class="cls-10" x1="292.25" y1="197.06" x2="308.03" y2="199.3"/><line class="cls-10" x1="282.92" y1="212.03" x2="289.07" y2="224.73"/><line class="cls-10" x1="279.19" y1="221.99" x2="292.8" y2="214.77"/><line class="cls-10" x1="284.12" y1="235.62" x2="294.01" y2="240.98"/><line class="cls-10" x1="286.77" y1="242.93" x2="291.36" y2="233.67"/><line class="cls-10" x1="401.19" y1="205" x2="402.69" y2="213.87"/><line class="cls-10" x1="396.97" y1="210.77" x2="406.91" y2="208.09"/><ellipse class="cls-11" cx="453.5" cy="189.44" rx="3.31" ry="2.85"/><ellipse class="cls-11" cx="465.5" cy="181.35" rx="3.31" ry="2.85"/><ellipse class="cls-11" cx="465.5" cy="195.95" rx="3.31" ry="2.85"/><line class="cls-12" x1="375.48" y1="140.71" x2="379.76" y2="145.18"/><line class="cls-12" x1="387.28" y1="144.04" x2="391.55" y2="148.51"/><line class="cls-12" x1="399.05" y1="147.04" x2="403.32" y2="151.5"/><line class="cls-12" x1="410.77" y1="148.06" x2="415.04" y2="152.53"/><line class="cls-12" x1="422.85" y1="146.28" x2="427.12" y2="150.74"/><line class="cls-12" x1="432.85" y1="144.04" x2="437.12" y2="148.51"/><line class="cls-12" x1="443.82" y1="144.04" x2="448.09" y2="148.51"/><line class="cls-12" x1="454.68" y1="144.04" x2="458.95" y2="148.51"/><line class="cls-12" x1="466.1" y1="145.83" x2="470.37" y2="150.29"/><line class="cls-12" x1="365.92" y1="142.94" x2="370.2" y2="147.41"/><line class="cls-12" x1="359.29" y1="148.06" x2="363.56" y2="152.53"/><line class="cls-12" x1="426.48" y1="205.86" x2="430.75" y2="210.32"/><line class="cls-12" x1="437.12" y1="203.63" x2="441.39" y2="208.09"/><line class="cls-12" x1="447.19" y1="201.4" x2="451.47" y2="205.86"/><line class="cls-12" x1="454.68" y1="199.82" x2="458.95" y2="204.28"/><path class="cls-13" d="M349.46,201a23.44,23.44,0,0,0-3.54-.49c-38.49-2.19-48.15,15.25-48.15,15.25-5.52,10-.8,22.53.3,25.48,2.72,7.24,7.06,12.46,12.53,17.63,1,.56,2.06,1.11,3.22,1.64A43.81,43.81,0,0,0,321,263q.57-3.44,1.11-7,.46-3.22.87-6.36l-13.37-13.33,16.4-.42-6.27-9.69,11,.38c.76-1.59,1.52-2.94,2.18-4a45.51,45.51,0,0,1,2.82-4.09c1-1.24,1.94-2.28,2.19-2.55l.28-.3a17,17,0,0,1,1-3.31,10.43,10.43,0,0,1,.82-1.4,11.77,11.77,0,0,1,3-3l.81-3.85a25.36,25.36,0,0,1,6.78-1.41,7.3,7.3,0,0,1,5.6,1.39A20,20,0,0,0,349.46,201Z"/></g></svg>