<svg width="53" height="53" viewBox="0 0 53 53" fill="none" xmlns="http://www.w3.org/2000/svg">
<path d="M46.0216 50.1954L39.9929 44.1667H6.62498V41.9583L11.0416 37.5417V24.2917C11.0416 21.7742 11.6821 19.2787 12.8746 17.0483L2.45123 6.62499L5.2779 3.8204L48.8262 47.3908L46.0216 50.1954ZM41.9583 34.8917V24.2917C41.9583 17.4458 37.4754 11.4171 30.9166 9.47374V8.83332C30.9166 7.66195 30.4513 6.53855 29.623 5.71027C28.7948 4.88198 27.6714 4.41665 26.5 4.41665C25.3286 4.41665 24.2052 4.88198 23.3769 5.71027C22.5486 6.53855 22.0833 7.66195 22.0833 8.83332V9.47374C20.7362 9.87124 19.4333 10.4675 18.2408 11.2404L41.9583 34.8917ZM26.5 50.7917C27.6714 50.7917 28.7948 50.3263 29.623 49.498C30.4513 48.6698 30.9166 47.5464 30.9166 46.375H22.0833C22.0833 47.5464 22.5486 48.6698 23.3769 49.498C24.2052 50.3263 25.3286 50.7917 26.5 50.7917Z" fill="#2151C5"/>
</svg>
