<svg id="Layer_2" data-name="Layer 2" xmlns="http://www.w3.org/2000/svg" viewBox="0 0 841.89 595.28"><defs><style>.cls-1{fill:#b2c000;}.cls-2{fill:#859000;}.cls-3{fill:#646c00;}</style></defs><title>arm_right-01</title><g id="arm_right_1"><path class="cls-1" d="M492.61,264.57c-13,3.77-20.44,20.57-19.12,33,.31,2.92.74,2.15,3.42,12.07,2.94,10.88,3.73,16.62,5,22.12,3.76,16.73,6.47,28.82,15.81,34.17,10.32,5.91,26.93,2.53,35-7.34,6.35-7.75,5.07-17.42,2.26-36.43-3.28-22.14-6.92-46.73-24.67-55.44C508.35,265.77,500.78,262.2,492.61,264.57Z"/><path class="cls-2" d="M527.82,288.75c-2.81-6.89-6.53-13.84-7.23-13.56s.81,5.11,1.57,8c3.51,13.36,10.64,39.34.85,53.46-8,11.52-23.37,9.64-25.23,19.76-.82,4.5,1.52,8.64,3.14,11a31.31,31.31,0,0,0,20-.63c2.32-.89,8.38-3.21,12.5-9.09,4.29-6.14,3.92-13.23,3.16-27.42a141.76,141.76,0,0,0-2.86-21.65A116.05,116.05,0,0,0,527.82,288.75Z"/><path class="cls-3" d="M527.62,310.2a45.27,45.27,0,0,1,2.93,13.91,31.66,31.66,0,0,1-.46,7.36,18.49,18.49,0,0,1-3,7.3,13.84,13.84,0,0,1-3.06,3,23.52,23.52,0,0,1-3.41,1.78c-2.13.94-4.23,1.85-6.37,2.73A116.33,116.33,0,0,1,501,351a90,90,0,0,1,11.39-8.24c2-1.23,4-2.38,6.06-3.48a24.13,24.13,0,0,0,2.68-1.58,8.83,8.83,0,0,0,1.87-1.89,16.54,16.54,0,0,0,2.44-5.37,44.89,44.89,0,0,0,1.16-6.43C527.15,319.54,527.28,314.93,527.62,310.2Z"/></g></svg>