<svg id="Layer_2" data-name="Layer 2" xmlns="http://www.w3.org/2000/svg" viewBox="0 0 841.89 595.28"><defs><style>.cls-1{fill:#f8eae2;}.cls-2{fill:#ddccc7;}.cls-3{fill:#c1afb6;}.cls-4{fill:#e8dace;}</style></defs><title>sleeve_right_cost2-01</title><g id="sleeve_right_cost2"><path class="cls-1" d="M484.27,342q-1.81-7.11-3.62-14.23l24.09-22.67,29,3.47,2,11.81a38.36,38.36,0,0,0-19.36-2.77C495.57,320.23,485.31,340,484.27,342Z"/><path class="cls-2" d="M481,333.42q-4.25-17.39-8.47-34.78a28.81,28.81,0,0,1,2-20c5.1-10,14.54-13.07,17.11-13.9s13.2-4.11,23.79,2c12.1,7,14,20.46,14.19,22l5,24.84a40.61,40.61,0,0,0-16.33-3C496.4,311.32,482.94,330.56,481,333.42Z"/><path class="cls-3" d="M497.89,263.39a28,28,0,0,1,30.91,20.94l5.88,29.36a39.32,39.32,0,0,0-4.49-1.53,42.08,42.08,0,0,0-22,.22,35.84,35.84,0,0,0,5.05-15.49C514.71,278.09,499.89,265.1,497.89,263.39Z"/><path class="cls-4" d="M508.17,312.38a4.59,4.59,0,0,1-.18,7.35,37.38,37.38,0,0,1,18.46-1.92,36.21,36.21,0,0,1,9.37,2.8l-1.14-6.92a40.27,40.27,0,0,0-7.38-2.2A41.24,41.24,0,0,0,508.17,312.38Z"/></g></svg>