<svg id="Layer_2" data-name="Layer 2" xmlns="http://www.w3.org/2000/svg" viewBox="0 0 841.89 595.28"><defs><style>.cls-1{fill:#f0ec91;}.cls-2{fill:#7dc9d5;}.cls-3{fill:#5e97a0;}.cls-4{fill:#b4b16d;}</style></defs><title>sleeve_right_cost4-01</title><g id="sleeve_right_cost4"><path class="cls-1" d="M484.28,342q-1.81-7.11-3.62-14.23l24.09-22.67,29,3.48,2,11.8a38.38,38.38,0,0,0-19.36-2.77C495.58,320.21,485.32,339.94,484.28,342Z"/><path class="cls-2" d="M481,333.41q-4.25-17.4-8.47-34.79a28.78,28.78,0,0,1,2-19.95c5.09-10,14.54-13.07,17.11-13.91s13.2-4.1,23.79,2.05c12.1,7,14,20.45,14.19,22l5,24.85a40.5,40.5,0,0,0-16.33-3C496.41,311.31,483,330.55,481,333.41Z"/><path class="cls-3" d="M497.89,263.37a28,28,0,0,1,30.92,20.94l5.88,29.37a38.83,38.83,0,0,0-4.5-1.54,42.09,42.09,0,0,0-22,.22,35.69,35.69,0,0,0,5.06-15.48C514.72,278.07,499.9,265.08,497.89,263.37Z"/><path class="cls-4" d="M508.17,312.36a4.78,4.78,0,0,1,1.76,3.48,4.87,4.87,0,0,1-1.93,3.88,37.12,37.12,0,0,1,18.46-1.92,36.24,36.24,0,0,1,9.37,2.79l-1.14-6.91a39.48,39.48,0,0,0-7.38-2.21A41.43,41.43,0,0,0,508.17,312.36Z"/></g></svg>