<svg id="Layer_2" data-name="Layer 2" xmlns="http://www.w3.org/2000/svg" viewBox="0 0 841.89 595.28"><defs><style>.cls-1{fill:#b2c000;}.cls-2{fill:#859000;}</style></defs><title>leg_right-01</title><g id="leg_right"><path class="cls-1" d="M440.62,409.69a17.83,17.83,0,0,0,1.43,3l.48.72a64.33,64.33,0,0,0,10.5-2.25c2.84-5.69,6.24-12.81,9.81-21.07,5-11.53,10.51-24.25,15.21-38.71v-.1c-1.33-10.72.66-22.85,7.85-36.48a39.68,39.68,0,0,0-40.47,11.11,115.39,115.39,0,0,0-6.49,16.67,111.71,111.71,0,0,0-3.11,13.07S431.11,382.58,440.62,409.69Z"/><path class="cls-2" d="M508.39,349.17l-3-24.35a37.41,37.41,0,0,0-9.68-6.8c-3.89-1.9-7.26-3.55-9.79-3.2-10.09,1.38-9.35,34.84-23.52,74.26a222.44,222.44,0,0,1-9.34,22.1,64.33,64.33,0,0,1-10.5,2.25,8,8,0,0,0,1.54,1.38h0c9.12,5.28,29.3,2.4,29.3,2.4A125.83,125.83,0,0,0,487,414.5c3.1-1.42,5.72-4.24,7.87-7.51a46.39,46.39,0,0,0,3.41-6.25,70,70,0,0,0,4.15-11.84c.71-3.1,1.35-6.13,1.92-9.12,2.16-11.31,3.06-20.09,3.45-23.95C508.07,353,508.27,350.69,508.39,349.17Z"/></g></svg>