<svg id="Layer_2" data-name="Layer 2" xmlns="http://www.w3.org/2000/svg" viewBox="0 0 841.89 595.28"><defs><style>.cls-1{fill:#b2c000;}.cls-2{fill:#859000;}</style></defs><title>leg_left-01</title><g id="leg_left"><path class="cls-1" d="M332.85,413.24c3.23,1.83,7.13,2.7,12.62,3.16.11-.06,2.21.16,4.49.15,6.81,0,18-2.05,19.91-6.77,1.54-3.81-1.93-10.9-20.14-24.87l-31.82-14.67C319.46,394,322.67,407.49,332.85,413.24Z"/><path class="cls-1" d="M319.53,342.55c.42-3.79,1-8.67,1.7-14.4,14.53-11.08,33.39-13.78,49.13-6.78,16.32,7.27,22.78,22.08,24.24,25.7L392,395.82l-45.32-4.71-28.73-20.87c-.05-1.88-.08-4.62,0-7.93C318,358.37,318.26,354.11,319.53,342.55Z"/><path class="cls-2" d="M369.87,409.78c-1.89,4.72-13.1,6.75-19.91,6.77-2.28,0-4.38-.21-4.49-.15,4.71.4,10.59.49,18.25.61,20.17.3,24.34-3.81,25.6-6.4a47.91,47.91,0,0,0,2.05-6.55c.25-.9.44-1.69.61-2.39,0-.16.06-.31.1-.48.13-.64.28-1.28.4-1.93.18-1,.26-1.65.35-2.16a5.6,5.6,0,0,1,.19-.79,20.63,20.63,0,0,0,.31-4.86,32,32,0,0,1-6.23,1.68c-5,.81-10-.09-26.83-4.8-2.67-.75-6.29-1.86-10.54-3.42C367.94,398.88,371.41,406,369.87,409.78Z"/><path class="cls-2" d="M347.77,364.86V325.33L358.5,318a47.89,47.89,0,0,1,36.1,29.09q-.63,22.69-1.27,45.4l-4.05,5.71-39.55-13.27Z"/></g></svg>