<svg width="72" height="85" viewBox="0 0 72 85" fill="none" xmlns="http://www.w3.org/2000/svg">
<path fill-rule="evenodd" clip-rule="evenodd" d="M0.0103319 24.1148C0.0107812 22.1311 1.38674 19.6959 3.08928 18.6717L32.8532 0.766705C34.5535 -0.256166 37.3072 -0.256167 39.0106 0.770298L68.7848 18.7094C70.4856 19.7336 71.8633 22.1697 71.8629 24.162L71.8503 59.9212C71.8499 61.9081 70.4716 64.3527 68.774 65.381L38.9459 83.4418C37.2474 84.4705 34.4973 84.4701 32.7961 83.4373L3.07266 65.3855C1.37461 64.3545 -0.000897998 61.9117 4.39872e-07 59.927L0.0103319 24.1153V24.1148ZM6.27065 21.2066L35.8445 37.7194L64.0402 21.4227L35.7969 4.83842L6.2702 21.2066H6.27065ZM4.36326 26.551C4.36326 27.2823 3.88484 58.8318 3.88484 58.8318C3.86957 59.8228 4.54385 61.0406 5.39736 61.5559L33.0746 78.2587L33.3293 43.4834C33.3293 43.4834 4.36371 25.8192 4.36371 26.551H4.36326ZM38.552 78.1833L65.9148 60.8165C66.9623 60.1516 67.8118 58.6086 67.8118 57.3669V26.3735L38.552 43.2251V78.1833Z" fill="#2151C5"/>
<path fill-rule="evenodd" clip-rule="evenodd" d="M13.4262 43.9658C11.2781 45.2066 8.43003 44.296 7.0653 41.9327C5.70103 39.5693 6.33667 36.6476 8.48484 35.4073C10.6334 34.1666 13.4815 35.0771 14.8458 37.4405C16.2105 39.8038 15.5749 42.7255 13.4262 43.9658ZM27.8012 53.3994C25.6531 54.6402 22.805 53.7296 21.4403 51.3663C20.076 49.0029 20.7117 46.0812 22.8598 44.8409C25.0084 43.6002 27.8565 44.5107 29.2208 46.8741C30.5855 49.2374 29.9499 52.1591 27.8012 53.3994ZM13.4262 60.5869C11.2781 61.8277 8.43003 60.9171 7.0653 58.5538C5.70103 56.1904 6.33667 53.2687 8.48484 52.0284C10.6334 50.7877 13.4815 51.6982 14.8458 54.0616C16.2105 56.4249 15.5749 59.3466 13.4262 60.5869ZM27.8012 70.0205C25.6531 71.2613 22.805 70.3507 21.4403 67.9874C20.076 65.624 20.7117 62.7023 22.8598 61.462C25.0084 60.2213 27.8565 61.1318 29.2208 63.4952C30.5855 65.8585 29.9499 68.7802 27.8012 70.0205ZM62.9472 34.9581C60.7986 33.7174 57.951 34.6279 56.5863 36.9913C55.222 39.3546 55.8572 42.2763 58.0058 43.5166C60.1544 44.7574 63.0025 43.8468 64.3667 41.4834C65.7315 39.1201 65.0958 36.1984 62.9472 34.9581ZM55.6528 47.9854C53.5046 46.7447 50.6566 47.6553 49.2919 50.0186C47.9276 52.3819 48.5632 55.3037 50.7114 56.544C52.86 57.7847 55.7081 56.8741 57.0723 54.5108C58.4371 52.1474 57.8014 49.2257 55.6528 47.9854ZM48.0161 60.5636C45.8679 59.3228 43.0199 60.2334 41.6552 62.5967C40.2909 64.9601 40.9265 67.8818 43.0747 69.1221C45.2233 70.3628 48.0713 69.4523 49.4356 67.0889C50.8003 64.7256 50.1647 61.8039 48.0161 60.5636ZM36.2196 15.5361C33.3666 15.5361 31.0536 17.7485 31.0536 20.4775C31.0536 23.2065 33.3666 25.4189 36.2196 25.4189C39.0726 25.4189 41.3856 23.2065 41.3856 20.4775C41.3856 17.7485 39.0726 15.5361 36.2196 15.5361Z" fill="#2151C5"/>
</svg>
