<svg width="44" height="44" viewBox="0 0 44 44" fill="none" xmlns="http://www.w3.org/2000/svg">
<path d="M16.5 1.5168L17.875 4.43867H26.125L27.5 1.5168H16.5ZM15.7266 6.07149V10.5359H18.4766V12.4438C16.818 11.6703 14.8156 11.7391 13.75 11.7391C9.41016 11.7391 6.69453 13.6211 5.19922 15.8641C3.70391 18.107 3.35156 20.6336 3.35156 22.1375C3.35156 26.6492 6.66875 30.25 10.5102 33.3953C14.3516 36.532 18.8203 39.2992 21.45 41.9375L22 42.4789L22.55 41.9375C25.1797 39.2992 29.6484 36.532 33.4898 33.3953C37.3312 30.25 40.6484 26.6492 40.6484 22.1375C40.6484 20.6336 40.2961 18.107 38.8008 15.8641C37.3055 13.6211 34.5898 11.7391 30.25 11.7391C29.1844 11.7391 27.182 11.6703 25.5234 12.4438V10.5359H28.2734V6.07149H15.7266ZM17.2734 7.61836H26.7266V8.98907H17.2734V7.61836ZM20.0234 10.5359H23.9766V15.7523L25.3 14.4375C26.3055 13.4234 28.875 13.2859 30.25 13.2859C34.1602 13.2859 36.257 14.8414 37.5117 16.7234C38.7664 18.6055 39.1016 20.8914 39.1016 22.1375C39.1016 25.8758 36.2313 29.1586 32.5102 32.1922C29.0125 35.0625 24.8617 37.6492 22 40.3305C19.1383 37.6492 14.9875 35.0625 11.4898 32.1922C7.76875 29.1586 4.89844 25.8758 4.89844 22.1375C4.89844 20.8914 5.23359 18.6055 6.48828 16.7234C7.74297 14.8414 9.83984 13.2859 13.75 13.2859C15.125 13.2859 17.6945 13.4234 18.7 14.4375L20.0234 15.7523V10.5359ZM16.5 16.6375C11 16.6375 9.625 20.7625 9.625 23.5125C9.625 29.0125 16.5 31.7625 22 35.8875C27.5 31.7625 34.375 29.0125 34.375 23.5125C34.375 20.7625 33 16.6375 27.5 16.6375C24.75 16.6375 23.375 16.6375 22 20.7625C20.625 16.6375 19.25 16.6375 16.5 16.6375ZM27.3023 17.8922C27.6117 17.8836 27.8094 17.918 27.8008 17.9438C26.3828 18.5711 24.8875 20.0406 23.968 21.5273C23.968 21.5273 23.693 20.0063 24.8187 18.7859C25.4547 18.0898 26.632 17.9008 27.3023 17.8922ZM16.5 18.0125C14.4375 19.8602 12.9508 23.0141 12.4438 25.7813C12.4438 25.7813 10.768 23.7445 11.782 21.1922C12.6242 19.0867 16.0875 18.0555 16.5 18.0125Z" fill="#B2C000"/>
</svg>
