<svg width="176" height="250" viewBox="0 0 176 250" fill="none" xmlns="http://www.w3.org/2000/svg">
<g clip-path="url(#clip0_64_441)">
<path d="M93.91 250C93.91 250 98.7646 204.88 114.806 178.59C130.847 152.3 165.235 120.002 170.496 106.711C175.756 93.4371 168.109 79.1777 158.027 87.4298C147.944 95.6818 129.142 119.776 130.75 116.11C133.072 110.829 143.268 85.831 150.525 66.2748C157.945 46.2987 156.435 31.8939 151.045 28.7126C145.655 25.5313 141.514 31.0058 141.514 31.0058C141.514 31.0058 143.593 20.2183 138.137 15.0184C132.682 9.8185 126.187 13.6458 122.161 20.0407C122.161 20.0407 120.651 16.5526 115.504 13.9041C110.373 11.2557 101.752 19.6693 97.7579 29.6654C97.7579 29.6654 93.9587 23.6903 87.3018 25.822C79.8332 28.2282 73.3712 41.8255 61.7299 77.4982C53.5469 102.594 40.2657 146.809 30.9624 171.937C21.724 197.08 0 250 0 250H93.91Z" fill="#B2C000"/>
<path d="M107.483 118.258C107.581 118.371 107.662 118.484 107.759 118.597L107.597 118.387C107.808 118.662 107.987 118.968 108.165 119.259C108.328 119.534 108.555 119.695 108.766 119.905C108.912 120.034 109.042 120.18 109.172 120.325C109.416 120.599 109.87 120.761 110.227 120.761C110.585 120.761 111.023 120.599 111.283 120.325C111.542 120.05 111.737 119.679 111.721 119.275L111.672 118.888C111.607 118.629 111.478 118.419 111.283 118.242C111.137 118.064 110.974 117.903 110.812 117.757C110.731 117.677 110.633 117.596 110.552 117.531C110.503 117.483 110.438 117.45 110.39 117.402C110.292 117.305 110.195 117.241 110.065 117.208C109.984 117.176 109.903 117.144 109.821 117.111C109.773 117.095 109.724 117.079 109.659 117.063C109.156 116.918 108.636 116.853 108.117 116.788L107.889 116.821L107.678 116.901C107.516 116.998 107.386 117.144 107.321 117.321C107.175 117.66 107.256 118.016 107.5 118.274L107.483 118.258Z" fill="white"/>
<path d="M91.7181 113.882C91.8642 113.946 91.9941 114.027 92.124 114.124L91.7831 113.865C91.8967 113.962 91.9941 114.059 92.0915 114.172L91.7993 113.801C91.9129 113.946 91.9617 114.059 92.124 114.221C92.3026 114.398 92.4974 114.527 92.7248 114.608C92.9521 114.721 93.1956 114.786 93.4554 114.77C93.4879 114.77 93.5366 114.77 93.569 114.77L93.082 114.705C93.2118 114.721 93.358 114.754 93.4879 114.802C94.0399 114.98 94.6731 114.786 95.0628 114.382C95.4524 113.978 95.6635 113.349 95.4849 112.816C95.4362 112.687 95.3875 112.557 95.3225 112.428C95.2576 112.299 95.2251 112.17 95.1602 112.057C95.1439 112.024 95.1277 111.992 95.1115 111.96C95.0628 111.879 94.9978 111.814 94.9491 111.75C94.8192 111.54 94.6406 111.378 94.4133 111.265L93.9587 111.072L93.4554 111.007H93.3904C93.3904 111.007 93.3255 111.007 93.293 111.007C93.017 111.007 92.741 111.039 92.4812 111.088C92.3513 111.104 92.2214 111.152 92.0915 111.201L91.7343 111.346L91.4259 111.572L91.1986 111.879C91.0849 112.057 91.0362 112.234 91.02 112.428C90.9875 112.557 90.9875 112.687 91.02 112.816C91.02 112.945 91.0524 113.074 91.1174 113.187C91.1498 113.316 91.2148 113.429 91.3122 113.51C91.4096 113.672 91.5558 113.801 91.7343 113.898L91.7181 113.882Z" fill="white"/>
<path d="M72.0561 109.101C72.2834 109.101 72.4945 109.134 72.7218 109.15L72.3159 109.101C72.462 109.118 72.6081 109.15 72.7542 109.182C72.8192 109.182 72.8841 109.215 72.9491 109.231C72.9815 109.231 73.0303 109.247 73.0627 109.263H73.0952C73.3225 109.344 73.5498 109.344 73.7609 109.295C73.907 109.295 74.0531 109.263 74.183 109.182C74.2642 109.166 74.3454 109.134 74.4103 109.085C74.4266 109.085 74.459 109.053 74.4753 109.037C74.524 109.005 74.5727 108.972 74.6214 108.94C74.7188 108.892 74.8 108.843 74.8974 108.795C75.076 108.682 75.2221 108.536 75.3358 108.359C75.417 108.213 75.4657 108.068 75.4819 107.906C75.5144 107.745 75.5144 107.584 75.4657 107.422C75.4007 107.212 75.3033 107.034 75.1572 106.889C75.0598 106.776 74.9461 106.647 74.8325 106.55C74.8 106.518 74.7675 106.502 74.735 106.469C74.6214 106.372 74.4915 106.275 74.3779 106.195C74.1181 106.049 73.8258 105.969 73.5336 105.969C73.3063 105.969 73.079 106.017 72.8517 106.066C72.3321 106.179 71.8288 106.372 71.3417 106.598L71.0657 106.808C70.9358 106.938 70.8384 107.067 70.7897 107.244C70.676 107.519 70.6273 107.842 70.7247 108.116C70.7897 108.342 70.9196 108.536 71.0657 108.714C71.293 108.972 71.6827 109.101 72.0236 109.101H72.0561Z" fill="white"/>
<g style="mix-blend-mode:multiply" opacity="0.3">
<path d="M167.427 86.1378C164.667 113.397 137.894 129.078 120.618 150.168C107.013 165.509 98.8457 182.643 91.5882 200.698C84.8989 216.007 80.6612 233.754 74.183 250H93.9262C93.9262 250 98.7808 204.88 114.822 178.59C130.863 152.3 165.252 120.002 170.512 106.711C173.889 98.1687 171.941 89.2545 167.443 86.1378H167.427Z" fill="#B2C000"/>
</g>
<path d="M99.2835 21.2183C97.9858 24.3206 97.5363 26.9486 97.2863 28.8865C96.3576 27.8693 94.6879 26.3197 92.4933 25.5348C90.9323 24.9766 89.1033 24.8041 87.1023 25.4808C85.8367 25.9087 84.5202 26.6703 83.1698 27.8629C84.4296 25.4927 86.4062 22.1815 89.1943 18.9931C93.4619 14.1128 99.5877 9.57108 107.896 9.14059C103.319 13.5748 100.758 17.6934 99.2835 21.2183Z" fill="#F0D5A5" stroke="#C0C0C0"/>
<path d="M121.474 18.557C121.438 18.6935 121.402 18.8263 121.367 18.9551C121.093 18.6364 120.746 18.275 120.331 17.9056C119.407 17.0821 118.116 16.1897 116.499 15.6243C113.799 14.6801 110.27 14.6759 106.134 17.2539C107.943 14.8806 110.804 11.4181 114.51 8.24632C119.938 3.60046 127.089 -0.344015 135.292 0.648694C129.475 4.128 126.224 7.88307 124.288 11.2785C122.677 14.1024 121.98 16.6857 121.474 18.557Z" fill="#F0D5A5" stroke="#C0C0C0"/>
<path d="M141.844 20.8629C141.791 21.0162 141.74 21.1643 141.69 21.3071C141.132 19.759 140.064 17.1718 138.336 15.1793C137.089 13.7413 135.458 12.558 133.375 12.2889C132.012 12.1129 130.498 12.3333 128.82 13.078C130.667 11.1147 133.511 8.37143 137.142 5.97872C142.544 2.41903 149.633 -0.327968 157.716 1.41212C146.646 6.98217 143.443 16.2408 141.844 20.8629Z" fill="#F0D5A5" stroke="#C0C0C0"/>
<path d="M160.103 86.1091C163.732 82.7736 170.423 76.6232 170.513 64.8109C175.663 71.3928 176.219 80.7451 174.911 89.4752C173.717 97.4427 170.989 104.771 168.945 108.761C168.635 101.457 166.485 96.1397 164.173 92.587C162.922 90.6656 161.624 89.2594 160.543 88.3342C160.003 87.8722 159.511 87.5247 159.1 87.2927C159.044 87.2612 158.989 87.2315 158.936 87.2036C159.268 86.8768 159.663 86.5137 160.103 86.1091Z" fill="#F0D5A5" stroke="#C0C0C0"/>
<path d="M170.035 13.1437C160.069 20.2323 156.844 31.1372 155.545 36.5421C155.415 36.1015 155.257 35.6346 155.072 35.1571C154.464 33.5854 153.543 31.8318 152.291 30.4428C151.037 29.0522 149.417 27.992 147.426 27.9075C146.083 27.8505 144.624 28.239 143.051 29.195C144.574 26.9711 147.027 23.7161 150.373 20.7071C155.179 16.3848 161.775 12.6158 170.035 13.1437Z" fill="#F0D5A5" stroke="#C0C0C0"/>
<path d="M141.482 30.9573C138.17 33.7026 135.929 37.1423 134.013 40.9372C131.529 45.8788 129.467 51.0141 127.568 56.1979C123.525 67.2114 120.261 78.4833 117.079 89.7551C115.878 94.0346 114.773 98.3463 113.621 102.642C113.328 103.74 114.952 104.16 115.309 103.11C118.28 94.5675 120.294 85.6856 122.81 77.0137C126.058 65.8226 129.5 54.5345 134.403 43.9409C135.507 41.5509 136.79 39.3062 138.024 36.9808C139.128 34.9299 140.102 32.879 141.547 31.038C141.596 30.9734 141.514 30.8927 141.449 30.9411L141.482 30.9573Z" fill="white"/>
<path d="M122.063 19.9761C115.488 28.8741 112.078 40.0975 108.88 50.5297C104.463 64.9506 101.281 79.7752 98.4073 94.5836C98.2774 95.2619 99.3166 95.5526 99.4464 94.8743C102.418 80.2919 105.86 65.8387 109.967 51.5309C111.705 45.4751 113.604 39.4677 115.894 33.5895C117.696 28.9871 119.628 24.304 122.291 20.1053C122.388 19.9599 122.161 19.8307 122.063 19.9761Z" fill="white"/>
<path d="M97.6281 29.6169C94.2997 37.7236 91.6694 46.121 89.169 54.5022C86.3764 63.8524 83.6812 73.2187 81.1484 82.6335C80.3203 85.7179 79.4923 88.8185 78.648 91.9029C78.4532 92.6135 79.541 92.9042 79.7521 92.2098C84.6229 75.6088 89.4288 58.9755 94.1211 42.3099C95.3063 38.0789 96.524 33.8479 97.9528 29.6976C98.0177 29.4877 97.7093 29.407 97.6281 29.6008V29.6169Z" fill="white"/>
</g>
<defs>
<clipPath id="clip0_64_441">
<rect width="176" height="250" fill="white"/>
</clipPath>
</defs>
</svg>
