<svg width="56" height="56" viewBox="0 0 56 56" fill="none" xmlns="http://www.w3.org/2000/svg">
<path d="M49 44.3333V46.6667H7V44.3333L11.6667 39.6667V25.6667C11.6667 18.4333 16.4033 12.0633 23.3333 10.01V9.33334C23.3333 8.09566 23.825 6.90868 24.7002 6.03351C25.5753 5.15834 26.7623 4.66667 28 4.66667C29.2377 4.66667 30.4247 5.15834 31.2998 6.03351C32.175 6.90868 32.6667 8.09566 32.6667 9.33334V10.01C39.5967 12.0633 44.3333 18.4333 44.3333 25.6667V39.6667L49 44.3333ZM32.6667 49C32.6667 50.2377 32.175 51.4247 31.2998 52.2998C30.4247 53.175 29.2377 53.6667 28 53.6667C26.7623 53.6667 25.5753 53.175 24.7002 52.2998C23.825 51.4247 23.3333 50.2377 23.3333 49" fill="#2151C5"/>
</svg>
