<svg width="55" height="55" viewBox="0 0 55 55" fill="none" xmlns="http://www.w3.org/2000/svg">
<path d="M4.58334 12.0771L7.51668 9.16667L45.8333 47.4833L42.9229 50.4167L20.625 28.1188V40.1042C20.625 42.2314 19.78 44.2716 18.2758 45.7758C16.7716 47.28 14.7314 48.125 12.6042 48.125C10.4769 48.125 8.43679 47.28 6.93259 45.7758C5.42839 44.2716 4.58334 42.2314 4.58334 40.1042C4.58334 37.9769 5.42839 35.9368 6.93259 34.4326C8.43679 32.9284 10.4769 32.0833 12.6042 32.0833C13.8417 32.0833 15.0104 32.3583 16.0417 32.8625V23.5354L4.58334 12.0771ZM48.125 6.875V35.5208C48.125 37.8125 47.1396 39.9208 45.5583 41.3875L34.2375 30.0667C35.7042 28.4854 37.8125 27.5 40.1042 27.5C41.3417 27.5 42.5104 27.775 43.5417 28.2792V14.8271L23.3063 19.1354L17.5542 13.3833L48.125 6.875Z" fill="#2151C5"/>
</svg>
