<svg width="50" height="50" viewBox="0 0 50 50" fill="none" xmlns="http://www.w3.org/2000/svg">
<path d="M42.1875 6.24999V33.5937C42.1913 35.1668 41.6689 36.6959 40.7035 37.9379C39.7381 39.1798 38.3851 40.0633 36.8598 40.4477C35.3344 40.8321 33.7243 40.6954 32.2856 40.0593C30.8469 39.4232 29.6622 38.3243 28.9201 36.9373C28.1779 35.5504 27.9208 33.9551 28.1898 32.4052C28.4587 30.8553 29.2382 29.4399 30.4043 28.3841C31.5704 27.3282 33.056 26.6927 34.6249 26.5785C36.1938 26.4643 37.7558 26.878 39.0625 27.7539V16.0547L17.1875 21.5234V39.8437C17.1913 41.4168 16.6689 42.9459 15.7035 44.1879C14.7381 45.4298 13.3851 46.3133 11.8598 46.6977C10.3344 47.0821 8.72431 46.9454 7.28561 46.3093C5.84691 45.6732 4.66224 44.5743 3.92006 43.1873C3.17788 41.8004 2.92082 40.2051 3.18977 38.6552C3.45871 37.1053 4.23823 35.6899 5.4043 34.6341C6.57037 33.5782 8.05602 32.9427 9.62492 32.8285C11.1938 32.7143 12.7558 33.128 14.0625 34.0039V12.5C14.0612 12.1492 14.1781 11.8081 14.3942 11.5318C14.6103 11.2554 14.9131 11.0599 15.2539 10.9765L40.2539 4.72655C40.483 4.67213 40.7215 4.67021 40.9515 4.72095C41.1815 4.77168 41.397 4.87375 41.582 5.01952C41.7721 5.16301 41.9259 5.34908 42.031 5.56277C42.1362 5.77646 42.1898 6.01183 42.1875 6.24999Z" fill="#2151C5"/>
</svg>
