<svg width="40" height="42" viewBox="0 0 40 42" fill="none" xmlns="http://www.w3.org/2000/svg">
<path d="M37.2609 27.601C37.8925 25.5555 37.5623 22.9003 35.3797 22.1943C29.8393 20.4038 25.9715 24.5809 25.429 24.6946C24.8388 24.8183 23.1348 23.1665 18.4796 23.2252C15.6617 23.2614 12.3904 26.2265 12.4381 26.1353C12.4381 26.1353 12.3967 23.4276 10.7629 13.7763C10.6662 13.2053 10.9952 12.7042 11.1761 12.1619C13.6311 12.0982 15.4984 10.9923 15.5951 10.9961C15.678 10.9998 17.1297 11.4784 17.5654 11.4222C18.6479 11.2822 19.2168 10.6925 19.4491 10.0627C19.591 9.6791 19.3712 9.26051 19.0384 9.02185C18.7672 8.82692 18.2398 8.39084 18.2398 8.39084C19.3072 8.01599 20.195 6.82644 20.2791 6.60652C20.3959 6.30164 20.3419 5.95927 20.2465 5.64564C20.1837 5.43572 20.1021 5.23205 20.0016 5.03712C19.8321 4.70975 17.9484 1.45974 17.848 1.34728C17.4863 0.942433 17.1473 1.26606 16.7868 1.27481C16.4993 1.28105 16.2469 1.08738 15.9656 1.02365C15.6177 0.943682 15.2611 1.06614 14.9271 1.19859C14.0279 1.56969 13.1301 1.9408 12.2309 2.31191C10.5281 3.07037 8.52766 3.55519 7.13502 4.86469C6.20701 5.7381 5.60047 6.90891 5.23755 8.12719C4.91733 9.20053 4.80934 10.58 4.62851 11.6708C4.32838 13.4777 3.30618 17.8272 2.7662 19.5116C0.0236083 28.0646 0.750697 32.4417 0.956643 32.7953C1.21533 33.2364 1.12366 33.8774 1.15631 34.3647C1.21282 35.1969 1.53178 36.0191 2.10316 36.6288C2.63686 37.1986 3.73314 37.551 4.50921 37.4498C7.71895 37.0299 12.4444 37.2448 13.7918 37.4048C15.2083 38.2507 16.1376 38.3532 17.8982 38.673C19.7027 39.0017 21.8162 38.9554 23.185 38.7205C24.0829 39.6139 25.0586 40.8422 26.1812 41.5957C26.6496 41.9106 27.2863 41.7869 27.6191 41.332C29.8368 38.2944 32.4827 39.2216 34.075 36.0053C34.6966 34.7508 33.903 33.1427 34.4379 31.8494C34.885 30.7711 35.8795 30.0276 36.5564 29.0755C36.8502 28.6619 37.0913 28.1533 37.2621 27.601H37.2609Z" fill="#EDA574"/>
<path style="mix-blend-mode:multiply" opacity="0.5" d="M19.6915 6.69019C19.6224 6.72892 19.1452 6.92385 19.0661 6.9251C18.8463 6.92885 18.6027 6.30534 18.452 6.07917C18.8463 7.07629 18.8375 7.24998 18.5763 7.52487C18.3867 7.72479 18.1469 7.63733 17.8769 7.69606C17.6986 7.73604 17.3105 8.07466 16.9652 7.92222C16.9263 7.90473 16.8472 7.72229 16.7768 7.54986C16.6902 7.76603 16.5294 8.16838 16.2808 8.26334C16.0585 8.34831 15.7132 8.30332 15.5261 8.29833C15.1167 8.28708 15.2875 8.15963 15.2134 7.75853C15.1607 8.18087 14.9886 8.43202 14.9208 8.47201C14.6408 8.63945 14.1548 8.59696 13.7617 8.52449C13.6625 8.50575 13.5596 8.487 13.4792 8.42703C13.3963 8.3658 13.3473 8.27084 13.3059 8.17712C13.0698 7.64233 12.8764 5.85176 12.4369 5.45691C12.6253 7.04006 12.2586 7.25997 11.3921 7.9647C11.3117 8.02968 11.2288 8.0934 11.1723 8.17837C11.107 8.27833 11.0857 8.40079 11.0568 8.51574C10.8672 9.27545 10.2933 9.90271 9.60891 10.2888C8.92452 10.6749 8.13589 10.8411 7.35229 10.9161C8.00153 11.0148 8.55406 11.1385 9.17316 11.3709C9.36027 11.4409 9.54863 11.5121 9.71439 11.6221C9.93038 11.7658 10.0987 11.9707 10.2933 12.1431C10.9689 12.7391 11.5466 12.5717 12.3666 12.5567C13.8182 12.5305 15.2159 11.7945 16.6613 11.9369C16.9451 11.9657 17.2264 12.0269 17.5127 12.0356C17.7978 12.0444 18.0979 11.9944 18.3252 11.8207C18.5701 11.6346 18.8727 11.4996 18.9845 11.2272C19.0962 10.9536 19.3223 10.7411 19.4441 10.47C19.5596 10.2151 19.7517 9.64656 19.6739 9.37791C19.6124 9.16674 19.3574 8.94433 19.2432 8.75565C18.9694 8.30082 19.1841 8.18587 19.4026 7.80476C19.5357 7.57235 20.0355 7.52612 20.1461 7.28246C20.2201 7.11753 20.4173 6.73642 20.352 6.12041C20.352 6.12041 19.9326 6.55649 19.6915 6.69019Z" fill="url(#paint0_linear_32_45)"/>
<path style="mix-blend-mode:multiply" opacity="0.4" d="M27.9394 27.5747C27.8628 31.0709 23.6836 31.1484 22.0235 31.1471C19.9125 31.1446 17.8255 30.7335 15.7296 30.4799C14.4738 30.3287 13.203 30.2337 11.9384 30.3199C10.9137 30.3899 9.82246 30.8822 8.82161 30.8822C12.4596 31.2133 16.9062 31.7419 20.455 32.6028C20.0645 32.619 18.8389 32.7065 18.4471 32.7328C17.5756 32.7053 14.6107 33.0476 13.9941 33.1388C11.0883 33.5699 8.17992 33.0826 5.30672 32.6253C4.54321 32.5041 3.73073 32.3591 3.16313 31.8368C2.56287 31.2833 2.36571 30.4249 2.28032 29.6152C1.95508 26.5264 3.0162 23.3701 3.69683 20.3812C4.21672 18.0946 4.73786 15.803 5.0292 13.4739C5.15854 12.4442 5.11961 11.3559 5.34314 10.3525C5.45992 9.82899 5.68596 7.52987 5.91954 7.10878C4.70019 9.30919 4.77553 12.0819 4.3335 14.4972C3.76213 17.6185 2.59929 20.5861 1.69765 23.6187C0.853771 26.4589 -0.00140691 29.3978 1.46156 32.178C1.95885 33.1226 2.61938 33.9698 3.27615 34.812C2.73491 34.6008 2.23888 34.2784 1.82448 33.8723C2.15851 34.5608 2.61561 35.1906 3.16689 35.7229C3.28117 35.8328 3.40047 35.9403 3.54362 36.009C3.75836 36.114 4.007 36.149 4.2456 36.1302C10.0937 35.6654 14.1749 37.0086 14.1749 37.0086C18.9469 39.3515 23.5128 37.9783 23.8544 38.1195C24.1483 38.2407 24.3492 39.8575 26.7791 41.6881C26.8456 41.7381 27.1772 41.7768 27.4848 41.4782C27.6255 41.3407 27.7887 41.0996 27.9256 40.9321C28.1906 40.6085 28.4794 40.2974 28.6426 40.1887C29.4212 39.6714 29.5807 39.3477 30.7247 38.9116C31.6037 38.5768 33.7875 37.1761 33.3254 36.8824C27.967 33.4775 27.9306 27.8996 27.9394 27.576V27.5747ZM10.8685 35.1593C11.5592 35.1331 15.9581 34.2509 16.0799 34.2172C19.512 34.0085 20.4751 35.1331 23.6372 35.0419C16.2884 36.7162 10.8685 35.1593 10.8685 35.1593Z" fill="url(#paint1_linear_32_45)"/>
<g style="mix-blend-mode:multiply" opacity="0.3">
<path d="M8.78259 28.2845C8.01406 20.35 8.64948 17.3061 9.00738 14.6459C9.08775 24.2722 9.54987 22.9702 8.78259 28.2845Z" fill="#EDA574"/>
</g>
<path style="mix-blend-mode:screen" opacity="0.9" d="M32.6346 21.5433C30.093 21.5433 26.7777 23.2726 25.5396 24.6571C26.3746 25.3418 27.1959 26.1952 27.1959 26.885C27.1959 26.9924 27.1821 27.0962 27.1545 27.1961C28.6852 27.4123 30.7949 27.401 32.6711 27.401C36.1119 27.401 39.5853 26.8762 39.5853 25.4755C39.5853 24.0748 36.0742 21.5433 32.6334 21.5433H32.6346Z" fill="url(#paint2_radial_32_45)"/>
<path style="mix-blend-mode:screen" opacity="0.9" d="M26.8419 26.8862C26.8419 28.287 23.3685 28.8118 19.9277 28.8118C16.4869 28.8118 12.2574 28.8505 12.2574 27.4498C12.2574 26.0491 15.8967 22.5891 19.3375 22.5891C22.7783 22.5891 26.8419 25.4855 26.8419 26.8862Z" fill="url(#paint3_radial_32_45)"/>
<path style="mix-blend-mode:screen" opacity="0.5" d="M14.612 5.53937C14.4939 4.91961 14.5605 4.11492 14.1787 3.58512C13.9514 3.27024 13.7166 3.16153 13.3461 3.25024C12.8263 3.3752 11.2905 3.75505 10.4014 4.17864C10.9979 4.19114 11.6019 4.14865 12.1996 4.13241C12.3767 4.12741 12.5625 4.12491 12.722 4.20363C13.0561 4.36857 13.0862 4.74842 13.1804 5.06205C13.3097 5.49064 13.5885 8.00968 14.1699 8.19836C14.3784 8.26583 14.8041 8.20086 14.9322 8.02342C15.0402 7.87348 14.7413 6.20912 14.6132 5.54062L14.612 5.53937Z" fill="url(#paint4_radial_32_45)"/>
<path style="mix-blend-mode:screen" opacity="0.3" d="M12.5474 31.6469C10.5721 31.5807 8.51638 31.3058 6.88011 30.2125C8.12332 29.7776 11.2665 29.0217 15.0187 29.5027C19.7392 30.1075 27.1959 30.9909 27.4797 27.6422C26.5354 31.6419 11.8379 28.3157 9.35648 28.4856C9.16058 28.4994 8.95087 28.5094 8.78511 28.4057C8.66707 28.3319 8.58921 28.212 8.5214 28.0908C8.07686 27.2998 7.91737 26.3864 7.80436 25.4893C7.56074 23.56 7.50046 21.6095 7.61976 19.6702C7.73152 17.8659 7.82822 15.8005 8.66456 14.1586C8.69972 14.0899 8.7399 14.0187 8.80897 13.9812C8.92073 13.9224 9.05887 13.9799 9.16058 14.0549C9.74452 14.486 9.61894 15.2869 9.66666 15.9254C9.73196 16.8076 9.79726 17.6885 9.86381 18.5707L10.2569 23.8612C10.1928 22.9915 10.3875 22.0368 10.3937 21.1559C10.4013 20.2175 10.3799 19.2791 10.3737 18.3408C10.3636 16.5589 10.3511 14.7409 10.8647 13.0253C10.8446 13.094 10.292 13.0678 10.223 13.0578C10.0421 13.0315 9.89395 12.9591 9.742 12.8653C9.37532 12.6379 8.99859 12.333 8.76125 11.9719C8.65953 11.8157 8.57665 11.6383 8.42345 11.5309C8.29787 11.4434 6.78844 11.261 6.84369 11.0473C6.89518 10.8486 7.02327 10.7611 7.17522 10.6574C7.21289 10.6312 7.62478 10.3763 7.63734 10.3763C7.25559 10.3825 6.79095 10.3426 6.62142 10.0052C6.57622 9.91522 6.55989 9.81526 6.54608 9.7153C6.37655 8.50826 6.32883 7.20251 6.57998 6.00546C6.28237 6.32909 6.16684 6.77392 6.06135 7.19876C5.88554 7.90599 5.66327 8.61447 5.5716 9.33669C5.47742 10.0714 5.37319 10.8061 5.30538 11.5433C5.25013 12.1456 5.29533 12.6629 5.16976 13.2714C4.78298 15.1382 4.39746 17.005 4.01068 18.8718C3.34889 22.0693 2.68459 25.2894 2.63687 28.5531C2.62934 29.0429 2.6419 29.5552 2.87547 29.9888C3.14295 30.4849 3.65907 30.7985 4.16389 31.0597C5.56783 31.7856 7.0848 32.2979 8.64446 32.5753C11.2966 33.0464 14.0179 32.8352 16.704 32.6216L19.1351 32.4279C19.0033 32.1955 14.5227 31.7094 12.5474 31.6432V31.6469Z" fill="url(#paint5_radial_32_45)"/>
<path style="mix-blend-mode:screen" opacity="0.5" d="M11.0719 3.47892C11.5855 3.38521 13.7015 2.55553 13.9564 2.66923C14.1159 2.73921 14.7714 3.33898 14.8417 3.58513C15.1783 4.77093 15.28 6.31659 15.4457 7.53738C15.4658 7.68232 15.4884 7.83351 15.5751 7.95097C15.6843 8.09966 16.3825 8.08342 16.4177 7.866C16.4529 7.64858 16.4441 7.17751 16.3976 6.96135C16.3398 6.6902 16.2821 6.4203 16.2243 6.14915C15.9619 4.91837 15.6969 3.6751 15.1707 2.53054C15.1305 2.44182 15.0853 2.3506 15.0075 2.29188C14.9409 2.2419 14.8568 2.2194 14.7739 2.21191C14.5529 2.19066 14.3344 2.25939 14.1222 2.32561C13.3813 2.56052 11.7751 3.1503 11.0719 3.48017V3.47892Z" fill="url(#paint6_radial_32_45)"/>
<path style="mix-blend-mode:screen" opacity="0.5" d="M14.6797 1.78331C14.9309 1.73583 15.3051 1.78331 15.5274 1.96699C15.7798 2.17566 17.249 7.48864 17.5705 7.51988C17.681 7.53112 17.7928 7.50613 17.9008 7.48239C18.0803 7.4424 18.28 7.38993 18.3742 7.23248C18.4244 7.14752 18.4357 7.04381 18.4307 6.94509C18.4181 6.72393 17.8141 5.08205 17.6534 4.74343C17.1636 3.70758 16.8497 2.56052 16.0962 1.69585C16.0133 1.59963 15.9217 1.50592 15.8061 1.45344C15.6253 1.37097 14.7852 1.59464 14.6785 1.78456L14.6797 1.78331Z" fill="url(#paint7_radial_32_45)"/>
<path style="mix-blend-mode:screen" opacity="0.5" d="M19.8812 6.21538C19.8673 6.02545 19.2595 4.61099 19.0976 4.31985C18.6053 3.42769 18.216 2.28812 17.6145 1.60713C17.5366 1.51967 17.3571 1.53216 17.2415 1.48593C17.1486 1.44969 16.8146 1.44595 16.4956 1.47219C16.5396 1.58714 16.6074 1.72209 16.635 1.84204C16.7317 1.88953 16.7869 1.92451 16.8472 1.97075C16.954 2.05321 18.7007 6.68395 19.0222 6.71019C19.1327 6.71893 19.2445 6.69894 19.3525 6.6777C19.5321 6.64396 19.7317 6.59773 19.8259 6.46278C19.8761 6.38906 19.8874 6.30034 19.8812 6.21538Z" fill="url(#paint8_radial_32_45)"/>
<path style="mix-blend-mode:screen" opacity="0.2" d="M11.1887 4.54975C9.99323 4.62097 8.83165 5.02082 7.70522 5.44316C7.3084 5.59185 6.90028 5.75179 6.60015 6.05043C6.40425 6.2441 6.26486 6.48776 6.15812 6.74016C5.93208 7.26996 5.84041 7.84599 5.74999 8.41453C5.642 9.09802 5.534 9.78151 5.42475 10.4662C5.34438 10.9736 5.26778 11.5108 5.46493 11.9844C5.55409 12.1981 5.72865 12.4068 5.96096 12.4192C6.19454 12.4317 6.39295 12.2381 6.49215 12.0269C6.59136 11.8157 6.62526 11.5796 6.71819 11.3659C6.94423 10.8511 7.48044 10.545 8.00535 10.34C8.53152 10.1351 9.09536 9.98768 9.53739 9.63781C10.1502 9.15299 10.3863 8.40703 10.8484 7.80851C11.1799 7.37867 11.5039 7.08128 11.7262 6.56648C11.9183 6.12165 12.5927 4.551 11.6282 4.53975C11.4813 4.53851 11.3344 4.54225 11.1875 4.551L11.1887 4.54975Z" fill="url(#paint9_radial_32_45)"/>
<path style="mix-blend-mode:multiply" opacity="0.3" d="M11.4675 11.9819C11.755 12.0431 12.452 11.9619 13.3298 11.6271C13.3963 11.6021 12.4658 12.2106 12.4407 12.2768C12.4256 12.3155 12.3842 12.3368 12.3465 12.353C11.9484 12.523 11.5077 12.5892 11.0769 12.5442C11.0782 12.3555 10.9664 12.1843 10.8421 12.0406C10.439 11.5721 10.1678 11.3284 8.68469 10.9686C8.93208 10.9561 9.99822 11.2185 10.1728 11.2947C10.4352 11.4084 11.0367 11.892 11.4662 11.9832L11.4675 11.9819Z" fill="url(#paint10_linear_32_45)"/>
<path opacity="0.8" d="M19.3147 33.2538C23.1448 33.951 28.3261 34.1397 28.7593 32.3092C28.5408 32.9289 20.7023 33.3175 19.3147 33.2538Z" fill="#EDA574"/>
<path d="M17.5793 8.18213C17.1499 8.16713 16.7204 8.39205 16.4856 8.75191C16.4203 8.85312 16.3688 8.96558 16.3587 9.08553C16.3374 9.34293 16.5094 9.57535 16.7028 9.74528C17.008 10.0139 18.0452 10.6462 18.5086 10.7686C19.0448 10.9098 19.3738 10.4188 19.4868 10.0652C19.571 9.80276 19.4969 9.50912 19.3487 9.27671C19.2005 9.0443 18.9845 8.86437 18.7648 8.69943C18.4132 8.43703 18.0176 8.19587 17.5793 8.18088V8.18213Z" fill="#EDA574"/>
<defs>
<linearGradient id="paint0_linear_32_45" x1="14.7375" y1="7.77228" x2="12.9764" y2="11.6512" gradientUnits="userSpaceOnUse">
<stop stop-color="#EDA574"/>
<stop offset="1" stop-color="#EDA574"/>
</linearGradient>
<linearGradient id="paint1_linear_32_45" x1="30.4924" y1="36.1977" x2="1.59931" y2="19.6149" gradientUnits="userSpaceOnUse">
<stop stop-color="#EDA574"/>
<stop offset="1" stop-color="#EDA574"/>
</linearGradient>
<radialGradient id="paint2_radial_32_45" cx="0" cy="0" r="1" gradientUnits="userSpaceOnUse" gradientTransform="translate(32.175 19.9501) scale(12.3844 12.3228)">
<stop stop-color="#FAC28B"/>
<stop offset="1" stop-color="#EDA574"/>
</radialGradient>
<radialGradient id="paint3_radial_32_45" cx="0" cy="0" r="1" gradientUnits="userSpaceOnUse" gradientTransform="translate(19.9515 22.6366) scale(13.8838 13.8147)">
<stop stop-color="#FAC28B"/>
<stop offset="1" stop-color="#EDA574"/>
</radialGradient>
<radialGradient id="paint4_radial_32_45" cx="0" cy="0" r="1" gradientUnits="userSpaceOnUse" gradientTransform="translate(10.7768 2.02946) scale(16.5812 16.4987)">
<stop stop-color="#FAC28B"/>
<stop offset="1" stop-color="#EDA574"/>
</radialGradient>
<radialGradient id="paint5_radial_32_45" cx="0" cy="0" r="1" gradientUnits="userSpaceOnUse" gradientTransform="translate(12.5461 23.1627) scale(19.0387 18.944)">
<stop stop-color="#FAC28B"/>
<stop offset="1" stop-color="#EDA574"/>
</radialGradient>
<radialGradient id="paint6_radial_32_45" cx="0" cy="0" r="1" gradientUnits="userSpaceOnUse" gradientTransform="translate(11.5152 0.81494) scale(19.4154 19.3189)">
<stop stop-color="#FAC28B"/>
<stop offset="1" stop-color="#EDA574"/>
</radialGradient>
<radialGradient id="paint7_radial_32_45" cx="0" cy="0" r="1" gradientUnits="userSpaceOnUse" gradientTransform="translate(14.9899 -0.0147508) scale(18.4008 18.3093)">
<stop stop-color="#FAC28B"/>
<stop offset="1" stop-color="#EDA574"/>
</radialGradient>
<radialGradient id="paint8_radial_32_45" cx="0" cy="0" r="1" gradientUnits="userSpaceOnUse" gradientTransform="translate(16.1691 0.200795) scale(18.6795 15.9845)">
<stop stop-color="#FAC28B"/>
<stop offset="1" stop-color="#EDA574"/>
</radialGradient>
<radialGradient id="paint9_radial_32_45" cx="0" cy="0" r="1" gradientUnits="userSpaceOnUse" gradientTransform="translate(5.77888 5.43441) scale(6.54129 6.50877)">
<stop stop-color="#FAC28B"/>
<stop offset="1" stop-color="#EDA574"/>
</radialGradient>
<linearGradient id="paint10_linear_32_45" x1="10.9953" y1="11.3272" x2="10.6752" y2="12.0319" gradientUnits="userSpaceOnUse">
<stop stop-color="#EDA574"/>
<stop offset="1" stop-color="#EDA574"/>
</linearGradient>
</defs>
</svg>
