<svg id="Layer_2" data-name="Layer 2" xmlns="http://www.w3.org/2000/svg" viewBox="0 0 841.89 595.28"><defs><style>.cls-1{fill:#b2c000;}.cls-2{fill:#859000;}.cls-3{fill:#ffefe7;}.cls-4{fill:#bfb0a9;}.cls-5{fill:#fff3ed;}.cls-6{fill:#e8d999;}.cls-7{fill:#f59895;stroke:#f59895;stroke-miterlimit:10;stroke-width:4px;}.cls-8{fill:#aea373;}</style></defs><title>tail</title><g id="body"><g id="body-2" data-name="body"><path class="cls-1" d="M342.62,211.73C332.5,219.21,329,230.25,326.18,238a92.4,92.4,0,0,0-4.64,20.37c-2.28,17.25-2.76,29.84-3.52,47.57,0,0-.44,10.22.09,62.91a24.08,24.08,0,0,0,.71,5.65,27.07,27.07,0,0,0,2.59,6.31c2.49,4.22,14.77,9.84,50.8,11.51,8.86.41,14.48.56,22.29.58,5.59,0,8.8-.1,13.07,0,5.71.11,10.2.46,13.21.7,0,0,48.74,3.9,74.91-1.11a9.62,9.62,0,0,0,5.88-3.08,10,10,0,0,0,1.7-3.68c.81-2.62.68-4.19,1-7.71,0-.41.29-2.16.79-5.65,1.54-10.8,4.14-20.93,5.27-33.13.25-2.7.39-5.71.58-12.77a533.22,533.22,0,0,0-2.66-67.71c-1.55-10.42-5.67-29.2-17.7-43.67a41.53,41.53,0,0,0-9.41-8.66c-9.87-6.45-20.18-6.64-27.44-6.66-29.38-.09-32.77,2.45-52.56,2.15-18.36-.27-24.78-2.6-38.4,1C357.46,204.38,349.76,206.45,342.62,211.73Z"/><path class="cls-2" d="M510.26,284.11l-1.22-17a98.26,98.26,0,0,0-9.57-36.83c-4.08-8.4-8.76-17.72-19.2-24.54a46.12,46.12,0,0,0-13.43-6l-111.14.67,115.22,11.82q8.59,22,17.2,44a231.76,231.76,0,0,1,1.31,30.43q-5.62,32.34-11.24,64.69Q471,370.62,463,390.1c-.68,1.66-1.37,3.32-2.05,5,7.56-.06,13.82-.3,18.49-.53,0,0,2.66-.13,10.32-1,6.9-.76,8.74-1.17,10.37-2.52,3-2.45,3.47-6.45,3.66-8.42,1.93-19.85,6.79-32.32,7.25-60.59,0-2.38.06-4.77.06-4.77,0-3.13,0-7.24-.06-12C510.89,296.64,510.56,289.43,510.26,284.11Z"/><path class="cls-2" d="M449,195c-7.15-1.59-15.07-3.35-20.66,1.38-4.79,4.05-4.78,10.37-4.78,10.63.1,9.35,10.66,16,18.52,18,6.79,1.75,18.33,1.8,24.08-6,.43-.57,4.79-6.68,2.69-12.93C466.46,198.82,457.11,196.8,449,195Z"/><path class="cls-3" d="M429.65,200.23a14.08,14.08,0,0,0,2,8.11c3.74,6,10.8,6.52,11.59,6.57A19.28,19.28,0,0,0,466,204.62q-3.92-12.39-7.82-24.79l-15.8-10.69-10.35,3,9.09,11.3Z"/><path class="cls-4" d="M432.77,209.83a19.25,19.25,0,0,0,4.74,3.78c6.49,3.66,13.22,2.38,15.43,1.86a14.69,14.69,0,0,0,7.43-2.67,14.86,14.86,0,0,0,5.62-8.18q-3.92-12.39-7.82-24.79L441.94,168.6l12.44,12.63-1.79,22.61Z"/><path class="cls-2" d="M348.91,204.8c-3.48,1.36-7.33,2.86-9.34,6.65-.19.34-2.75,5.32-.71,8.54,3.9,6.16,21.77,1.33,31.48-3.49,4-2,8.12-4.7,10.12-9.46.88-2.11,1.58-3.76.89-5.22C378.81,196.37,360.31,200.36,348.91,204.8Z"/><path class="cls-4" d="M377.61,203.5a64,64,0,0,1-35.15,10.22L346.17,188,360,174.88l10.69,1.24-7.14,12.62Z"/><path class="cls-5" d="M363.73,210.24Q358.35,203,353,195.76L350.69,191l9.4-12.39,7.34-2.85-7.4-.86L346.17,188l-3.93,25.39a35.35,35.35,0,0,0,21.49-3.14Z"/></g><polygon class="cls-2" points="491.64 235.03 510.8 230.49 498.67 240.3 521.03 241.94 490.16 255.62 491.64 235.03"/><polygon class="cls-1" points="331.63 226.75 318.72 224.71 325.97 235.91 309.4 236.16 323.42 250.14 331.63 226.75"/><polygon class="cls-1" points="331.85 344.57 313.12 345.97 297.8 347.11 324.62 360.57 308.95 377.94 341.86 365.18 331.85 344.57"/><path class="cls-6" d="M370,335.15a99.83,99.83,0,0,0-4.51,30.78c0,3.27.24,6.39.56,9.31a152.3,152.3,0,0,0,56.75,1.7A104.58,104.58,0,0,0,414,336.28Z"/><line class="cls-7" x1="393.5" y1="356.38" x2="382.21" y2="365.59"/><line class="cls-7" x1="382.21" y1="356.38" x2="393.5" y2="365.59"/><path class="cls-8" d="M420.5,338.52l2.09,19.12c.2,1.59.26,3.19.38,4.79l.31,4.79.62,9.58v.08a1.74,1.74,0,0,1-1.52,1.83,159,159,0,0,1-56.32-3.15,157.12,157.12,0,0,0,55.77-.39l-1.5,1.91-1.22-9.45-.61-4.71c-.21-1.57-.37-3.15-.67-4.71l-3.26-18.72-.51-2.95,6.11-1Z"/></g></svg>